# Spring Unit export, Created by Beherith mysterme@gmail.com with the help of Muon 
# arguments of an object 'o' piecename:
# Mxyz = midpoint of an s3o
# r = unit radius
# h = height
#			 t1 t2 = textures 1 and 2
# Oxyz = piece offset
# p = parent
o empty_root_piece,ox=0.00,oy=0.00,oz=0.00,p=,mx=0.00,my=0.00,mz=0.00,r=2.00,h=4.00,t1=cor_color.dds,t2=cor_other.dds
v 3.519877 1.487929 1.455396
vn 0.694662 0.694662 0.186788
vt 0.037046045 0.820157170
v 3.334981 1.041550 3.803097
vn 0.694662 0.694662 0.186788
vt 0.015065587 0.821887970
v 3.945107 0.431424 3.803097
vn 0.694662 0.694662 0.186788
vt 0.015053197 0.829822302
vn 0.694662 0.694662 0.186788
vt 0.037046045 0.820157170
vn 0.694662 0.694662 0.186788
vt 0.015053197 0.829822302
v 4.391486 0.616320 1.455396
vn 0.694662 0.694662 0.186788
vt 0.037046276 0.831491947
v 1.415628 -0.616320 1.455396
vn -0.982400 0.000000 0.186788
vt 0.036936138 0.831504822
v 1.862007 -0.431424 3.803097
vn -0.982400 0.000000 0.186788
vt 0.014954761 0.829804599
v 1.862007 0.431424 3.803097
vn -0.982400 0.000000 0.186788
vt 0.014954761 0.821870267
vn -0.982400 0.000000 0.186788
vt 0.036936138 0.831504822
vn -0.982400 0.000000 0.186788
vt 0.014954761 0.821870267
v 1.415628 0.616320 1.455396
vn -0.982400 0.000000 0.186788
vt 0.036940724 0.820170045
v 3.519877 -1.487929 1.455396
vn 0.000000 -0.982400 0.186788
vt 0.036953114 0.831504822
v 3.334981 -1.041550 3.803097
vn 0.000000 -0.982400 0.186788
vt 0.014977017 0.829804599
v 2.472133 -1.041550 3.803097
vn 0.000000 -0.982400 0.186788
vt 0.014973346 0.821870267
vn 0.000000 -0.982400 0.186788
vt 0.036953114 0.831504822
vn 0.000000 -0.982400 0.186788
vt 0.014973346 0.821870267
v 2.287237 -1.487929 1.455396
vn 0.000000 -0.982400 0.186788
vt 0.036948986 0.820170045
v -0.886772 2.217015 3.758424
vn -0.000000 -1.000000 0.000000
vt 0.023386102 0.710220635
v -0.886772 2.217015 1.124267
vn -0.000000 -1.000000 0.000000
vt 0.000747566 0.710220635
v 0.949863 2.217015 1.124267
vn -0.000000 -1.000000 0.000000
vt 0.000747566 0.694433093
vn -0.000000 -1.000000 0.000000
vt 0.023386102 0.710220635
vn -0.000000 -1.000000 0.000000
vt 0.000747566 0.694433093
v 0.949863 2.217015 3.758424
vn -0.000000 -1.000000 0.000000
vt 0.023386102 0.694433093
v -0.886772 3.966052 3.758424
vn -0.000000 1.000000 -0.000000
vt 0.125731051 0.878140807
v -0.886772 3.966052 6.957996
vn -0.000000 1.000000 -0.000000
vt 0.184324801 0.878140807
v 0.949863 3.966052 6.957996
vn -0.000000 1.000000 -0.000000
vt 0.184324801 0.907402933
vn -0.000000 1.000000 -0.000000
vt 0.125731051 0.878140807
vn -0.000000 1.000000 -0.000000
vt 0.184324801 0.907402933
v 0.949863 3.966052 3.758424
vn -0.000000 1.000000 -0.000000
vt 0.125731051 0.907402933
v 2.248560 -0.918317 3.758424
vn -1.000000 0.000000 0.000000
vt 0.073002174 0.707268953
v 2.248560 -0.918317 8.557782
vn -1.000000 0.000000 0.000000
vt 0.037233509 0.707268953
v 2.248560 0.918317 8.557782
vn -1.000000 0.000000 0.000000
vt 0.037244752 0.720964134
vn -1.000000 0.000000 0.000000
vt 0.073002174 0.707268953
vn -1.000000 0.000000 0.000000
vt 0.037244752 0.720964134
v 2.248560 0.918317 3.758424
vn -1.000000 0.000000 0.000000
vt 0.073008828 0.720964134
v 3.997597 0.918317 3.758424
vn 1.000000 -0.000000 -0.000000
vt 0.184321582 0.907402933
v 3.997597 0.918317 6.957996
vn 1.000000 -0.000000 -0.000000
vt 0.125728294 0.907402933
v 3.997597 -0.918317 6.957996
vn 1.000000 -0.000000 -0.000000
vt 0.125726461 0.878140807
vn 1.000000 -0.000000 -0.000000
vt 0.184321582 0.907402933
vn 1.000000 -0.000000 -0.000000
vt 0.125726461 0.878140807
v 3.997597 -0.918317 3.758424
vn 1.000000 -0.000000 -0.000000
vt 0.184319511 0.878140807
v 0.949863 -2.217015 3.758424
vn -0.000000 1.000000 0.000000
vt 0.023385873 0.710220635
v 0.949863 -2.217015 1.124267
vn -0.000000 1.000000 0.000000
vt 0.000752155 0.710220635
v -0.886772 -2.217015 1.124267
vn -0.000000 1.000000 0.000000
vt 0.000752155 0.694433093
vn -0.000000 1.000000 0.000000
vt 0.023385873 0.710220635
vn -0.000000 1.000000 0.000000
vt 0.000752155 0.694433093
v -0.886772 -2.217015 3.758424
vn -0.000000 1.000000 0.000000
vt 0.023385873 0.694433093
v 0.949863 -3.966052 3.758424
vn 0.000000 -1.000000 0.000000
vt 0.125676662 0.878140807
v 0.949863 -3.966052 6.957996
vn 0.000000 -1.000000 0.000000
vt 0.184269726 0.878140807
v -0.886772 -3.966052 6.957996
vn 0.000000 -1.000000 0.000000
vt 0.184269726 0.907402933
vn 0.000000 -1.000000 0.000000
vt 0.125676662 0.878140807
vn 0.000000 -1.000000 0.000000
vt 0.184269726 0.907402933
v -0.886772 -3.966052 3.758424
vn 0.000000 -1.000000 0.000000
vt 0.125676662 0.907402933
v -2.185469 0.918317 3.758424
vn 0.000000 1.000000 -0.000000
vt 0.390233546 0.888548195
v -3.934506 0.918317 3.758424
vn 0.000000 1.000000 -0.000000
vt 0.374559432 0.888548195
v -3.934506 0.918317 6.957996
vn 0.000000 1.000000 -0.000000
vt 0.374561280 0.917251647
vn 0.000000 1.000000 -0.000000
vt 0.390233546 0.888548195
vn 0.000000 1.000000 -0.000000
vt 0.374561280 0.917251647
v -2.185469 0.918317 8.557782
vn 0.000000 1.000000 -0.000000
vt 0.390241802 0.931603372
v -2.185469 -0.918317 8.557782
vn -0.000000 -1.000000 0.000000
vt 0.390215427 0.931603372
v -3.934506 -0.918317 6.957996
vn -0.000000 -1.000000 0.000000
vt 0.374537200 0.917251647
v -3.934506 -0.918317 3.758424
vn -0.000000 -1.000000 0.000000
vt 0.374537647 0.888548195
vn -0.000000 -1.000000 0.000000
vt 0.390215427 0.931603372
vn -0.000000 -1.000000 0.000000
vt 0.374537647 0.888548195
v -2.185469 -0.918317 3.758424
vn -0.000000 -1.000000 0.000000
vt 0.390213370 0.888548195
v -2.310989 1.487929 1.455396
vn 0.694662 0.694662 0.186788
vt 0.037023559 0.820157170
v -2.495885 1.041550 3.803097
vn 0.694662 0.694662 0.186788
vt 0.015042642 0.821887970
v -1.885759 0.431424 3.803097
vn 0.694662 0.694662 0.186788
vt 0.015015796 0.829822302
vn 0.694662 0.694662 0.186788
vt 0.037023559 0.820157170
vn 0.694662 0.694662 0.186788
vt 0.015015796 0.829822302
v -1.439380 0.616320 1.455396
vn 0.694662 0.694662 0.186788
vt 0.037014611 0.831491947
v -4.415239 0.616320 1.455396
vn -0.694662 0.694662 0.186788
vt 0.036985241 0.831504822
v -3.968860 0.431424 3.803097
vn -0.694662 0.694662 0.186788
vt 0.015003406 0.829804599
v -3.358734 1.041550 3.803097
vn -0.694662 0.694662 0.186788
vt 0.015005011 0.821870267
vn -0.694662 0.694662 0.186788
vt 0.036985241 0.831504822
vn -0.694662 0.694662 0.186788
vt 0.015005011 0.821870267
v -3.543630 1.487929 1.455396
vn -0.694662 0.694662 0.186788
vt 0.036985010 0.820170045
v -3.543630 -1.487929 1.455396
vn -0.694662 -0.694662 0.186788
vt 0.036963440 0.831504822
v -3.358734 -1.041550 3.803097
vn -0.694662 -0.694662 0.186788
vt 0.014983443 0.829804599
v -3.968860 -0.431424 3.803097
vn -0.694662 -0.694662 0.186788
vt 0.014993997 0.821870267
vn -0.694662 -0.694662 0.186788
vt 0.036963440 0.831504822
vn -0.694662 -0.694662 0.186788
vt 0.014993997 0.821870267
v -4.415239 -0.616320 1.455396
vn -0.694662 -0.694662 0.186788
vt 0.036968946 0.820170045
v -1.439380 -0.616320 1.455396
vn 0.694662 -0.694662 0.186788
vt 0.036996942 0.831491947
v -1.885759 -0.431424 3.803097
vn 0.694662 -0.694662 0.186788
vt 0.015015796 0.829822302
v -2.495885 -1.041550 3.803097
vn 0.694662 -0.694662 0.186788
vt 0.015021303 0.821887970
vn 0.694662 -0.694662 0.186788
vt 0.036996942 0.831491947
vn 0.694662 -0.694662 0.186788
vt 0.015021303 0.821887970
v -2.310989 -1.487929 1.455396
vn 0.694662 -0.694662 0.186788
vt 0.036999464 0.820157170
vn -0.694662 0.694662 0.186788
vt 0.036952887 0.831504822
vn -0.694662 0.694662 0.186788
vt 0.014954761 0.829804599
v 2.472133 1.041550 3.803097
vn -0.694662 0.694662 0.186788
vt 0.014980689 0.821870267
vn -0.694662 0.694662 0.186788
vt 0.036952887 0.831504822
vn -0.694662 0.694662 0.186788
vt 0.014980689 0.821870267
v 2.287237 1.487929 1.455396
vn -0.694662 0.694662 0.186788
vt 0.036962066 0.820170045
vn -0.694662 -0.694662 0.186788
vt 0.036938202 0.831504822
vn -0.694662 -0.694662 0.186788
vt 0.014960268 0.829804599
vn -0.694662 -0.694662 0.186788
vt 0.014954761 0.821870267
vn -0.694662 -0.694662 0.186788
vt 0.036938202 0.831504822
vn -0.694662 -0.694662 0.186788
vt 0.014954761 0.821870267
vn -0.694662 -0.694662 0.186788
vt 0.036935676 0.820170045
vn 0.982400 0.000000 0.186788
vt 0.036983173 0.831504822
vn 0.982400 0.000000 0.186788
vt 0.014995833 0.829804599
v 3.945107 -0.431424 3.803097
vn 0.982400 0.000000 0.186788
vt 0.014995604 0.821870267
vn 0.982400 0.000000 0.186788
vt 0.036983173 0.831504822
vn 0.982400 0.000000 0.186788
vt 0.014995604 0.821870267
v 4.391486 -0.616320 1.455396
vn 0.982400 0.000000 0.186788
vt 0.036982257 0.820170045
vn 1.000000 0.000000 0.000000
vt 0.390236288 0.888548195
vn 1.000000 0.000000 0.000000
vt 0.374559224 0.888548195
vn 1.000000 0.000000 0.000000
vt 0.374560148 0.917251647
vn 1.000000 0.000000 0.000000
vt 0.390236288 0.888548195
vn 1.000000 0.000000 0.000000
vt 0.374560148 0.917251647
v 0.949863 2.217015 8.557782
vn 1.000000 0.000000 0.000000
vt 0.390241802 0.931603372
vn -1.000000 0.000000 0.000000
vt 0.023423962 0.709844172
v -0.886772 3.966052 1.124267
vn -1.000000 0.000000 0.000000
vt 0.000780608 0.709844172
vn -1.000000 0.000000 0.000000
vt 0.000770741 0.694809616
vn -1.000000 0.000000 0.000000
vt 0.023423962 0.709844172
vn -1.000000 0.000000 0.000000
vt 0.000770741 0.694809616
vn -1.000000 0.000000 0.000000
vt 0.023415014 0.694809616
vn -0.000000 0.000000 -1.000000
vt 0.145523190 0.392107338
vn -0.000000 0.000000 -1.000000
vt 0.112462781 0.392107338
vn -0.000000 0.000000 -1.000000
vt 0.112455212 0.357360810
vn -0.000000 0.000000 -1.000000
vt 0.145523190 0.392107338
vn -0.000000 0.000000 -1.000000
vt 0.112455212 0.357360810
vn -0.000000 0.000000 -1.000000
vt 0.145514697 0.357360810
vn 0.674922 -0.000000 0.737889
vt 0.098792747 0.703272343
vn 0.674922 -0.000000 0.737889
vt 0.098801233 0.719845295
vn 0.674922 -0.000000 0.737889
vt 0.123278625 0.719845295
vn 0.674922 -0.000000 0.737889
vt 0.098792747 0.703272343
vn 0.674922 -0.000000 0.737889
vt 0.123278625 0.719845295
vn 0.674922 -0.000000 0.737889
vt 0.123274036 0.703272343
vn -1.000000 0.000000 0.000000
vt 0.390218645 0.888548195
vn -1.000000 0.000000 0.000000
vt 0.374534428 0.888548195
vn -1.000000 0.000000 0.000000
vt 0.374535799 0.917251647
vn -1.000000 0.000000 0.000000
vt 0.390218645 0.888548195
vn -1.000000 0.000000 0.000000
vt 0.374535799 0.917251647
v -0.886772 -2.217015 8.557782
vn -1.000000 0.000000 0.000000
vt 0.390223682 0.931603372
v 0.949863 -2.217015 8.557782
vn 1.000000 0.000000 0.000000
vt 0.390223682 0.931603372
vn 1.000000 0.000000 0.000000
vt 0.374536276 0.917251647
vn 1.000000 0.000000 0.000000
vt 0.374534667 0.888548195
vn 1.000000 0.000000 0.000000
vt 0.390223682 0.931603372
vn 1.000000 0.000000 0.000000
vt 0.374534667 0.888548195
vn 1.000000 0.000000 0.000000
vt 0.390218854 0.888548195
vn -0.000000 -1.000000 0.000000
vt 0.023381742 0.710220635
v -0.886772 -3.966052 1.124267
vn -0.000000 -1.000000 0.000000
vt 0.000739076 0.710220635
v 0.949863 -3.966052 1.124267
vn -0.000000 -1.000000 0.000000
vt 0.000739076 0.694433093
vn -0.000000 -1.000000 0.000000
vt 0.023381742 0.710220635
vn -0.000000 -1.000000 0.000000
vt 0.000739076 0.694433093
vn -0.000000 -1.000000 0.000000
vt 0.023381742 0.694433093
vn 0.000000 0.000000 -1.000000
vt 0.112435021 0.357360810
vn 0.000000 0.000000 -1.000000
vt 0.145534664 0.357360810
vn 0.000000 0.000000 -1.000000
vt 0.145543143 0.392107338
vn 0.000000 0.000000 -1.000000
vt 0.112435021 0.357360810
vn 0.000000 0.000000 -1.000000
vt 0.145543143 0.392107338
vn 0.000000 0.000000 -1.000000
vt 0.112443738 0.392107338
vn -0.674922 0.000000 0.737889
vt 0.123273805 0.703272343
vn -0.674922 0.000000 0.737889
vt 0.123278394 0.719845295
vn -0.674922 0.000000 0.737889
vt 0.098801002 0.719845295
vn -0.674922 0.000000 0.737889
vt 0.123273805 0.703272343
vn -0.674922 0.000000 0.737889
vt 0.098801002 0.719845295
vn -0.674922 0.000000 0.737889
vt 0.098792516 0.703272343
vn 0.382683 0.923880 -0.000000
vt 0.037271600 0.720964134
vn 0.382683 0.923880 -0.000000
vt 0.073053114 0.720964134
vn 0.923880 0.382683 -0.000000
vt 0.073053114 0.707268953
vn 0.382683 0.923880 -0.000000
vt 0.037271600 0.720964134
vn 0.923880 0.382683 -0.000000
vt 0.073053114 0.707268953
vn 0.923880 0.382683 -0.000000
vt 0.037263799 0.707268953
vn -0.923880 -0.382683 0.000000
vt 0.073011354 0.707268953
vn -0.923880 -0.382683 0.000000
vt 0.037272517 0.707268953
vn -0.923880 0.382683 -0.000000
vt 0.037278485 0.720964134
vn -0.923880 -0.382683 0.000000
vt 0.073011354 0.707268953
vn -0.923880 0.382683 -0.000000
vt 0.037278485 0.720964134
vn -0.923880 0.382683 -0.000000
vt 0.073021911 0.720964134
vn -0.382683 -0.923880 0.000000
vt 0.037252326 0.720964134
vn -0.382683 -0.923880 0.000000
vt 0.073021680 0.720964134
vn -0.923880 -0.382683 0.000000
vt 0.073028795 0.707268953
vn -0.382683 -0.923880 0.000000
vt 0.037252326 0.720964134
vn -0.923880 -0.382683 0.000000
vt 0.073028795 0.707268953
vn -0.923880 -0.382683 0.000000
vt 0.037245899 0.707268953
vn 0.382683 -0.923880 0.000000
vt 0.037242461 0.720964134
vn 0.382683 -0.923880 0.000000
vt 0.073012047 0.720964134
vn -0.382683 -0.923880 0.000000
vt 0.073011816 0.707268953
vn 0.382683 -0.923880 0.000000
vt 0.037242461 0.720964134
vn -0.382683 -0.923880 0.000000
vt 0.073011816 0.707268953
vn -0.382683 -0.923880 0.000000
vt 0.037242461 0.707268953
vn 0.923880 -0.382683 0.000000
vt 0.037243836 0.720964134
vn 0.923880 -0.382683 0.000000
vt 0.073029026 0.720964134
vn 0.382683 -0.923880 0.000000
vt 0.073021911 0.707268953
vn 0.923880 -0.382683 0.000000
vt 0.037243836 0.720964134
vn 0.382683 -0.923880 0.000000
vt 0.073021911 0.707268953
vn 0.382683 -0.923880 0.000000
vt 0.037252326 0.707268953
vn 0.923880 0.382683 -0.000000
vt 0.037253015 0.720964134
vn 0.923880 0.382683 -0.000000
vt 0.073045082 0.720964134
vn 0.923880 -0.382683 0.000000
vt 0.073039122 0.707268953
vn 0.923880 0.382683 -0.000000
vt 0.037253015 0.720964134
vn 0.923880 -0.382683 0.000000
vt 0.073039122 0.707268953
vn 0.923880 -0.382683 0.000000
vt 0.037242688 0.707268953
v -1.905238 0.802242 8.172284
vn -0.923880 0.382683 0.000000
vt 0.175049976 0.513138533
v -1.905238 0.802242 18.358677
vn -0.923880 0.382683 0.000000
vt 0.121827319 0.513138533
v -0.770697 1.936784 18.358677
vn -0.382683 0.923880 0.000000
vt 0.121827319 0.521517158
vn -0.923880 0.382683 0.000000
vt 0.175049976 0.513138533
vn -0.382683 0.923880 0.000000
vt 0.121827319 0.521517158
v -0.770697 1.936784 8.172284
vn -0.382683 0.923880 0.000000
vt 0.175049976 0.521517158
v -1.905238 -0.802242 8.172284
vn -0.923880 -0.382683 0.000000
vt 0.175049976 0.513138533
v -1.905238 -0.802242 18.358677
vn -0.923880 -0.382683 0.000000
vt 0.121827319 0.513138533
vn -0.923880 0.382683 0.000000
vt 0.121827319 0.521517158
vn -0.923880 -0.382683 0.000000
vt 0.175049976 0.513138533
vn -0.923880 0.382683 0.000000
vt 0.121827319 0.521517158
vn -0.923880 0.382683 0.000000
vt 0.175049976 0.521517158
v -0.770697 -1.936784 8.172284
vn -0.382683 -0.923880 0.000000
vt 0.175049976 0.513138533
v -0.770697 -1.936784 18.358677
vn -0.382683 -0.923880 0.000000
vt 0.121827319 0.513138533
vn -0.923880 -0.382683 0.000000
vt 0.121827319 0.521517158
vn -0.382683 -0.923880 0.000000
vt 0.175049976 0.513138533
vn -0.923880 -0.382683 0.000000
vt 0.121827319 0.521517158
vn -0.923880 -0.382683 0.000000
vt 0.175049976 0.521517158
v 1.968329 0.802242 8.172284
vn 0.923880 0.382683 -0.000000
vt 0.175049976 0.521517158
v 1.968329 0.802242 18.358677
vn 0.923880 0.382683 -0.000000
vt 0.121827319 0.521517158
v 1.968329 -0.802242 18.358677
vn 0.923880 -0.382683 0.000000
vt 0.121827319 0.513138533
vn 0.923880 0.382683 -0.000000
vt 0.175049976 0.521517158
vn 0.923880 -0.382683 0.000000
vt 0.121827319 0.513138533
v 1.968329 -0.802242 8.172284
vn 0.923880 -0.382683 0.000000
vt 0.175049976 0.513138533
v -3.657567 1.528080 26.266014
vn -0.923880 0.382683 -0.000000
vt 0.118037865 0.792091429
v -3.657567 1.528080 18.279882
vn -0.923880 0.382683 -0.000000
vt 0.101435609 0.792091429
v -3.657567 -1.528080 18.279882
vn -0.923880 -0.382683 -0.000000
vt 0.101431482 0.786306083
vn -0.923880 0.382683 -0.000000
vt 0.118037865 0.792091429
vn -0.923880 -0.382683 -0.000000
vt 0.101431482 0.786306083
v -3.657567 -1.528080 26.266014
vn -0.923880 -0.382683 -0.000000
vt 0.118033729 0.786306083
v 3.720658 -1.528080 26.266014
vn 0.923880 -0.382683 0.000000
vt 0.118034191 0.786306083
v 3.720658 -1.528080 18.279882
vn 0.923880 -0.382683 0.000000
vt 0.101432167 0.786306083
v 3.720658 1.528080 18.279882
vn 0.923880 0.382683 -0.000000
vt 0.101436071 0.792091429
vn 0.923880 -0.382683 0.000000
vt 0.118034191 0.786306083
vn 0.923880 0.382683 -0.000000
vt 0.101436071 0.792091429
v 3.720658 1.528080 26.266014
vn 0.923880 0.382683 -0.000000
vt 0.118038088 0.792091429
vn 0.000000 0.982400 0.186788
vt 0.036977436 0.831504822
vn 0.000000 0.982400 0.186788
vt 0.014999504 0.829804599
vn 0.000000 0.982400 0.186788
vt 0.014995374 0.821870267
vn 0.000000 0.982400 0.186788
vt 0.036977436 0.831504822
vn 0.000000 0.982400 0.186788
vt 0.014995374 0.821870267
vn 0.000000 0.982400 0.186788
vt 0.036973998 0.820170045
vn -0.982400 0.000000 0.186788
vt 0.036982026 0.831504822
vn -0.982400 0.000000 0.186788
vt 0.015007535 0.829804599
vn -0.982400 0.000000 0.186788
vt 0.015008453 0.821870267
vn -0.982400 0.000000 0.186788
vt 0.036982026 0.831504822
vn -0.982400 0.000000 0.186788
vt 0.015008453 0.821870267
vn -0.982400 0.000000 0.186788
vt 0.036982946 0.820170045
vn 0.000000 -0.982400 0.186788
vt 0.036948986 0.831504822
vn 0.000000 -0.982400 0.186788
vt 0.014973346 0.829804599
vn 0.000000 -0.982400 0.186788
vt 0.014977017 0.821870267
vn 0.000000 -0.982400 0.186788
vt 0.036948986 0.831504822
vn 0.000000 -0.982400 0.186788
vt 0.014977017 0.821870267
vn 0.000000 -0.982400 0.186788
vt 0.036952656 0.820170045
vn 0.982400 0.000000 0.186788
vt 0.036942102 0.831504822
vn 0.982400 0.000000 0.186788
vt 0.014954761 0.829804599
vn 0.982400 0.000000 0.186788
vt 0.014954761 0.821870267
vn 0.982400 0.000000 0.186788
vt 0.036942102 0.831504822
vn 0.982400 0.000000 0.186788
vt 0.014954761 0.821870267
vn 0.982400 0.000000 0.186788
vt 0.036938202 0.820170045
vn 0.000000 0.674922 0.737889
vt 0.204213083 0.877308130
vn 0.000000 0.674922 0.737889
vt 0.204217896 0.906352162
vn 0.000000 0.674922 0.737889
vt 0.186578512 0.906352162
vn 0.000000 0.674922 0.737889
vt 0.204213083 0.877308130
vn 0.000000 0.674922 0.737889
vt 0.186578512 0.906352162
v -0.886772 2.217015 8.557782
vn 0.000000 0.674922 0.737889
vt 0.186573923 0.877308130
vn -0.000000 0.000000 -1.000000
vt 0.020001404 0.694809616
vn -0.000000 0.000000 -1.000000
vt 0.020008976 0.709844172
v 0.949863 3.966052 1.124267
vn -0.000000 0.000000 -1.000000
vt 0.004200871 0.709844172
vn -0.000000 0.000000 -1.000000
vt 0.020001404 0.694809616
vn -0.000000 0.000000 -1.000000
vt 0.004200871 0.709844172
vn -0.000000 0.000000 -1.000000
vt 0.004193299 0.694809616
vn 0.000000 -1.000000 0.000000
vt 0.390211076 0.888548195
vn 0.000000 -1.000000 0.000000
vt 0.374538094 0.888548195
vn 0.000000 -1.000000 0.000000
vt 0.374537408 0.917251647
vn 0.000000 -1.000000 0.000000
vt 0.390211076 0.888548195
vn 0.000000 -1.000000 0.000000
vt 0.374537408 0.917251647
vn 0.000000 -1.000000 0.000000
vt 0.390215665 0.931603372
vn -0.000000 1.000000 -0.000000
vt 0.390242040 0.931603372
vn -0.000000 1.000000 -0.000000
vt 0.374561280 0.917251647
vn -0.000000 1.000000 -0.000000
vt 0.374559909 0.888548195
vn -0.000000 1.000000 -0.000000
vt 0.390242040 0.931603372
vn -0.000000 1.000000 -0.000000
vt 0.374559909 0.888548195
vn -0.000000 1.000000 -0.000000
vt 0.390231490 0.888548195
vn -1.000000 0.000000 0.000000
vt 0.023397345 0.709844172
vn -1.000000 0.000000 0.000000
vt 0.000755138 0.709844172
vn -1.000000 0.000000 0.000000
vt 0.000756744 0.694809616
vn -1.000000 0.000000 0.000000
vt 0.023397345 0.709844172
vn -1.000000 0.000000 0.000000
vt 0.000756744 0.694809616
vn -1.000000 0.000000 0.000000
vt 0.023399182 0.694809616
vn 0.000000 -0.674922 0.737889
vt 0.186540872 0.906352162
vn 0.000000 -0.674922 0.737889
vt 0.186538354 0.877308130
vn 0.000000 -0.674922 0.737889
vt 0.204177737 0.877308130
vn 0.000000 -0.674922 0.737889
vt 0.186540872 0.906352162
vn 0.000000 -0.674922 0.737889
vt 0.204177737 0.877308130
vn 0.000000 -0.674922 0.737889
vt 0.204180032 0.906352162
vn 1.000000 0.000000 -0.000000
vt 0.000755367 0.694809616
vn 1.000000 0.000000 -0.000000
vt 0.023401016 0.694809616
vn 1.000000 0.000000 -0.000000
vt 0.023399182 0.709844172
vn 1.000000 0.000000 -0.000000
vt 0.000755367 0.694809616
vn 1.000000 0.000000 -0.000000
vt 0.023399182 0.709844172
vn 1.000000 0.000000 -0.000000
vt 0.000753532 0.709844172
vn 1.000000 0.000000 0.000000
vt 0.037242230 0.720964134
vn 1.000000 0.000000 0.000000
vt 0.073011123 0.720964134
vn 1.000000 0.000000 0.000000
vt 0.072999880 0.707268953
vn 1.000000 0.000000 0.000000
vt 0.037242230 0.720964134
vn 1.000000 0.000000 0.000000
vt 0.072999880 0.707268953
vn 1.000000 0.000000 0.000000
vt 0.037235577 0.707268953
vn -1.000000 0.000000 0.000000
vt 0.125724614 0.878140807
vn -1.000000 0.000000 0.000000
vt 0.184319749 0.878140807
vn -1.000000 0.000000 0.000000
vt 0.184321806 0.907402933
vn -1.000000 0.000000 0.000000
vt 0.125724614 0.878140807
vn -1.000000 0.000000 0.000000
vt 0.184321806 0.907402933
vn -1.000000 0.000000 0.000000
vt 0.125727147 0.907402933
vn -0.839207 0.347611 -0.418207
vt 0.002098829 0.837001503
v -1.076962 0.459159 1.152359
vn -0.839207 0.347611 -0.418207
vt 0.035300348 0.831615806
v -1.076962 -0.459159 1.152359
vn -0.839207 -0.347611 -0.418207
vt 0.035294384 0.820844352
vn -0.839207 0.347611 -0.418207
vt 0.002098829 0.837001503
vn -0.839207 -0.347611 -0.418207
vt 0.035294384 0.820844352
vn -0.839207 -0.347611 -0.418207
vt 0.002088963 0.815458655
vn -0.839207 -0.347611 -0.418207
vt 0.002090569 0.815481961
vn -0.839207 -0.347611 -0.418207
vt 0.035292089 0.820830762
v -0.427613 -1.108507 1.152359
vn -0.347611 -0.839207 -0.418207
vt 0.035360467 0.831602156
vn -0.839207 -0.347611 -0.418207
vt 0.002090569 0.815481961
vn -0.347611 -0.839207 -0.418207
vt 0.035360467 0.831602156
vn -0.347611 -0.839207 -0.418207
vt 0.002095617 0.837024808
vn -0.347611 -0.839207 -0.418207
vt 0.002089192 0.815458655
vn -0.347611 -0.839207 -0.418207
vt 0.035303101 0.820844352
v 0.490704 -1.108507 1.152359
vn 0.347611 -0.839207 -0.418207
vt 0.035303332 0.831615806
vn -0.347611 -0.839207 -0.418207
vt 0.002089192 0.815458655
vn 0.347611 -0.839207 -0.418207
vt 0.035303332 0.831615806
vn 0.347611 -0.839207 -0.418207
vt 0.002089192 0.837001503
vn 0.347611 -0.839207 -0.418207
vt 0.002095617 0.837024808
vn 0.347611 -0.839207 -0.418207
vt 0.035360467 0.831602156
v 1.140053 -0.459159 1.152359
vn 0.839207 -0.347611 -0.418207
vt 0.035291169 0.820830762
vn 0.347611 -0.839207 -0.418207
vt 0.002095617 0.837024808
vn 0.839207 -0.347611 -0.418207
vt 0.035291169 0.820830762
vn 0.839207 -0.347611 -0.418207
vt 0.002088274 0.815481961
vn 0.839207 -0.347611 -0.418207
vt 0.002086898 0.815458655
vn 0.839207 -0.347611 -0.418207
vt 0.035292774 0.820844352
v 1.140053 0.459159 1.152359
vn 0.839207 0.347611 -0.418207
vt 0.035299432 0.831615806
vn 0.839207 -0.347611 -0.418207
vt 0.002086898 0.815458655
vn 0.839207 0.347611 -0.418207
vt 0.035299432 0.831615806
vn 0.839207 0.347611 -0.418207
vt 0.002096535 0.837001503
vn 0.839207 0.347611 -0.418207
vt 0.002106172 0.815458655
vn 0.839207 0.347611 -0.418207
vt 0.035307921 0.820844352
v 0.490704 1.108507 1.152359
vn 0.347611 0.839207 -0.418207
vt 0.035315033 0.831615806
vn 0.839207 0.347611 -0.418207
vt 0.002106172 0.815458655
vn 0.347611 0.839207 -0.418207
vt 0.035315033 0.831615806
vn 0.347611 0.839207 -0.418207
vt 0.002113514 0.837001503
vn 0.000000 0.982400 0.186788
vt 0.036973536 0.831504822
vn 0.000000 0.982400 0.186788
vt 0.014994686 0.829804599
vn 0.000000 0.982400 0.186788
vt 0.014999504 0.821870267
vn 0.000000 0.982400 0.186788
vt 0.036973536 0.831504822
vn 0.000000 0.982400 0.186788
vt 0.014999504 0.821870267
vn 0.000000 0.982400 0.186788
vt 0.036977436 0.820170045
vn 0.694662 -0.694662 0.186788
vt 0.037030213 0.831491947
vn 0.694662 -0.694662 0.186788
vt 0.015049296 0.829822302
vn 0.694662 -0.694662 0.186788
vt 0.015044019 0.821887970
vn 0.694662 -0.694662 0.186788
vt 0.037030213 0.831491947
vn 0.694662 -0.694662 0.186788
vt 0.015044019 0.821887970
vn 0.694662 -0.694662 0.186788
vt 0.037024707 0.820157170
vn -1.000000 0.000000 0.000000
vt 0.390241802 0.931603372
vn -1.000000 0.000000 0.000000
vt 0.374560148 0.917251647
vn -1.000000 0.000000 0.000000
vt 0.374559224 0.888548195
vn -1.000000 0.000000 0.000000
vt 0.390241802 0.931603372
vn -1.000000 0.000000 0.000000
vt 0.374559224 0.888548195
vn -1.000000 0.000000 0.000000
vt 0.390236288 0.888548195
vn -0.000000 1.000000 0.000000
vt 0.023436124 0.710220635
vn -0.000000 1.000000 0.000000
vt 0.000792080 0.710220635
vn -0.000000 1.000000 0.000000
vt 0.000792080 0.694433093
vn -0.000000 1.000000 0.000000
vt 0.023436124 0.710220635
vn -0.000000 1.000000 0.000000
vt 0.000792080 0.694433093
vn -0.000000 1.000000 0.000000
vt 0.023436124 0.694433093
vn -0.000000 1.000000 -0.000000
vt 0.037240852 0.720964134
vn -0.000000 1.000000 -0.000000
vt 0.073011585 0.720964134
vn -0.000000 1.000000 -0.000000
vt 0.073011585 0.707268953
vn -0.000000 1.000000 -0.000000
vt 0.037240852 0.720964134
vn -0.000000 1.000000 -0.000000
vt 0.073011585 0.707268953
vn -0.000000 1.000000 -0.000000
vt 0.037240852 0.707268953
vn -0.000000 0.000000 -1.000000
vt 0.004181826 0.709844172
vn -0.000000 0.000000 -1.000000
vt 0.004179531 0.694809616
vn -0.000000 0.000000 -1.000000
vt 0.019987637 0.694809616
vn -0.000000 0.000000 -1.000000
vt 0.004181826 0.709844172
vn -0.000000 0.000000 -1.000000
vt 0.019987637 0.694809616
vn -0.000000 0.000000 -1.000000
vt 0.019989932 0.709844172
vn 0.000000 -1.000000 0.000000
vt 0.037241083 0.720964134
vn 0.000000 -1.000000 0.000000
vt 0.073011585 0.720964134
vn 0.000000 -1.000000 0.000000
vt 0.073011585 0.707268953
vn 0.000000 -1.000000 0.000000
vt 0.037241083 0.720964134
vn 0.000000 -1.000000 0.000000
vt 0.073011585 0.707268953
vn 0.000000 -1.000000 0.000000
vt 0.037241083 0.707268953
vn 1.000000 0.000000 -0.000000
vt 0.000770970 0.694809616
vn 1.000000 0.000000 -0.000000
vt 0.023414783 0.694809616
vn 1.000000 0.000000 -0.000000
vt 0.023424650 0.709844172
vn 1.000000 0.000000 -0.000000
vt 0.000770970 0.694809616
vn 1.000000 0.000000 -0.000000
vt 0.023424650 0.709844172
vn 1.000000 0.000000 -0.000000
vt 0.000779919 0.709844172
vn -0.382683 0.923880 -0.000000
vt 0.037267011 0.720964134
vn 0.382683 0.923880 -0.000000
vt 0.073049903 0.707268953
vn 0.382683 0.923880 -0.000000
vt 0.037261732 0.707268953
vn -0.382683 0.923880 -0.000000
vt 0.037267011 0.720964134
vn -0.382683 0.923880 -0.000000
vt 0.073053807 0.720964134
vn 0.382683 0.923880 -0.000000
vt 0.073049903 0.707268953
vn -0.382683 0.923880 -0.000000
vt 0.037267011 0.720964134
vn -0.923880 0.382683 -0.000000
vt 0.037265863 0.707268953
vn -0.382683 0.923880 -0.000000
vt 0.073053807 0.720964134
vn -0.382683 0.923880 -0.000000
vt 0.073053807 0.720964134
vn -0.923880 0.382683 -0.000000
vt 0.037265863 0.707268953
vn -0.923880 0.382683 -0.000000
vt 0.073052883 0.707268953
v 0.833788 1.936784 8.172284
vn 0.382683 0.923880 -0.000000
vt 0.175049976 0.521517158
vn 0.923880 0.382683 -0.000000
vt 0.121827319 0.513138533
vn 0.923880 0.382683 -0.000000
vt 0.175049976 0.513138533
vn 0.382683 0.923880 -0.000000
vt 0.175049976 0.521517158
v 0.833788 1.936784 18.358677
vn 0.382683 0.923880 -0.000000
vt 0.121827319 0.521517158
vn 0.923880 0.382683 -0.000000
vt 0.121827319 0.513138533
vn 0.382683 0.923880 -0.000000
vt 0.175049976 0.521517158
vn -0.382683 0.923880 0.000000
vt 0.175049976 0.513138533
vn 0.382683 0.923880 -0.000000
vt 0.121827319 0.521517158
vn 0.382683 0.923880 -0.000000
vt 0.121827319 0.521517158
vn -0.382683 0.923880 0.000000
vt 0.175049976 0.513138533
vn -0.382683 0.923880 0.000000
vt 0.121827319 0.513138533
v 0.833788 -1.936784 8.172284
vn 0.382683 -0.923880 0.000000
vt 0.175049976 0.513138533
vn -0.382683 -0.923880 0.000000
vt 0.121827319 0.521517158
vn -0.382683 -0.923880 0.000000
vt 0.175049976 0.521517158
vn 0.382683 -0.923880 0.000000
vt 0.175049976 0.513138533
v 0.833788 -1.936784 18.358677
vn 0.382683 -0.923880 0.000000
vt 0.121827319 0.513138533
vn -0.382683 -0.923880 0.000000
vt 0.121827319 0.521517158
vn 0.382683 -0.923880 0.000000
vt 0.175049976 0.513138533
vn 0.923880 -0.382683 0.000000
vt 0.175049976 0.521517158
vn 0.382683 -0.923880 0.000000
vt 0.121827319 0.513138533
vn 0.382683 -0.923880 0.000000
vt 0.121827319 0.513138533
vn 0.923880 -0.382683 0.000000
vt 0.175049976 0.521517158
vn 0.923880 -0.382683 0.000000
vt 0.121827319 0.521517158
v -1.496535 3.689112 26.266014
vn -0.382683 0.923880 -0.000000
vt 0.118040614 0.792237222
vn -0.923880 0.382683 -0.000000
vt 0.101866297 0.786528468
vn -0.923880 0.382683 -0.000000
vt 0.118040614 0.786528468
v -1.496535 3.689112 18.279882
vn -0.382683 0.923880 -0.000000
vt 0.101866297 0.792237222
vn -0.923880 0.382683 -0.000000
vt 0.101866297 0.786528468
vn -0.382683 0.923880 -0.000000
vt 0.118040614 0.792237222
v 1.559626 3.689112 26.266014
vn 0.382683 0.923880 -0.000000
vt 0.118040614 0.797945917
vn -0.382683 0.923880 -0.000000
vt 0.101866297 0.792237222
vn -0.382683 0.923880 -0.000000
vt 0.118040614 0.792237222
vn 0.382683 0.923880 -0.000000
vt 0.118040614 0.797945917
v 1.559626 3.689112 18.279882
vn 0.382683 0.923880 -0.000000
vt 0.101866297 0.797945917
vn -0.382683 0.923880 -0.000000
vt 0.101866297 0.792237222
vn 0.382683 0.923880 -0.000000
vt 0.118040614 0.797945917
vn 0.923880 0.382683 -0.000000
vt 0.118040614 0.803654611
vn 0.382683 0.923880 -0.000000
vt 0.101866297 0.797945917
vn 0.382683 0.923880 -0.000000
vt 0.101866297 0.797945917
vn 0.923880 0.382683 -0.000000
vt 0.118040614 0.803654611
vn 0.923880 0.382683 -0.000000
vt 0.101866297 0.803654611
vn -0.923880 -0.382683 -0.000000
vt 0.118020192 0.803654611
vn -0.923880 -0.382683 -0.000000
vt 0.101843581 0.803654611
v -1.496535 -3.689112 18.279882
vn -0.382683 -0.923880 -0.000000
vt 0.101822473 0.797945917
vn -0.923880 -0.382683 -0.000000
vt 0.118020192 0.803654611
vn -0.382683 -0.923880 -0.000000
vt 0.101822473 0.797945917
v -1.496535 -3.689112 26.266014
vn -0.382683 -0.923880 -0.000000
vt 0.117993347 0.797945917
vn -0.382683 -0.923880 -0.000000
vt 0.101822473 0.797945917
v 1.559626 -3.689112 18.279882
vn 0.382683 -0.923880 0.000000
vt 0.101817198 0.792237222
vn -0.382683 -0.923880 -0.000000
vt 0.117993347 0.797945917
vn -0.382683 -0.923880 -0.000000
vt 0.117993347 0.797945917
vn 0.382683 -0.923880 0.000000
vt 0.101817198 0.792237222
v 1.559626 -3.689112 26.266014
vn 0.382683 -0.923880 0.000000
vt 0.117998399 0.792237222
vn 0.382683 -0.923880 0.000000
vt 0.101817198 0.792237222
vn 0.923880 -0.382683 0.000000
vt 0.101844043 0.786528468
vn 0.382683 -0.923880 0.000000
vt 0.117998399 0.792237222
vn 0.382683 -0.923880 0.000000
vt 0.117998399 0.792237222
vn 0.923880 -0.382683 0.000000
vt 0.101844043 0.786528468
vn 0.923880 -0.382683 0.000000
vt 0.118020654 0.786528468
vn -0.923880 0.382683 -0.000000
vt 0.004415182 0.630466640
v 1.415628 -0.616320 -1.765650
vn -0.923880 -0.382683 0.000000
vt 0.000831088 0.648447752
vn -0.923880 -0.382683 0.000000
vt 0.000806765 0.630466640
v 1.415628 0.616320 -1.765650
vn -0.923880 0.382683 -0.000000
vt 0.004439963 0.648447752
vn -0.923880 -0.382683 0.000000
vt 0.000831088 0.648447752
vn -0.923880 0.382683 -0.000000
vt 0.004415182 0.630466640
vn -0.382683 0.923880 -0.000000
vt 0.008098172 0.630466640
vn -0.923880 0.382683 -0.000000
vt 0.004439963 0.648447752
vn -0.923880 0.382683 -0.000000
vt 0.004415182 0.630466640
v 2.287237 1.487929 -1.765650
vn -0.382683 0.923880 -0.000000
vt 0.008111481 0.648447752
vn -0.923880 0.382683 -0.000000
vt 0.004439963 0.648447752
vn -0.382683 0.923880 -0.000000
vt 0.008098172 0.630466640
vn 0.382683 0.923880 -0.000000
vt 0.011713014 0.630466640
vn -0.382683 0.923880 -0.000000
vt 0.008111481 0.648447752
vn -0.382683 0.923880 -0.000000
vt 0.008098172 0.630466640
v 3.519877 1.487929 -1.765650
vn 0.382683 0.923880 -0.000000
vt 0.011716914 0.648447752
vn -0.382683 0.923880 -0.000000
vt 0.008111481 0.648447752
vn 0.382683 0.923880 -0.000000
vt 0.011713014 0.630466640
vn 0.382683 0.923880 -0.000000
vt 0.011716914 0.648447752
vn 0.382683 0.923880 -0.000000
vt 0.011713014 0.630466640
vn 0.923880 0.382683 -0.000000
vt 0.015318448 0.630466640
vn 0.382683 0.923880 -0.000000
vt 0.011716914 0.648447752
vn 0.923880 0.382683 -0.000000
vt 0.015318448 0.630466640
v 4.391486 0.616320 -1.765650
vn 0.923880 0.382683 -0.000000
vt 0.015318448 0.648447752
vn 0.923880 0.382683 -0.000000
vt 0.015318448 0.630466640
vn 0.923880 -0.382683 0.000000
vt 0.018973902 0.630466640
vn 0.923880 0.382683 -0.000000
vt 0.015318448 0.648447752
vn 0.923880 0.382683 -0.000000
vt 0.015318448 0.648447752
vn 0.923880 -0.382683 0.000000
vt 0.018973902 0.630466640
v 4.391486 -0.616320 -1.765650
vn 0.923880 -0.382683 0.000000
vt 0.018972525 0.648447752
vn 0.382683 -0.923880 0.000000
vt 0.022556620 0.630466640
vn 0.923880 -0.382683 0.000000
vt 0.018972525 0.648447752
vn 0.923880 -0.382683 0.000000
vt 0.018973902 0.630466640
v 3.519877 -1.487929 -1.765650
vn 0.382683 -0.923880 0.000000
vt 0.022560751 0.648447752
vn 0.923880 -0.382683 0.000000
vt 0.018972525 0.648447752
vn 0.382683 -0.923880 0.000000
vt 0.022556620 0.630466640
vn -0.382683 -0.923880 0.000000
vt 0.026144385 0.630466640
vn 0.382683 -0.923880 0.000000
vt 0.022560751 0.648447752
vn 0.382683 -0.923880 0.000000
vt 0.022556620 0.630466640
v 2.287237 -1.487929 -1.765650
vn -0.382683 -0.923880 0.000000
vt 0.026154254 0.648447752
vn 0.382683 -0.923880 0.000000
vt 0.022560751 0.648447752
vn -0.382683 -0.923880 0.000000
vt 0.026144385 0.630466640
vn -0.382683 -0.923880 0.000000
vt 0.026154254 0.648447752
vn -0.382683 -0.923880 0.000000
vt 0.026144385 0.630466640
vn -0.923880 -0.382683 0.000000
vt 0.029796399 0.630466640
vn -0.382683 -0.923880 0.000000
vt 0.026154254 0.648447752
vn -0.923880 -0.382683 0.000000
vt 0.029796399 0.630466640
vn -0.923880 -0.382683 0.000000
vt 0.029816592 0.648447752
vn 0.347611 0.839207 -0.418207
vt 0.002106860 0.815458655
vn 0.347611 0.839207 -0.418207
vt 0.035320539 0.820844352
v -0.427613 1.108507 1.152359
vn -0.347611 0.839207 -0.418207
vt 0.035319854 0.831615806
vn 0.347611 0.839207 -0.418207
vt 0.002106860 0.815458655
vn -0.347611 0.839207 -0.418207
vt 0.035319854 0.831615806
vn -0.347611 0.839207 -0.418207
vt 0.002111908 0.837001503
vn -0.347611 0.839207 -0.418207
vt 0.035319854 0.831615806
vn -0.839207 0.347611 -0.418207
vt 0.035308838 0.820844352
vn -0.347611 0.839207 -0.418207
vt 0.002111908 0.837001503
vn -0.347611 0.839207 -0.418207
vt 0.002111908 0.837001503
vn -0.839207 0.347611 -0.418207
vt 0.035308838 0.820844352
vn -0.839207 0.347611 -0.418207
vt 0.002108466 0.815458655
v -2.310989 1.487929 -1.765650
vn 0.382683 0.923880 -0.000000
vt 0.026175134 0.648447752
vn 0.923880 0.382683 -0.000000
vt 0.029814526 0.630466640
v -1.439380 0.616320 -1.765650
vn 0.923880 0.382683 -0.000000
vt 0.029833572 0.648447752
vn 0.382683 0.923880 -0.000000
vt 0.026175134 0.648447752
vn 0.382683 0.923880 -0.000000
vt 0.026169168 0.630466640
vn 0.923880 0.382683 -0.000000
vt 0.029814526 0.630466640
vn 0.382683 0.923880 -0.000000
vt 0.026175134 0.648447752
v -3.543630 1.487929 -1.765650
vn -0.382683 0.923880 -0.000000
vt 0.022580026 0.648447752
vn 0.382683 0.923880 -0.000000
vt 0.026169168 0.630466640
vn 0.382683 0.923880 -0.000000
vt 0.026169168 0.630466640
vn -0.382683 0.923880 -0.000000
vt 0.022580026 0.648447752
vn -0.382683 0.923880 -0.000000
vt 0.022580255 0.630466640
vn -0.382683 0.923880 -0.000000
vt 0.022580026 0.648447752
v -4.415239 0.616320 -1.765650
vn -0.923880 0.382683 -0.000000
vt 0.018980557 0.648447752
vn -0.382683 0.923880 -0.000000
vt 0.022580255 0.630466640
vn -0.382683 0.923880 -0.000000
vt 0.022580255 0.630466640
vn -0.923880 0.382683 -0.000000
vt 0.018980557 0.648447752
vn -0.923880 0.382683 -0.000000
vt 0.018980557 0.630466640
vn -0.923880 0.382683 -0.000000
vt 0.018980557 0.648447752
v -4.415239 -0.616320 -1.765650
vn -0.923880 -0.382683 0.000000
vt 0.015313629 0.648447752
vn -0.923880 0.382683 -0.000000
vt 0.018980557 0.630466640
vn -0.923880 0.382683 -0.000000
vt 0.018980557 0.630466640
vn -0.923880 -0.382683 0.000000
vt 0.015313629 0.648447752
vn -0.923880 -0.382683 0.000000
vt 0.015307204 0.630466640
vn -0.923880 -0.382683 0.000000
vt 0.015313629 0.648447752
v -3.543630 -1.487929 -1.765650
vn -0.382683 -0.923880 0.000000
vt 0.011699246 0.648447752
vn -0.923880 -0.382683 0.000000
vt 0.015307204 0.630466640
vn -0.923880 -0.382683 0.000000
vt 0.015307204 0.630466640
vn -0.382683 -0.923880 0.000000
vt 0.011699246 0.648447752
vn -0.382683 -0.923880 0.000000
vt 0.011688462 0.630466640
vn -0.382683 -0.923880 0.000000
vt 0.011699246 0.648447752
v -2.310989 -1.487929 -1.765650
vn 0.382683 -0.923880 0.000000
vt 0.008090370 0.648447752
vn -0.382683 -0.923880 0.000000
vt 0.011688462 0.630466640
vn -0.382683 -0.923880 0.000000
vt 0.011688462 0.630466640
vn 0.382683 -0.923880 0.000000
vt 0.008090370 0.648447752
vn 0.382683 -0.923880 0.000000
vt 0.008073620 0.630466640
vn 0.382683 -0.923880 0.000000
vt 0.008090370 0.648447752
v -1.439380 -0.616320 -1.765650
vn 0.923880 -0.382683 0.000000
vt 0.004428261 0.648447752
vn 0.382683 -0.923880 0.000000
vt 0.008073620 0.630466640
vn 0.382683 -0.923880 0.000000
vt 0.008073620 0.630466640
vn 0.923880 -0.382683 0.000000
vt 0.004428261 0.648447752
vn 0.923880 -0.382683 0.000000
vt 0.004407840 0.630466640
vn 0.923880 -0.382683 0.000000
vt 0.004428261 0.648447752
vn 0.923880 0.382683 -0.000000
vt 0.000832923 0.648447752
vn 0.923880 -0.382683 0.000000
vt 0.004407840 0.630466640
vn 0.923880 -0.382683 0.000000
vt 0.004407840 0.630466640
vn 0.923880 0.382683 -0.000000
vt 0.000832923 0.648447752
vn 0.923880 0.382683 -0.000000
vt 0.000811355 0.630466640
vn 0.338957 0.818314 0.464188
vt 0.121153407 0.502776027
v 3.111963 1.275950 27.523190
vn 0.722935 0.299450 0.622651
vt 0.128660738 0.518835306
vn 0.818314 0.338957 0.464188
vt 0.121031336 0.521087825
vn 0.338957 0.818314 0.464188
vt 0.121153407 0.502776027
v 1.307496 3.080417 27.523190
vn 0.299450 0.722935 0.622651
vt 0.128721774 0.505101502
vn 0.722935 0.299450 0.622651
vt 0.128660738 0.518835306
vn 0.299450 0.722935 0.622651
vt 0.128721774 0.505101502
v 0.922656 2.151330 28.395424
vn 0.200518 0.484094 0.851731
vt 0.136290133 0.507426918
vn 0.722935 0.299450 0.622651
vt 0.128660738 0.518835306
vn 0.722935 0.299450 0.622651
vt 0.128660738 0.518835306
vn 0.200518 0.484094 0.851731
vt 0.136290133 0.507426918
v 2.182876 0.891110 28.395424
vn 0.484094 0.200518 0.851731
vt 0.136229098 0.516582847
vn -0.338957 0.818314 0.464188
vt 0.121031336 0.520983040
vn 0.299450 0.722935 0.622651
vt 0.128599703 0.504960001
vn 0.338957 0.818314 0.464188
vt 0.121031336 0.502671063
vn -0.338957 0.818314 0.464188
vt 0.121031336 0.520983040
v -1.244405 3.080417 27.523190
vn -0.299450 0.722935 0.622651
vt 0.128599703 0.518694043
vn 0.299450 0.722935 0.622651
vt 0.128599703 0.504960001
vn -0.299450 0.722935 0.622651
vt 0.128599703 0.518694043
v -0.859565 2.151330 28.395424
vn -0.200518 0.484094 0.851731
vt 0.136168063 0.516405046
vn 0.299450 0.722935 0.622651
vt 0.128599703 0.504960001
vn 0.299450 0.722935 0.622651
vt 0.128599703 0.504960001
vn -0.200518 0.484094 0.851731
vt 0.136168063 0.516405046
vn 0.200518 0.484094 0.851731
vt 0.136168063 0.507249057
vn -0.818314 0.338957 0.464188
vt 0.121031336 0.521087825
vn -0.299450 0.722935 0.622651
vt 0.128721774 0.505101502
vn -0.338957 0.818314 0.464188
vt 0.121153407 0.502776027
vn -0.818314 0.338957 0.464188
vt 0.121031336 0.521087825
v -3.048871 1.275950 27.523190
vn -0.722935 0.299450 0.622651
vt 0.128660738 0.518835306
vn -0.299450 0.722935 0.622651
vt 0.128721774 0.505101502
vn -0.722935 0.299450 0.622651
vt 0.128660738 0.518835306
v -2.119785 0.891110 28.395424
vn -0.484094 0.200518 0.851731
vt 0.136229098 0.516582847
vn -0.299450 0.722935 0.622651
vt 0.128721774 0.505101502
vn -0.299450 0.722935 0.622651
vt 0.128721774 0.505101502
vn -0.484094 0.200518 0.851731
vt 0.136229098 0.516582847
vn -0.200518 0.484094 0.851731
vt 0.136290133 0.507426918
vn -0.818314 -0.338957 0.464188
vt 0.121025369 0.502671063
vn -0.722935 0.299450 0.622651
vt 0.128597409 0.518694043
vn -0.818314 0.338957 0.464188
vt 0.121029273 0.520983040
vn -0.818314 -0.338957 0.464188
vt 0.121025369 0.502671063
v -3.048871 -1.275950 27.523190
vn -0.722935 -0.299450 0.622651
vt 0.128593966 0.504960001
vn -0.722935 0.299450 0.622651
vt 0.128597409 0.518694043
vn -0.722935 -0.299450 0.622651
vt 0.128593966 0.504960001
v -2.119785 -0.891110 28.395424
vn -0.484094 -0.200518 0.851731
vt 0.136163235 0.507249057
vn -0.722935 0.299450 0.622651
vt 0.128597409 0.518694043
vn -0.722935 0.299450 0.622651
vt 0.128597409 0.518694043
vn -0.484094 -0.200518 0.851731
vt 0.136163235 0.507249057
vn -0.484094 0.200518 0.851731
vt 0.136165306 0.516405046
vn -0.338957 -0.818314 0.464188
vt 0.121118993 0.502776027
vn -0.722935 -0.299450 0.622651
vt 0.128645584 0.518835306
vn -0.818314 -0.338957 0.464188
vt 0.121014126 0.521087825
vn -0.338957 -0.818314 0.464188
vt 0.121118993 0.502776027
v -1.244405 -3.080417 27.523190
vn -0.299450 -0.722935 0.622651
vt 0.128694698 0.505101502
vn -0.722935 -0.299450 0.622651
vt 0.128645584 0.518835306
vn -0.299450 -0.722935 0.622651
vt 0.128694698 0.505101502
v -0.859565 -2.151330 28.395424
vn -0.200518 -0.484094 0.851731
vt 0.136272684 0.507426918
vn -0.722935 -0.299450 0.622651
vt 0.128645584 0.518835306
vn -0.722935 -0.299450 0.622651
vt 0.128645584 0.518835306
vn -0.200518 -0.484094 0.851731
vt 0.136272684 0.507426918
vn -0.484094 -0.200518 0.851731
vt 0.136217162 0.516582847
vn 0.338957 -0.818314 0.464188
vt 0.120987974 0.502671063
vn -0.299450 -0.722935 0.622651
vt 0.128565505 0.518694043
vn -0.338957 -0.818314 0.464188
vt 0.120987974 0.520983040
vn 0.338957 -0.818314 0.464188
vt 0.120987974 0.502671063
v 1.307496 -3.080417 27.523190
vn 0.299450 -0.722935 0.622651
vt 0.128565967 0.504960001
vn -0.299450 -0.722935 0.622651
vt 0.128565505 0.518694043
vn 0.299450 -0.722935 0.622651
vt 0.128565967 0.504960001
v 0.922656 -2.151330 28.395424
vn 0.200518 -0.484094 0.851731
vt 0.136145800 0.507249057
vn -0.299450 -0.722935 0.622651
vt 0.128565505 0.518694043
vn -0.299450 -0.722935 0.622651
vt 0.128565505 0.518694043
vn 0.200518 -0.484094 0.851731
vt 0.136145800 0.507249057
vn -0.200518 -0.484094 0.851731
vt 0.136145800 0.516405046
vn 0.818314 -0.338957 0.464188
vt 0.121014588 0.521087825
vn 0.299450 -0.722935 0.622651
vt 0.128694698 0.505101502
vn 0.338957 -0.818314 0.464188
vt 0.121119216 0.502776027
vn 0.818314 -0.338957 0.464188
vt 0.121014588 0.521087825
v 3.111963 -1.275950 27.523190
vn 0.722935 -0.299450 0.622651
vt 0.128645822 0.518835306
vn 0.299450 -0.722935 0.622651
vt 0.128694698 0.505101502
vn 0.722935 -0.299450 0.622651
vt 0.128645822 0.518835306
v 2.182876 -0.891110 28.395424
vn 0.484094 -0.200518 0.851731
vt 0.136217162 0.516582847
vn 0.299450 -0.722935 0.622651
vt 0.128694698 0.505101502
vn 0.299450 -0.722935 0.622651
vt 0.128694698 0.505101502
vn 0.484094 -0.200518 0.851731
vt 0.136217162 0.516582847
vn 0.200518 -0.484094 0.851731
vt 0.136272684 0.507426918
vn 0.818314 0.338957 0.464188
vt 0.121029273 0.520983040
vn 0.722935 -0.299450 0.622651
vt 0.128594413 0.504960001
vn 0.818314 -0.338957 0.464188
vt 0.121025600 0.502671063
vn 0.818314 0.338957 0.464188
vt 0.121029273 0.520983040
vn 0.722935 0.299450 0.622651
vt 0.128597409 0.518694043
vn 0.722935 -0.299450 0.622651
vt 0.128594413 0.504960001
vn 0.722935 0.299450 0.622651
vt 0.128597409 0.518694043
vn 0.484094 0.200518 0.851731
vt 0.136165529 0.516405046
vn 0.722935 -0.299450 0.622651
vt 0.128594413 0.504960001
vn 0.722935 -0.299450 0.622651
vt 0.128594413 0.504960001
vn 0.484094 0.200518 0.851731
vt 0.136165529 0.516405046
vn 0.484094 -0.200518 0.851731
vt 0.136163235 0.507249057
vn -0.000000 0.000000 -1.000000
vt 0.134397119 0.588648319
vn -0.000000 0.000000 -1.000000
vt 0.119016029 0.573279977
vn -0.000000 0.000000 -1.000000
vt 0.119015343 0.551545918
vn -0.000000 0.000000 -1.000000
vt 0.134397119 0.588648319
vn -0.000000 0.000000 -1.000000
vt 0.119015343 0.551545918
vn -0.000000 0.000000 -1.000000
vt 0.134395048 0.536177635
vn -0.000000 0.000000 -1.000000
vt 0.134397119 0.588648319
vn -0.000000 0.000000 -1.000000
vt 0.134395048 0.536177635
vn -0.000000 0.000000 -1.000000
vt 0.156123340 0.536177635
vn -0.000000 0.000000 -1.000000
vt 0.134397119 0.588648319
vn -0.000000 0.000000 -1.000000
vt 0.156123340 0.536177635
vn -0.000000 0.000000 -1.000000
vt 0.171443850 0.551545918
vn -0.000000 0.000000 -1.000000
vt 0.134397119 0.588648319
vn -0.000000 0.000000 -1.000000
vt 0.171443850 0.551545918
vn -0.000000 0.000000 -1.000000
vt 0.171444774 0.573279977
vn -0.000000 0.000000 -1.000000
vt 0.134397119 0.588648319
vn -0.000000 0.000000 -1.000000
vt 0.171444774 0.573279977
vn -0.000000 0.000000 -1.000000
vt 0.156125635 0.588648319
vn 0.000000 0.000000 1.000000
vt 0.164467946 0.677266598
vn 0.000000 0.000000 1.000000
vt 0.161105275 0.673920214
vn 0.000000 0.000000 1.000000
vt 0.161096558 0.669187725
vn 0.000000 0.000000 1.000000
vt 0.164467946 0.677266598
vn 0.000000 0.000000 1.000000
vt 0.161096558 0.669187725
vn 0.000000 0.000000 1.000000
vt 0.164447978 0.665841401
vn 0.000000 0.000000 1.000000
vt 0.164467946 0.677266598
vn 0.000000 0.000000 1.000000
vt 0.164447978 0.665841401
vn 0.000000 0.000000 1.000000
vt 0.169147685 0.665841401
vn 0.000000 0.000000 1.000000
vt 0.164467946 0.677266598
vn 0.000000 0.000000 1.000000
vt 0.169147685 0.665841401
vn 0.000000 0.000000 1.000000
vt 0.172510132 0.669187725
vn 0.000000 0.000000 1.000000
vt 0.164467946 0.677266598
vn 0.000000 0.000000 1.000000
vt 0.172510132 0.669187725
vn 0.000000 0.000000 1.000000
vt 0.172519088 0.673920214
vn 0.000000 0.000000 1.000000
vt 0.164467946 0.677266598
vn 0.000000 0.000000 1.000000
vt 0.172519088 0.673920214
vn 0.000000 0.000000 1.000000
vt 0.169167653 0.677266598
vn -0.000000 0.000000 -1.000000
vt 0.136816725 0.582799435
vn -0.000000 0.000000 -1.000000
vt 0.124480739 0.570514679
vn -0.000000 0.000000 -1.000000
vt 0.124476843 0.553141415
vn -0.000000 0.000000 -1.000000
vt 0.136816725 0.582799435
vn -0.000000 0.000000 -1.000000
vt 0.124476843 0.553141415
vn -0.000000 0.000000 -1.000000
vt 0.136811227 0.540856659
vn -0.000000 0.000000 -1.000000
vt 0.136816725 0.582799435
vn -0.000000 0.000000 -1.000000
vt 0.136811227 0.540856659
vn -0.000000 0.000000 -1.000000
vt 0.154145211 0.540856659
vn -0.000000 0.000000 -1.000000
vt 0.136816725 0.582799435
vn -0.000000 0.000000 -1.000000
vt 0.154145211 0.540856659
vn -0.000000 0.000000 -1.000000
vt 0.166408911 0.553141415
vn -0.000000 0.000000 -1.000000
vt 0.136816725 0.582799435
vn -0.000000 0.000000 -1.000000
vt 0.166408911 0.553141415
vn -0.000000 0.000000 -1.000000
vt 0.166412577 0.570514679
vn -0.000000 0.000000 -1.000000
vt 0.136816725 0.582799435
vn -0.000000 0.000000 -1.000000
vt 0.166412577 0.570514679
vn -0.000000 0.000000 -1.000000
vt 0.154150710 0.582799435
vn -0.000000 0.000000 -1.000000
vt 0.113770679 0.411375284
vn -0.000000 0.000000 -1.000000
vt 0.092347339 0.389911383
vn -0.000000 0.000000 -1.000000
vt 0.092347339 0.359556794
vn -0.000000 0.000000 -1.000000
vt 0.113770679 0.411375284
vn -0.000000 0.000000 -1.000000
vt 0.092347339 0.359556794
vn -0.000000 0.000000 -1.000000
vt 0.113770679 0.338092864
vn -0.000000 0.000000 -1.000000
vt 0.113770679 0.411375284
vn -0.000000 0.000000 -1.000000
vt 0.113770679 0.338092864
vn -0.000000 0.000000 -1.000000
vt 0.144166186 0.338092864
vn -0.000000 0.000000 -1.000000
vt 0.113770679 0.411375284
vn -0.000000 0.000000 -1.000000
vt 0.144166186 0.338092864
vn -0.000000 0.000000 -1.000000
vt 0.165589526 0.359556794
vn -0.000000 0.000000 -1.000000
vt 0.113770679 0.411375284
vn -0.000000 0.000000 -1.000000
vt 0.165589526 0.359556794
vn -0.000000 0.000000 -1.000000
vt 0.165589526 0.389911383
vn -0.000000 0.000000 -1.000000
vt 0.113770679 0.411375284
vn -0.000000 0.000000 -1.000000
vt 0.165589526 0.389911383
vn -0.000000 0.000000 -1.000000
vt 0.144166186 0.411375284
vn 0.000000 0.000000 1.000000
vt 0.113770679 0.411375284
vn 0.000000 0.000000 1.000000
vt 0.092347339 0.389911383
vn 0.000000 0.000000 1.000000
vt 0.092347339 0.359556794
vn 0.000000 0.000000 1.000000
vt 0.113770679 0.411375284
vn 0.000000 0.000000 1.000000
vt 0.092347339 0.359556794
vn 0.000000 0.000000 1.000000
vt 0.113770679 0.338092864
vn 0.000000 0.000000 1.000000
vt 0.113770679 0.411375284
vn 0.000000 0.000000 1.000000
vt 0.113770679 0.338092864
vn 0.000000 0.000000 1.000000
vt 0.144166186 0.338092864
vn 0.000000 0.000000 1.000000
vt 0.113770679 0.411375284
vn 0.000000 0.000000 1.000000
vt 0.144166186 0.338092864
vn 0.000000 0.000000 1.000000
vt 0.165589526 0.359556794
vn 0.000000 0.000000 1.000000
vt 0.113770679 0.411375284
vn 0.000000 0.000000 1.000000
vt 0.165589526 0.359556794
vn 0.000000 0.000000 1.000000
vt 0.165589526 0.389911383
vn 0.000000 0.000000 1.000000
vt 0.113770679 0.411375284
vn 0.000000 0.000000 1.000000
vt 0.165589526 0.389911383
vn 0.000000 0.000000 1.000000
vt 0.144166186 0.411375284
vn -0.000000 0.000000 -1.000000
vt 0.134397119 0.588648319
vn -0.000000 0.000000 -1.000000
vt 0.119015798 0.573279977
vn -0.000000 0.000000 -1.000000
vt 0.119014882 0.551545918
vn -0.000000 0.000000 -1.000000
vt 0.134397119 0.588648319
vn -0.000000 0.000000 -1.000000
vt 0.119014882 0.551545918
vn -0.000000 0.000000 -1.000000
vt 0.134394601 0.536177635
vn -0.000000 0.000000 -1.000000
vt 0.134397119 0.588648319
vn -0.000000 0.000000 -1.000000
vt 0.134394601 0.536177635
vn -0.000000 0.000000 -1.000000
vt 0.156123564 0.536177635
vn -0.000000 0.000000 -1.000000
vt 0.134397119 0.588648319
vn -0.000000 0.000000 -1.000000
vt 0.156123564 0.536177635
vn -0.000000 0.000000 -1.000000
vt 0.171444535 0.551545918
vn -0.000000 0.000000 -1.000000
vt 0.134397119 0.588648319
vn -0.000000 0.000000 -1.000000
vt 0.171444535 0.551545918
vn -0.000000 0.000000 -1.000000
vt 0.171445236 0.573279977
vn -0.000000 0.000000 -1.000000
vt 0.134397119 0.588648319
vn -0.000000 0.000000 -1.000000
vt 0.171445236 0.573279977
vn -0.000000 0.000000 -1.000000
vt 0.156125635 0.588648319
vn -0.000000 0.000000 1.000000
vt 0.137170777 0.394438744
vn -0.000000 0.000000 1.000000
vt 0.120809913 0.394438744
vn -0.000000 0.000000 1.000000
vt 0.109254077 0.382896006
vn -0.000000 0.000000 1.000000
vt 0.137170777 0.394438744
vn -0.000000 0.000000 1.000000
vt 0.109254077 0.382896006
vn -0.000000 0.000000 1.000000
vt 0.109254077 0.366572142
vn -0.000000 0.000000 1.000000
vt 0.137170777 0.394438744
vn -0.000000 0.000000 1.000000
vt 0.109254077 0.366572142
vn -0.000000 0.000000 1.000000
vt 0.120799132 0.355029434
vn -0.000000 0.000000 1.000000
vt 0.137170777 0.394438744
vn -0.000000 0.000000 1.000000
vt 0.120799132 0.355029434
vn -0.000000 0.000000 1.000000
vt 0.137159079 0.355029434
vn -0.000000 0.000000 1.000000
vt 0.137170777 0.394438744
vn -0.000000 0.000000 1.000000
vt 0.137159079 0.355029434
vn -0.000000 0.000000 1.000000
vt 0.148699313 0.366572142
vn -0.000000 0.000000 1.000000
vt 0.137170777 0.394438744
vn -0.000000 0.000000 1.000000
vt 0.148699313 0.366572142
vn -0.000000 0.000000 1.000000
vt 0.148699313 0.382896006
vn -0.000000 0.000000 1.000000
vt 0.137167796 0.394438744
vn -0.000000 0.000000 1.000000
vt 0.120813355 0.394438744
vn -0.000000 0.000000 1.000000
vt 0.109281614 0.382896006
vn -0.000000 0.000000 1.000000
vt 0.137167796 0.394438744
vn -0.000000 0.000000 1.000000
vt 0.109281614 0.382896006
vn -0.000000 0.000000 1.000000
vt 0.109280691 0.366572142
vn -0.000000 0.000000 1.000000
vt 0.137167796 0.394438744
vn -0.000000 0.000000 1.000000
vt 0.109280691 0.366572142
vn -0.000000 0.000000 1.000000
vt 0.120801881 0.355029434
vn -0.000000 0.000000 1.000000
vt 0.137167796 0.394438744
vn -0.000000 0.000000 1.000000
vt 0.120801881 0.355029434
vn -0.000000 0.000000 1.000000
vt 0.137156546 0.355029434
vn -0.000000 0.000000 1.000000
vt 0.137167796 0.394438744
vn -0.000000 0.000000 1.000000
vt 0.137156546 0.355029434
vn -0.000000 0.000000 1.000000
vt 0.148682788 0.366572142
vn -0.000000 0.000000 1.000000
vt 0.137167796 0.394438744
vn -0.000000 0.000000 1.000000
vt 0.148682788 0.366572142
vn -0.000000 0.000000 1.000000
vt 0.148682788 0.382896006
vn 0.298437 0.720492 -0.625961
vt 0.162959054 0.712288678
v 0.031546 0.000000 13.305110
vn -0.000000 0.000000 -1.000000
vt 0.149720386 0.725501716
vn -0.298437 0.720492 -0.625961
vt 0.149775460 0.706815660
vn 0.298437 0.720492 -0.625961
vt 0.162959054 0.712288678
vn 0.720492 0.298437 -0.625961
vt 0.168449923 0.725501716
vn -0.000000 0.000000 -1.000000
vt 0.149720386 0.725501716
vn -0.000000 0.000000 -1.000000
vt 0.149720386 0.725501716
vn 0.720492 0.298437 -0.625961
vt 0.168449923 0.725501716
vn 0.720492 -0.298437 -0.625961
vt 0.162944824 0.738714755
vn -0.000000 0.000000 -1.000000
vt 0.149720386 0.725501716
vn 0.720492 -0.298437 -0.625961
vt 0.162944824 0.738714755
vn 0.298437 -0.720492 -0.625961
vt 0.149740577 0.744187772
vn -0.000000 0.000000 -1.000000
vt 0.149720386 0.725501716
vn -0.720492 0.298437 -0.625961
vt 0.162956521 0.738714755
vn -0.298437 0.720492 -0.625961
vt 0.149774998 0.744187772
vn -0.000000 0.000000 -1.000000
vt 0.149720386 0.725501716
vn -0.720492 -0.298437 -0.625961
vt 0.168437526 0.725501716
vn -0.720492 0.298437 -0.625961
vt 0.162956521 0.738714755
vn -0.000000 0.000000 -1.000000
vt 0.149720386 0.725501716
vn -0.298437 -0.720492 -0.625961
vt 0.162919804 0.712288678
vn -0.720492 -0.298437 -0.625961
vt 0.168437526 0.725501716
vn -0.000000 0.000000 -1.000000
vt 0.149720386 0.725501716
vn 0.298437 -0.720492 -0.625961
vt 0.149733469 0.706815660
vn -0.298437 -0.720492 -0.625961
vt 0.162919804 0.712288678
v 0.031546 -0.000000 29.358906
vn -0.000000 -0.000000 1.000000
vt 0.040768273 0.781857371
vn 0.200518 0.484094 0.851731
vt 0.042906336 0.786957324
vn -0.200518 0.484094 0.851731
vt 0.038633876 0.786957324
vn -0.000000 -0.000000 1.000000
vt 0.040768273 0.781857371
vn 0.484094 0.200518 0.851731
vt 0.045895912 0.783969820
vn 0.200518 0.484094 0.851731
vt 0.042906336 0.786957324
vn -0.000000 -0.000000 1.000000
vt 0.040768273 0.781857371
vn 0.484094 -0.200518 0.851731
vt 0.045890179 0.779744864
vn 0.484094 0.200518 0.851731
vt 0.045895912 0.783969820
vn -0.000000 -0.000000 1.000000
vt 0.040768273 0.781857371
vn 0.200518 -0.484094 0.851731
vt 0.042890966 0.776757360
vn 0.484094 -0.200518 0.851731
vt 0.045890179 0.779744864
vn -0.000000 -0.000000 1.000000
vt 0.040768273 0.781857371
vn -0.200518 0.484094 0.851731
vt 0.038633876 0.786957324
vn -0.484094 0.200518 0.851731
vt 0.035642006 0.783969820
vn -0.000000 -0.000000 1.000000
vt 0.040768273 0.781857371
vn -0.200518 -0.484094 0.851731
vt 0.038618505 0.776757360
vn 0.200518 -0.484094 0.851731
vt 0.042890966 0.776757360
vn -0.000000 -0.000000 1.000000
vt 0.040768273 0.781857371
vn -0.484094 -0.200518 0.851731
vt 0.035636500 0.779744864
vn -0.200518 -0.484094 0.851731
vt 0.038618505 0.776757360
vn -0.000000 -0.000000 1.000000
vt 0.040768273 0.781857371
vn -0.484094 0.200518 0.851731
vt 0.035642006 0.783969820
vn -0.484094 -0.200518 0.851731
vt 0.035636500 0.779744864
s 1
f 1/1/1 2/2/2 3/3/3
f 1/4/4 3/5/5 4/6/6
s 2
f 5/7/7 6/8/8 7/9/9
f 5/10/10 7/11/11 8/12/12
s 3
f 9/13/13 10/14/14 11/15/15
f 9/16/16 11/17/17 12/18/18
s 4
f 13/19/19 14/20/20 15/21/21
f 13/22/22 15/23/23 16/24/24
f 16/385/385 65/386/386 91/387/387
f 16/388/388 91/389/389 13/390/390
s 5
f 17/25/25 18/26/26 19/27/27
f 17/28/28 19/29/29 20/30/30
f 20/367/367 92/368/368 66/369/369
f 20/370/370 66/371/371 17/372/372
s 6
f 21/31/31 22/32/32 23/33/33
f 21/34/34 23/35/35 24/36/36
s 7
f 25/37/37 26/38/38 27/39/39
f 25/40/40 27/41/41 28/42/42
s 8
f 29/43/43 30/44/44 31/45/45
f 29/46/46 31/47/47 32/48/48
f 32/373/373 67/374/374 68/375/375
f 32/376/376 68/377/377 29/378/378
s 9
f 33/49/49 34/50/50 35/51/51
f 33/52/52 35/53/53 36/54/54
f 36/145/145 69/146/146 70/147/147
f 36/148/148 70/149/149 33/150/150
s 10
f 37/55/55 38/56/56 39/57/57
f 37/58/58 39/59/59 40/60/60
s 11
f 41/61/61 42/62/62 43/63/63
f 41/64/64 43/65/65 44/66/66
s 12
f 45/67/67 46/68/68 47/69/69
f 45/70/70 47/71/71 48/72/72
s 13
f 49/73/73 50/74/74 51/75/75
f 49/76/76 51/77/77 52/78/78
s 14
f 53/79/79 54/80/80 55/81/81
f 53/82/82 55/83/83 56/84/84
s 15
f 57/85/85 58/86/86 59/87/87
f 57/88/88 59/89/89 60/90/90
s 16
f 8/91/91 7/92/92 61/93/93
f 8/94/94 61/95/95 62/96/96
s 17
f 12/97/97 11/98/98 6/99/99
f 12/100/100 6/101/101 5/102/102
s 18
f 4/103/103 3/104/104 63/105/105
f 4/106/106 63/107/107 64/108/108
s 19
f 16/109/109 20/110/110 19/111/111
f 16/112/112 19/113/113 65/114/114
f 16/391/391 15/392/392 92/393/393
f 16/394/394 92/395/395 20/396/396
s 20
f 17/115/115 66/116/116 14/117/117
f 17/118/118 14/119/119 13/120/120
f 91/361/361 18/362/362 17/363/363
f 91/364/364 17/365/365 13/366/366
s 21
f 24/121/121 25/122/122 28/123/123
f 24/124/124 28/125/125 21/126/126
s 22
f 22/127/127 27/128/128 26/129/129
f 22/130/130 26/131/131 23/132/132
s 23
f 32/133/133 36/134/134 35/135/135
f 32/136/136 35/137/137 67/138/138
f 32/283/283 31/284/284 69/285/285
f 32/286/286 69/287/287 36/288/288
s 24
f 68/139/139 34/140/140 33/141/141
f 68/142/142 33/143/143 29/144/144
f 33/295/295 70/296/296 30/297/297
f 33/298/298 30/299/299 29/300/300
s 25
f 44/151/151 43/152/152 38/153/153
f 44/154/154 38/155/155 37/156/156
s 26
f 40/157/157 39/158/158 42/159/159
f 40/160/160 42/161/161 41/162/162
s 27
f 16/163/163 65/164/164 23/165/165
f 16/166/166 23/167/167 24/168/168
f 44/169/169 41/170/170 40/171/171
f 44/172/172 40/173/173 37/174/174
f 32/175/175 67/176/176 41/177/177
f 32/178/178 41/179/179 44/180/180
f 29/181/181 68/182/182 67/183/183
f 29/184/184 67/185/185 32/186/186
f 21/187/187 22/188/188 68/189/189
f 21/190/190 68/191/191 29/192/192
f 24/193/193 23/194/194 22/195/195
f 24/196/196 22/197/197 21/198/198
f 13/397/397 65/398/398 16/399/399
f 13/400/400 91/401/401 65/402/402
f 13/403/403 37/404/404 91/405/405
f 91/406/406 37/407/407 40/408/408
s 28
f 71/199/199 72/200/200 73/201/201
f 71/202/202 73/203/203 74/204/204
f 75/205/205 76/206/206 72/207/207
f 75/208/208 72/209/209 71/210/210
f 77/211/211 78/212/212 76/213/213
f 77/214/214 76/215/215 75/216/216
f 79/217/217 80/218/218 81/219/219
f 79/220/220 81/221/221 82/222/222
f 100/409/409 80/410/410 79/411/411
f 100/412/412 101/413/413 80/414/414
f 100/415/415 74/416/416 101/417/417
f 101/418/418 74/419/419 73/420/420
f 102/421/421 78/422/422 77/423/423
f 102/424/424 103/425/425 78/426/426
f 102/427/427 82/428/428 103/429/429
f 103/430/430 82/431/431 81/432/432
s 29
f 83/223/223 84/224/224 85/225/225
f 83/226/226 85/227/227 86/228/228
f 87/229/229 88/230/230 89/231/231
f 87/232/232 89/233/233 90/234/234
f 104/433/433 84/434/434 83/435/435
f 105/436/436 84/437/437 104/438/438
f 106/439/439 105/440/440 104/441/441
f 106/442/442 107/443/443 105/444/444
f 106/445/445 90/446/446 107/447/447
f 107/448/448 90/449/449 89/450/450
f 86/451/451 85/452/452 108/453/453
f 86/454/454 108/455/455 109/456/456
f 108/457/457 110/458/458 109/459/459
f 109/460/460 110/461/461 111/462/462
f 110/463/463 88/464/464 111/465/465
f 111/466/466 88/467/467 87/468/468
s 30
f 52/235/235 51/236/236 46/237/237
f 52/238/238 46/239/239 45/240/240
s 31
f 56/241/241 55/242/242 50/243/243
f 56/244/244 50/245/245 49/246/246
s 32
f 60/247/247 59/248/248 54/249/249
f 60/250/250 54/251/251 53/252/252
s 33
f 48/253/253 47/254/254 58/255/255
f 48/256/256 58/257/257 57/258/258
s 34
f 65/259/259 19/260/260 18/261/261
f 65/262/262 18/263/263 91/264/264
s 35
f 14/265/265 66/266/266 92/267/267
f 14/268/268 92/269/269 15/270/270
s 36
f 21/271/271 28/272/272 27/273/273
f 21/274/274 27/275/275 22/276/276
s 37
f 23/277/277 26/278/278 25/279/279
f 23/280/280 25/281/281 24/282/282
s 38
f 67/289/289 35/290/290 34/291/291
f 67/292/292 34/293/293 68/294/294
s 39
f 37/301/301 40/302/302 41/303/303
f 37/304/304 41/305/305 44/306/306
s 40
f 43/307/307 42/308/308 39/309/309
f 43/310/310 39/311/311 38/312/312
s 41
f 37/313/313 93/314/314 94/315/315
f 37/316/316 94/317/317 44/318/318
f 44/319/319 94/320/320 95/321/321
f 44/322/322 95/323/323 32/324/324
f 32/325/325 95/326/326 96/327/327
f 32/328/328 96/329/329 29/330/330
f 29/331/331 96/332/332 97/333/333
f 29/334/334 97/335/335 21/336/336
f 21/337/337 97/338/338 98/339/339
f 21/340/340 98/341/341 24/342/342
f 24/343/343 98/344/344 99/345/345
f 24/346/346 99/347/347 16/348/348
f 16/517/517 99/518/518 120/519/519
f 16/520/520 120/521/521 13/522/522
f 120/523/523 93/524/524 13/525/525
f 13/526/526 93/527/527 37/528/528
s 42
f 62/349/349 61/350/350 2/351/351
f 62/352/352 2/353/353 1/354/354
s 43
f 64/355/355 63/356/356 10/357/357
f 64/358/358 10/359/359 9/360/360
s 44
f 30/379/379 70/380/380 69/381/381
f 30/382/382 69/383/383 31/384/384
s 45
f 8/469/469 112/470/470 5/471/471
f 113/472/472 112/473/473 8/474/474
f 62/475/475 113/476/476 8/477/477
f 114/478/478 113/479/479 62/480/480
f 1/481/481 114/482/482 62/483/483
f 115/484/484 114/485/485 1/486/486
f 115/487/487 1/488/488 4/489/489
f 115/490/490 4/491/491 116/492/492
f 4/493/493 64/494/494 116/495/495
f 116/496/496 64/497/497 117/498/498
f 9/499/499 117/500/500 64/501/501
f 118/502/502 117/503/503 9/504/504
f 12/505/505 118/506/506 9/507/507
f 119/508/508 118/509/509 12/510/510
f 119/511/511 12/512/512 5/513/513
f 119/514/514 5/515/515 112/516/516
s 46
f 121/529/529 48/530/530 122/531/531
f 121/532/532 45/533/533 48/534/534
f 121/535/535 123/536/536 45/537/537
f 45/538/538 123/539/539 52/540/540
f 123/541/541 124/542/542 52/543/543
f 52/544/544 124/545/545 49/546/546
f 124/547/547 125/548/548 49/549/549
f 49/550/550 125/551/551 56/552/552
f 125/553/553 126/554/554 56/555/555
f 56/556/556 126/557/557 53/558/558
f 126/559/559 127/560/560 53/561/561
f 53/562/562 127/563/563 60/564/564
f 127/565/565 128/566/566 60/567/567
f 60/568/568 128/569/569 57/570/570
f 128/571/571 122/572/572 57/573/573
f 57/574/574 122/575/575 48/576/576
s 47
f 106/577/577 129/578/578 90/579/579
f 106/580/580 130/581/581 129/582/582
f 130/583/583 131/584/584 129/585/585
f 129/586/586 131/587/587 132/588/588
f 104/589/589 130/590/590 106/591/591
f 104/592/592 133/593/593 130/594/594
f 133/595/595 134/596/596 130/597/597
f 130/598/598 134/599/599 131/600/600
f 83/601/601 133/602/602 104/603/603
f 83/604/604 135/605/605 133/606/606
f 135/607/607 136/608/608 133/609/609
f 133/610/610 136/611/611 134/612/612
f 86/613/613 135/614/614 83/615/615
f 86/616/616 137/617/617 135/618/618
f 137/619/619 138/620/620 135/621/621
f 135/622/622 138/623/623 136/624/624
f 109/625/625 137/626/626 86/627/627
f 109/628/628 139/629/629 137/630/630
f 139/631/631 140/632/632 137/633/633
f 137/634/634 140/635/635 138/636/636
f 111/637/637 139/638/638 109/639/639
f 111/640/640 141/641/641 139/642/642
f 141/643/643 142/644/644 139/645/645
f 139/646/646 142/647/647 140/648/648
f 87/649/649 141/650/650 111/651/651
f 87/652/652 143/653/653 141/654/654
f 143/655/655 144/656/656 141/657/657
f 141/658/658 144/659/659 142/660/660
f 90/661/661 143/662/662 87/663/663
f 90/664/664 129/665/665 143/666/666
f 129/667/667 132/668/668 143/669/669
f 143/670/670 132/671/671 144/672/672
f 146/841/841 131/842/842 134/843/843
f 146/844/844 132/845/845 131/846/846
f 146/847/847 144/848/848 132/849/849
f 146/850/850 142/851/851 144/852/852
f 146/853/853 134/854/854 136/855/855
f 146/856/856 140/857/857 142/858/858
f 146/859/859 138/860/860 140/861/861
f 146/862/862 136/863/863 138/864/864
s 48
f 115/673/673 116/674/674 117/675/675
f 115/676/676 117/677/677 118/678/678
f 115/679/679 118/680/680 119/681/681
f 115/682/682 119/683/683 112/684/684
f 115/685/685 112/686/686 113/687/687
f 115/688/688 113/689/689 114/690/690
s 49
f 91/691/691 40/692/692 41/693/693
f 91/694/694 41/695/695 67/696/696
f 91/697/697 67/698/698 68/699/699
f 91/700/700 68/701/701 22/702/702
f 91/703/703 22/704/704 23/705/705
f 91/706/706 23/707/707 65/708/708
s 50
f 99/709/709 98/710/710 97/711/711
f 99/712/712 97/713/713 96/714/714
f 99/715/715 96/716/716 95/717/717
f 99/718/718 95/719/719 94/720/720
f 99/721/721 94/722/722 93/723/723
f 99/724/724 93/725/725 120/726/726
s 51
f 100/727/727 79/728/728 82/729/729
f 100/730/730 82/731/731 102/732/732
f 100/733/733 102/734/734 77/735/735
f 100/736/736 77/737/737 75/738/738
f 100/739/739 75/740/740 71/741/741
f 100/742/742 71/743/743 74/744/744
s 52
f 73/745/745 72/746/746 76/747/747
f 73/748/748 76/749/749 78/750/750
f 73/751/751 78/752/752 103/753/753
f 73/754/754 103/755/755 81/756/756
f 73/757/757 81/758/758 80/759/759
f 73/760/760 80/761/761 101/762/762
s 53
f 121/763/763 122/764/764 128/765/765
f 121/766/766 128/767/767 127/768/768
f 121/769/769 127/770/770 126/771/771
f 121/772/772 126/773/773 125/774/774
f 121/775/775 125/776/776 124/777/777
f 121/778/778 124/779/779 123/780/780
s 54
f 2/781/781 61/782/782 7/783/783
f 2/784/784 7/785/785 6/786/786
f 2/787/787 6/788/788 11/789/789
f 2/790/790 11/791/791 10/792/792
f 2/793/793 10/794/794 63/795/795
f 2/796/796 63/797/797 3/798/798
s 55
f 46/799/799 51/800/800 50/801/801
f 46/802/802 50/803/803 55/804/804
f 46/805/805 55/806/806 54/807/807
f 46/808/808 54/809/809 59/810/810
f 46/811/811 59/812/812 58/813/813
f 46/814/814 58/815/815 47/816/816
s 56
f 107/817/817 145/818/818 105/819/819
f 107/820/820 89/821/821 145/822/822
f 145/823/823 89/824/824 88/825/825
f 145/826/826 88/827/827 110/828/828
f 145/829/829 84/830/830 105/831/831
f 145/832/832 85/833/833 84/834/834
f 145/835/835 108/836/836 85/837/837
f 145/838/838 110/839/839 108/840/840
