# Spring Unit export, Created by Beherith mysterme@gmail.com with the help of Muon 
# arguments of an object 'o' piecename:
# Mxyz = midpoint of an s3o
# r = unit radius
# h = height
#			 t1 t2 = textures 1 and 2
# Oxyz = piece offset
# p = parent
o empty_root_piece,ox=0.00,oy=0.00,oz=0.00,p=,mx=0.00,my=0.00,mz=0.00,r=3.00,h=5.00,t1=cor_color.dds,t2=cor_other.dds
v 0.656964 1.285710 8.294266
vn 0.371029 0.895744 -0.244909
vt 0.195004106 0.406079859
v 0.924851 1.932447 11.065519
vn 0.371029 0.895744 -0.244909
vt 0.205808476 0.438998610
v 2.061399 0.795898 11.065519
vn 0.895744 0.371029 -0.244909
vt 0.186826542 0.443316609
vn 0.371029 0.895744 -0.244909
vt 0.195004106 0.406079859
vn 0.895744 0.371029 -0.244909
vt 0.186826542 0.443316609
v 1.414663 0.528011 8.294266
vn 0.895744 0.371029 -0.244909
vt 0.182308570 0.408958524
v -0.414584 1.285710 8.294266
vn -0.371029 0.895744 -0.244909
vt 0.200558305 0.407450110
v -0.682471 1.932447 11.065519
vn -0.371029 0.895744 -0.244909
vt 0.203794092 0.441946328
vn 0.371029 0.895744 -0.244909
vt 0.184324101 0.441946328
vn -0.371029 0.895744 -0.244909
vt 0.200558305 0.407450110
vn 0.371029 0.895744 -0.244909
vt 0.184324101 0.441946328
vn 0.371029 0.895744 -0.244909
vt 0.187557593 0.407450110
v -1.172283 0.528011 8.294266
vn -0.895744 0.371029 -0.244909
vt 0.205807105 0.408958524
v -1.819020 0.795898 11.065519
vn -0.895744 0.371029 -0.244909
vt 0.201352909 0.443316609
vn -0.371029 0.895744 -0.244909
vt 0.182309717 0.438998610
vn -0.895744 0.371029 -0.244909
vt 0.205807105 0.408958524
vn -0.371029 0.895744 -0.244909
vt 0.182309717 0.438998610
vn -0.371029 0.895744 -0.244909
vt 0.193173051 0.406079859
v -1.172283 -0.543537 8.294266
vn -0.895744 -0.371029 -0.244909
vt 0.200546607 0.407450110
v -1.819020 -0.811424 11.065519
vn -0.895744 -0.371029 -0.244909
vt 0.203783542 0.441946328
vn -0.895744 0.371029 -0.244909
vt 0.184315845 0.441946328
vn -0.895744 -0.371029 -0.244909
vt 0.200546607 0.407450110
vn -0.895744 0.371029 -0.244909
vt 0.184315845 0.441946328
vn -0.895744 0.371029 -0.244909
vt 0.187548637 0.407450110
v -0.414584 -1.301236 8.294266
vn -0.371029 -0.895744 -0.244909
vt 0.194974735 0.406079859
v -0.682471 -1.947973 11.065519
vn -0.371029 -0.895744 -0.244909
vt 0.205777958 0.438998610
vn -0.895744 -0.371029 -0.244909
vt 0.186801538 0.443316609
vn -0.371029 -0.895744 -0.244909
vt 0.194974735 0.406079859
vn -0.895744 -0.371029 -0.244909
vt 0.186801538 0.443316609
vn -0.895744 -0.371029 -0.244909
vt 0.182283327 0.408958524
v 0.656964 -1.301236 8.294266
vn 0.371029 -0.895744 -0.244909
vt 0.200524122 0.407450110
v 0.924851 -1.947973 11.065519
vn 0.371029 -0.895744 -0.244909
vt 0.203757152 0.441946328
vn -0.371029 -0.895744 -0.244909
vt 0.184286937 0.441946328
vn 0.371029 -0.895744 -0.244909
vt 0.200524122 0.407450110
vn -0.371029 -0.895744 -0.244909
vt 0.184286937 0.441946328
vn -0.371029 -0.895744 -0.244909
vt 0.187523410 0.407450110
v 1.414663 -0.543537 8.294266
vn 0.895744 -0.371029 -0.244909
vt 0.205782101 0.408958524
v 2.061399 -0.811424 11.065519
vn 0.895744 -0.371029 -0.244909
vt 0.201327905 0.443316609
vn 0.371029 -0.895744 -0.244909
vt 0.182279423 0.438998610
vn 0.895744 -0.371029 -0.244909
vt 0.205782101 0.408958524
vn 0.371029 -0.895744 -0.244909
vt 0.182279423 0.438998610
vn 0.371029 -0.895744 -0.244909
vt 0.193143919 0.406079859
vn 0.895744 0.371029 -0.244909
vt 0.200549364 0.407450110
vn 0.895744 0.371029 -0.244909
vt 0.203786060 0.441946328
vn 0.895744 -0.371029 -0.244909
vt 0.184313327 0.441946328
vn 0.895744 0.371029 -0.244909
vt 0.200549364 0.407450110
vn 0.895744 -0.371029 -0.244909
vt 0.184313327 0.441946328
vn 0.895744 -0.371029 -0.244909
vt 0.187546343 0.407450110
v 0.924851 1.932447 14.782571
vn 0.367600 0.887464 0.277989
vt 0.141295016 0.507168770
v 0.270016 0.351535 20.695459
vn 0.367600 0.887464 0.277989
vt 0.169858545 0.509959579
v 0.480488 0.141063 20.695459
vn 0.887464 0.367600 0.277989
vt 0.169858545 0.511345029
vn 0.367600 0.887464 0.277989
vt 0.141295016 0.507168770
vn 0.887464 0.367600 0.277989
vt 0.169858545 0.511345029
v 2.061399 0.795898 14.782571
vn 0.887464 0.367600 0.277989
vt 0.141417086 0.514650404
v -0.682471 1.932447 14.782571
vn -0.367600 0.887464 0.277989
vt 0.141050875 0.507004142
v -0.027636 0.351535 20.695459
vn -0.367600 0.887464 0.277989
vt 0.169492334 0.510052323
vn 0.367600 0.887464 0.277989
vt 0.169492334 0.511437893
vn -0.367600 0.887464 0.277989
vt 0.141050875 0.507004142
vn 0.367600 0.887464 0.277989
vt 0.169492334 0.511437893
vn 0.367600 0.887464 0.277989
vt 0.141050875 0.514486074
v -1.819020 0.795898 14.782571
vn -0.887464 0.367600 0.277989
vt 0.141417086 0.514650404
v -0.238108 0.141063 20.695459
vn -0.887464 0.367600 0.277989
vt 0.169858545 0.511345029
vn -0.367600 0.887464 0.277989
vt 0.169858545 0.509959579
vn -0.887464 0.367600 0.277989
vt 0.141417086 0.514650404
vn -0.367600 0.887464 0.277989
vt 0.169858545 0.509959579
vn -0.367600 0.887464 0.277989
vt 0.141295016 0.507168770
v -1.819020 -0.811424 14.782571
vn -0.887464 -0.367600 0.277989
vt 0.141040996 0.507004142
v -0.238108 -0.156589 20.695459
vn -0.887464 -0.367600 0.277989
vt 0.169484764 0.510052323
vn -0.887464 0.367600 0.277989
vt 0.169485226 0.511437893
vn -0.887464 -0.367600 0.277989
vt 0.141040996 0.507004142
vn -0.887464 0.367600 0.277989
vt 0.169485226 0.511437893
vn -0.887464 0.367600 0.277989
vt 0.141043752 0.514486074
v -0.682471 -1.947973 14.782571
vn -0.367600 -0.887464 0.277989
vt 0.141266331 0.507168770
v -0.027636 -0.367061 20.695459
vn -0.367600 -0.887464 0.277989
vt 0.169839963 0.509959579
vn -0.887464 -0.367600 0.277989
vt 0.169840649 0.511345029
vn -0.367600 -0.887464 0.277989
vt 0.141266331 0.507168770
vn -0.887464 -0.367600 0.277989
vt 0.169840649 0.511345029
vn -0.887464 -0.367600 0.277989
vt 0.141393676 0.514650404
v 0.924851 -1.947973 14.782571
vn 0.367600 -0.887464 0.277989
vt 0.141015768 0.507004142
v 0.270016 -0.367061 20.695459
vn 0.367600 -0.887464 0.277989
vt 0.169470772 0.510052323
vn -0.367600 -0.887464 0.277989
vt 0.169470772 0.511437893
vn 0.367600 -0.887464 0.277989
vt 0.141015768 0.507004142
vn -0.367600 -0.887464 0.277989
vt 0.169470772 0.511437893
vn -0.367600 -0.887464 0.277989
vt 0.141015768 0.514486074
v 2.061399 -0.811424 14.782571
vn 0.887464 -0.367600 0.277989
vt 0.141393676 0.514650404
v 0.480488 -0.156589 20.695459
vn 0.887464 -0.367600 0.277989
vt 0.169840649 0.511345029
vn 0.367600 -0.887464 0.277989
vt 0.169839963 0.509959579
vn 0.887464 -0.367600 0.277989
vt 0.141393676 0.514650404
vn 0.367600 -0.887464 0.277989
vt 0.169839963 0.509959579
vn 0.367600 -0.887464 0.277989
vt 0.141266093 0.507168770
vn 0.887464 0.367600 0.277989
vt 0.141043752 0.507004142
vn 0.887464 0.367600 0.277989
vt 0.169485226 0.510052323
vn 0.887464 -0.367600 0.277989
vt 0.169484526 0.511437893
vn 0.887464 0.367600 0.277989
vt 0.141043752 0.507004142
vn 0.887464 -0.367600 0.277989
vt 0.169484526 0.511437893
vn 0.887464 -0.367600 0.277989
vt 0.141040996 0.514486074
v 0.031894 0.207816 22.348951
vn -0.000000 0.000000 1.000000
vt 0.053403009 0.575314462
v -0.094389 0.081533 22.348951
vn -0.000000 0.000000 1.000000
vt 0.051877130 0.573783696
v -0.094389 -0.097059 22.348951
vn -0.000000 0.000000 1.000000
vt 0.051877130 0.571618736
vn -0.000000 0.000000 1.000000
vt 0.053403009 0.575314462
vn -0.000000 0.000000 1.000000
vt 0.051877130 0.571618736
v 0.031894 -0.223342 22.348951
vn -0.000000 0.000000 1.000000
vt 0.053402778 0.570087910
vn -0.000000 0.000000 1.000000
vt 0.053403009 0.575314462
vn -0.000000 0.000000 1.000000
vt 0.053402778 0.570087910
v 0.210485 -0.223342 22.348951
vn -0.000000 0.000000 1.000000
vt 0.055600043 0.570087910
vn -0.000000 0.000000 1.000000
vt 0.053403009 0.575314462
vn -0.000000 0.000000 1.000000
vt 0.055600043 0.570087910
v 0.336769 -0.097059 22.348951
vn -0.000000 0.000000 1.000000
vt 0.057126153 0.571618736
vn -0.000000 0.000000 1.000000
vt 0.053403009 0.575314462
vn -0.000000 0.000000 1.000000
vt 0.057126153 0.571618736
v 0.336769 0.081533 22.348951
vn -0.000000 0.000000 1.000000
vt 0.057126153 0.573783696
vn -0.000000 0.000000 1.000000
vt 0.053403009 0.575314462
vn -0.000000 0.000000 1.000000
vt 0.057126153 0.573783696
v 0.210485 0.207816 22.348951
vn -0.000000 0.000000 1.000000
vt 0.055600274 0.575314462
v 0.954616 2.004306 0.331046
vn -0.000000 0.000000 -1.000000
vt 0.233443186 0.834455252
v 2.133259 0.825663 0.331046
vn -0.000000 0.000000 -1.000000
vt 0.229167044 0.830168962
v 2.133259 -0.841189 0.331046
vn -0.000000 0.000000 -1.000000
vt 0.229164749 0.824107230
vn -0.000000 0.000000 -1.000000
vt 0.233443186 0.834455252
vn -0.000000 0.000000 -1.000000
vt 0.229164749 0.824107230
v 0.954616 -2.019832 0.331046
vn -0.000000 0.000000 -1.000000
vt 0.233433545 0.819820940
vn -0.000000 0.000000 -1.000000
vt 0.233443186 0.834455252
vn -0.000000 0.000000 -1.000000
vt 0.233433545 0.819820940
v -0.712237 -2.019832 0.331046
vn -0.000000 0.000000 -1.000000
vt 0.239475802 0.819820940
vn -0.000000 0.000000 -1.000000
vt 0.233443186 0.834455252
vn -0.000000 0.000000 -1.000000
vt 0.239475802 0.819820940
v -1.890879 -0.841189 0.331046
vn -0.000000 0.000000 -1.000000
vt 0.243751928 0.824107230
vn -0.000000 0.000000 -1.000000
vt 0.233443186 0.834455252
vn -0.000000 0.000000 -1.000000
vt 0.243751928 0.824107230
v -1.890879 0.825663 0.331046
vn -0.000000 0.000000 -1.000000
vt 0.243754685 0.830168962
vn -0.000000 0.000000 -1.000000
vt 0.233443186 0.834455252
vn -0.000000 0.000000 -1.000000
vt 0.243754685 0.830168962
v -0.712237 2.004306 0.331046
vn -0.000000 0.000000 -1.000000
vt 0.239485428 0.834455252
v 0.319625 0.271087 -4.396657
vn -0.000000 -1.000000 0.000000
vt 0.403106242 0.184949085
v 0.319625 0.271087 -2.774382
vn -0.000000 -1.000000 0.000000
vt 0.403077304 0.196173653
v -0.077245 0.271087 -2.774382
vn -0.000000 -1.000000 0.000000
vt 0.398255527 0.196173653
vn -0.000000 -1.000000 0.000000
vt 0.403106242 0.184949085
vn -0.000000 -1.000000 0.000000
vt 0.398255527 0.196173653
v -0.077245 0.271087 -4.396657
vn -0.000000 -1.000000 0.000000
vt 0.398284227 0.184949085
v 0.400040 0.190672 -4.396657
vn 0.458057 0.000000 -0.888923
vt 0.196102515 0.334146500
v 4.897540 -0.007763 -2.079121
vn 0.458057 0.000000 -0.888923
vt 0.139278322 0.331741065
v 0.400040 -0.206198 -4.396657
vn 0.458057 0.000000 -0.888923
vt 0.196102291 0.329335600
v 0.400040 -0.206198 -2.774382
vn -0.458057 0.000000 0.888923
vt 0.139222339 0.329335600
v 4.897540 -0.007763 -0.456847
vn -0.458057 0.000000 0.888923
vt 0.196083009 0.331741065
v 0.400040 0.190672 -2.774382
vn -0.458057 0.000000 0.888923
vt 0.139222339 0.334146500
v 0.560687 -0.446219 -4.199523
vn 0.000000 0.000000 -1.000000
vt 0.398059577 0.183704257
v -0.289725 -0.446219 -4.199523
vn 0.000000 0.000000 -1.000000
vt 0.404528409 0.183704257
v -0.289725 0.430693 -4.199523
vn 0.000000 0.000000 -1.000000
vt 0.404530704 0.190439522
vn 0.000000 0.000000 -1.000000
vt 0.398059577 0.183704257
vn 0.000000 0.000000 -1.000000
vt 0.404530704 0.190439522
v 0.560687 0.430693 -4.199523
vn 0.000000 0.000000 -1.000000
vt 0.398061872 0.190439522
v 0.560687 0.430693 0.364116
vn -0.000000 0.000000 1.000000
vt 0.403870761 0.193929017
v -0.289725 0.430693 0.364116
vn -0.000000 0.000000 1.000000
vt 0.397462070 0.193929017
v -0.289725 -0.446219 0.364116
vn -0.000000 0.000000 1.000000
vt 0.397462070 0.187193736
vn -0.000000 0.000000 1.000000
vt 0.403870761 0.193929017
vn -0.000000 0.000000 1.000000
vt 0.397462070 0.187193736
v 0.560687 -0.446219 0.364116
vn -0.000000 0.000000 1.000000
vt 0.403870761 0.187193736
v -0.157660 -0.206198 -4.396657
vn -0.458057 0.000000 -0.888923
vt 0.139278561 0.329335600
v -4.655160 -0.007763 -2.079121
vn -0.458057 0.000000 -0.888923
vt 0.196102053 0.331741065
v -0.157660 0.190672 -4.396657
vn -0.458057 0.000000 -0.888923
vt 0.139278784 0.334146500
v -0.157660 0.190672 -2.774382
vn 0.458057 0.000000 0.888923
vt 0.196046069 0.334146500
v -4.655160 -0.007763 -0.456847
vn 0.458057 0.000000 0.888923
vt 0.139259279 0.331741065
v -0.157660 -0.206198 -2.774382
vn 0.458057 0.000000 0.888923
vt 0.196046069 0.329335600
v 0.319625 -0.286613 -4.396657
vn -0.000000 -0.458057 -0.888923
vt 0.165273339 0.360155314
v 0.121190 -4.784112 -2.079121
vn -0.000000 -0.458057 -0.888923
vt 0.167691112 0.303326786
v -0.077245 -0.286613 -4.396657
vn -0.000000 -0.458057 -0.888923
vt 0.170095339 0.360155314
v -0.077245 -0.286613 -2.774382
vn -0.000000 0.458057 0.888923
vt 0.165223315 0.360155314
v 0.121190 -4.784112 -0.456847
vn -0.000000 0.458057 0.888923
vt 0.167697996 0.303326786
v 0.319625 -0.286613 -2.774382
vn -0.000000 0.458057 0.888923
vt 0.170045093 0.360155314
v 0.656964 1.285710 1.653840
vn 0.329882 0.796405 0.506869
vt 0.057732373 0.798139572
vn 0.329882 0.796405 0.506869
vt 0.049617223 0.799748838
vn -0.329882 0.796405 0.506869
vt 0.049616992 0.790737033
vn 0.329882 0.796405 0.506869
vt 0.057732373 0.798139572
vn -0.329882 0.796405 0.506869
vt 0.049616992 0.790737033
v -0.414584 1.285710 1.653840
vn -0.329882 0.796405 0.506869
vt 0.057732373 0.792346299
vn -0.329882 0.796405 0.506869
vt 0.057793640 0.792335927
vn -0.329882 0.796405 0.506869
vt 0.049617223 0.790763974
vn -0.796405 0.329882 0.506869
vt 0.049677569 0.799775660
vn -0.329882 0.796405 0.506869
vt 0.057793640 0.792335927
vn -0.796405 0.329882 0.506869
vt 0.049677569 0.799775660
v -1.172283 0.528011 1.653840
vn -0.796405 0.329882 0.506869
vt 0.057792034 0.798129141
vn -0.796405 0.329882 0.506869
vt 0.057724573 0.798139572
vn -0.796405 0.329882 0.506869
vt 0.049608734 0.799748838
vn -0.796405 -0.329882 0.506869
vt 0.049605519 0.790737033
vn -0.796405 0.329882 0.506869
vt 0.057724573 0.798139572
vn -0.796405 -0.329882 0.506869
vt 0.049605519 0.790737033
v -1.172283 -0.543537 1.653840
vn -0.796405 -0.329882 0.506869
vt 0.057720214 0.792346299
vn -0.796405 -0.329882 0.506869
vt 0.057770465 0.798129141
vn -0.796405 -0.329882 0.506869
vt 0.049655542 0.799775660
vn -0.329882 -0.796405 0.506869
vt 0.049589228 0.790763974
vn -0.796405 -0.329882 0.506869
vt 0.057770465 0.798129141
vn -0.329882 -0.796405 0.506869
vt 0.049589228 0.790763974
v -0.414584 -1.301236 1.653840
vn -0.329882 -0.796405 0.506869
vt 0.057766333 0.792335927
vn -0.329882 -0.796405 0.506869
vt 0.057700481 0.798139572
vn -0.329882 -0.796405 0.506869
vt 0.049583264 0.799748838
vn 0.329882 -0.796405 0.506869
vt 0.049583491 0.790737033
vn -0.329882 -0.796405 0.506869
vt 0.057700481 0.798139572
vn 0.329882 -0.796405 0.506869
vt 0.049583491 0.790737033
v 0.656964 -1.301236 1.653840
vn 0.329882 -0.796405 0.506869
vt 0.057700481 0.792346299
vn 0.329882 -0.796405 0.506869
vt 0.057766102 0.792335927
vn 0.329882 -0.796405 0.506869
vt 0.049589228 0.790763974
vn 0.796405 -0.329882 0.506869
vt 0.049655542 0.799775660
vn 0.329882 -0.796405 0.506869
vt 0.057766102 0.792335927
vn 0.796405 -0.329882 0.506869
vt 0.049655542 0.799775660
v 1.414663 -0.543537 1.653840
vn 0.796405 -0.329882 0.506869
vt 0.057770465 0.798129141
vn 0.796405 -0.329882 0.506869
vt 0.057720214 0.798139572
vn 0.796405 -0.329882 0.506869
vt 0.049605519 0.799748838
vn 0.796405 0.329882 0.506869
vt 0.049608734 0.790737033
vn 0.796405 -0.329882 0.506869
vt 0.057720214 0.798139572
vn 0.796405 0.329882 0.506869
vt 0.049608734 0.790737033
v 1.414663 0.528011 1.653840
vn 0.796405 0.329882 0.506869
vt 0.057724573 0.792346299
vn 0.796405 0.329882 0.506869
vt 0.057792034 0.798129141
vn 0.796405 0.329882 0.506869
vt 0.049677338 0.799775660
vn 0.329882 0.796405 0.506869
vt 0.049616992 0.790763974
vn 0.796405 0.329882 0.506869
vt 0.057792034 0.798129141
vn 0.329882 0.796405 0.506869
vt 0.049616992 0.790763974
vn 0.329882 0.796405 0.506869
vt 0.057793640 0.792335927
vn 0.382683 0.923880 -0.000000
vt 0.059874110 0.748354495
vn 0.382683 0.923880 -0.000000
vt 0.068968348 0.748354495
vn 0.923880 0.382683 -0.000000
vt 0.068968348 0.752290249
vn 0.382683 0.923880 -0.000000
vt 0.059874110 0.748354495
vn 0.923880 0.382683 -0.000000
vt 0.068968348 0.752290249
vn 0.923880 0.382683 -0.000000
vt 0.059874110 0.752290249
vn -0.382683 0.923880 -0.000000
vt 0.059873883 0.744418681
vn -0.382683 0.923880 -0.000000
vt 0.068968348 0.744418681
vn 0.382683 0.923880 -0.000000
vt 0.068968348 0.748354495
vn -0.382683 0.923880 -0.000000
vt 0.059873883 0.744418681
vn 0.382683 0.923880 -0.000000
vt 0.068968348 0.748354495
vn 0.382683 0.923880 -0.000000
vt 0.059874110 0.748354495
vn -0.923880 0.382683 -0.000000
vt 0.059874110 0.740482867
vn -0.923880 0.382683 -0.000000
vt 0.068965137 0.740482867
vn -0.382683 0.923880 -0.000000
vt 0.068968348 0.744418681
vn -0.923880 0.382683 -0.000000
vt 0.059874110 0.740482867
vn -0.382683 0.923880 -0.000000
vt 0.068968348 0.744418681
vn -0.382683 0.923880 -0.000000
vt 0.059873883 0.744418681
vn -0.923880 -0.382683 0.000000
vt 0.059863556 0.736547053
vn -0.923880 -0.382683 0.000000
vt 0.068957798 0.736547053
vn -0.923880 0.382683 -0.000000
vt 0.068965137 0.740482867
vn -0.923880 -0.382683 0.000000
vt 0.059863556 0.736547053
vn -0.923880 0.382683 -0.000000
vt 0.068965137 0.740482867
vn -0.923880 0.382683 -0.000000
vt 0.059874110 0.740482867
vn -0.382683 -0.923880 0.000000
vt 0.059838317 0.748354495
vn -0.382683 -0.923880 0.000000
vt 0.068932094 0.748354495
vn -0.923880 -0.382683 0.000000
vt 0.068943568 0.752290249
vn -0.382683 -0.923880 0.000000
vt 0.059838317 0.748354495
vn -0.923880 -0.382683 0.000000
vt 0.068943568 0.752290249
vn -0.923880 -0.382683 0.000000
vt 0.059848871 0.752290249
vn 0.382683 -0.923880 0.000000
vt 0.059836712 0.744418681
vn 0.382683 -0.923880 0.000000
vt 0.068933472 0.744418681
vn -0.382683 -0.923880 0.000000
vt 0.068932094 0.748354495
vn 0.382683 -0.923880 0.000000
vt 0.059836712 0.744418681
vn -0.382683 -0.923880 0.000000
vt 0.068932094 0.748354495
vn -0.382683 -0.923880 0.000000
vt 0.059838317 0.748354495
vn 0.923880 -0.382683 0.000000
vt 0.059853461 0.740482867
vn 0.923880 -0.382683 0.000000
vt 0.068953209 0.740482867
vn 0.382683 -0.923880 0.000000
vt 0.068933472 0.744418681
vn 0.923880 -0.382683 0.000000
vt 0.059853461 0.740482867
vn 0.382683 -0.923880 0.000000
vt 0.068933472 0.744418681
vn 0.382683 -0.923880 0.000000
vt 0.059836712 0.744418681
vn 0.923880 0.382683 -0.000000
vt 0.059866082 0.736547053
vn 0.923880 0.382683 -0.000000
vt 0.068960547 0.736547053
vn 0.923880 -0.382683 0.000000
vt 0.068953209 0.740482867
vn 0.923880 0.382683 -0.000000
vt 0.059866082 0.736547053
vn 0.923880 -0.382683 0.000000
vt 0.068953209 0.740482867
vn 0.923880 -0.382683 0.000000
vt 0.059853461 0.740482867
vn 0.381001 0.919818 0.093666
vt 0.045835108 0.591296196
vn 0.381001 0.919818 0.093666
vt 0.043333355 0.611278355
vn 0.919818 0.381001 0.093666
vt 0.041197125 0.611091554
vn 0.381001 0.919818 0.093666
vt 0.045835108 0.591296196
vn 0.919818 0.381001 0.093666
vt 0.041197125 0.611091554
vn 0.919818 0.381001 0.093666
vt 0.042234033 0.590984881
vn -0.381001 0.919818 0.093666
vt 0.045285791 0.591071904
vn -0.381001 0.919818 0.093666
vt 0.044615094 0.611191332
vn 0.381001 0.919818 0.093666
vt 0.042417828 0.611191332
vn -0.381001 0.919818 0.093666
vt 0.045285791 0.591071904
vn 0.381001 0.919818 0.093666
vt 0.042417828 0.611191332
vn 0.381001 0.919818 0.093666
vt 0.041684717 0.591071904
vn -0.919818 0.381001 0.093666
vt 0.044797510 0.590984881
vn -0.919818 0.381001 0.093666
vt 0.045835797 0.611091554
vn -0.381001 0.919818 0.093666
vt 0.043638531 0.611278355
vn -0.919818 0.381001 0.093666
vt 0.044797510 0.590984881
vn -0.381001 0.919818 0.093666
vt 0.043638531 0.611278355
vn -0.381001 0.919818 0.093666
vt 0.041196205 0.591296196
vn -0.919818 -0.381001 0.093666
vt 0.045277070 0.591071904
vn -0.919818 -0.381001 0.093666
vt 0.044608209 0.611191332
vn -0.919818 0.381001 0.093666
vt 0.042411175 0.611191332
vn -0.919818 -0.381001 0.093666
vt 0.045277070 0.591071904
vn -0.919818 0.381001 0.093666
vt 0.042411175 0.611191332
vn -0.919818 0.381001 0.093666
vt 0.041676916 0.591071904
vn -0.381001 -0.919818 0.093666
vt 0.045815144 0.591296196
vn -0.381001 -0.919818 0.093666
vt 0.043317065 0.611278355
vn -0.919818 -0.381001 0.093666
vt 0.041181292 0.611091554
vn -0.381001 -0.919818 0.093666
vt 0.045815144 0.591296196
vn -0.919818 -0.381001 0.093666
vt 0.041181292 0.611091554
vn -0.919818 -0.381001 0.093666
vt 0.042215448 0.590984881
vn 0.381001 -0.919818 0.093666
vt 0.045263533 0.591071904
vn 0.381001 -0.919818 0.093666
vt 0.044596966 0.611191332
vn -0.381001 -0.919818 0.093666
vt 0.042399701 0.611191332
vn 0.381001 -0.919818 0.093666
vt 0.045263533 0.591071904
vn -0.381001 -0.919818 0.093666
vt 0.042399701 0.611191332
vn -0.381001 -0.919818 0.093666
vt 0.041662231 0.591071904
vn 0.919818 -0.381001 0.093666
vt 0.044778693 0.590984881
vn 0.919818 -0.381001 0.093666
vt 0.045819733 0.611091554
vn 0.381001 -0.919818 0.093666
vt 0.043622240 0.611278355
vn 0.919818 -0.381001 0.093666
vt 0.044778693 0.590984881
vn 0.381001 -0.919818 0.093666
vt 0.043622240 0.611278355
vn 0.381001 -0.919818 0.093666
vt 0.041176472 0.591296196
vn 0.919818 0.381001 0.093666
vt 0.045278218 0.591071904
vn 0.919818 0.381001 0.093666
vt 0.044608209 0.611191332
vn 0.919818 -0.381001 0.093666
vt 0.042410713 0.611191332
vn 0.919818 0.381001 0.093666
vt 0.045278218 0.591071904
vn 0.919818 -0.381001 0.093666
vt 0.042410713 0.611191332
vn 0.919818 -0.381001 0.093666
vt 0.041676227 0.591071904
vn 0.000000 0.458057 -0.888923
vt 0.170103610 0.303326786
v 0.121190 4.768587 -2.079121
vn 0.000000 0.458057 -0.888923
vt 0.167723238 0.360155314
vn 0.000000 0.458057 -0.888923
vt 0.165281832 0.303326786
vn -0.000000 -0.458057 0.888923
vt 0.170045093 0.303326786
v 0.121190 4.768587 -0.456847
vn -0.000000 -0.458057 0.888923
vt 0.167708322 0.360155314
vn -0.000000 -0.458057 0.888923
vt 0.165223315 0.303326786
vn 0.044078 -0.999028 0.000000
vt 0.078646779 0.578969419
vn 0.044078 -0.999028 0.000000
vt 0.077248938 0.522106349
vn 0.044078 -0.999028 0.000000
vt 0.066443883 0.519201219
vn 0.044078 -0.999028 0.000000
vt 0.078646779 0.578969419
vn 0.044078 -0.999028 0.000000
vt 0.066443883 0.519201219
vn 0.044078 -0.999028 0.000000
vt 0.067750171 0.576064229
vn 0.707107 0.707107 -0.000000
vt 0.143234372 0.509214044
vn 0.707107 0.707107 -0.000000
vt 0.172197387 0.509214044
vn 0.707107 -0.707107 0.000000
vt 0.172196701 0.512743354
vn 0.707107 0.707107 -0.000000
vt 0.143234372 0.509214044
vn 0.707107 -0.707107 0.000000
vt 0.172196701 0.512743354
vn 0.707107 -0.707107 0.000000
vt 0.143226564 0.512743354
vn 0.707107 0.707107 -0.000000
vt 0.143234596 0.512659192
vn -0.707107 0.707107 -0.000000
vt 0.143234134 0.509298265
vn -0.707107 0.707107 -0.000000
vt 0.172199219 0.509298265
vn 0.707107 0.707107 -0.000000
vt 0.143234596 0.512659192
vn -0.707107 0.707107 -0.000000
vt 0.172199219 0.509298265
vn 0.707107 0.707107 -0.000000
vt 0.172199219 0.512659192
vn 0.707107 -0.707107 0.000000
vt 0.172193721 0.509298265
vn -0.707107 -0.707107 0.000000
vt 0.172193483 0.512659192
vn -0.707107 -0.707107 0.000000
vt 0.143220365 0.512659192
vn 0.707107 -0.707107 0.000000
vt 0.172193721 0.509298265
vn -0.707107 -0.707107 0.000000
vt 0.143220365 0.512659192
vn 0.707107 -0.707107 0.000000
vt 0.143220603 0.509298265
vn -0.707107 -0.707107 0.000000
vt 0.143225878 0.509214044
vn -0.707107 -0.707107 0.000000
vt 0.172196701 0.509214044
vn -0.707107 0.707107 -0.000000
vt 0.172197387 0.512743354
vn -0.707107 -0.707107 0.000000
vt 0.143225878 0.509214044
vn -0.707107 0.707107 -0.000000
vt 0.172197387 0.512743354
vn -0.707107 0.707107 -0.000000
vt 0.143234134 0.512743354
vn -0.044078 -0.999028 0.000000
vt 0.077210620 0.522106349
vn -0.044078 -0.999028 0.000000
vt 0.078651145 0.578969419
vn -0.044078 -0.999028 0.000000
vt 0.067788720 0.576064229
vn -0.044078 -0.999028 0.000000
vt 0.077210620 0.522106349
vn -0.044078 -0.999028 0.000000
vt 0.067788720 0.576064229
vn -0.044078 -0.999028 0.000000
vt 0.066439979 0.519201219
vn 0.999028 -0.044078 0.000000
vt 0.077210620 0.522106349
vn 0.999028 -0.044078 0.000000
vt 0.078643337 0.578969419
vn 0.999028 -0.044078 0.000000
vt 0.067780003 0.576064229
vn 0.999028 -0.044078 0.000000
vt 0.077210620 0.522106349
vn 0.999028 -0.044078 0.000000
vt 0.067780003 0.576064229
vn 0.999028 -0.044078 0.000000
vt 0.066442505 0.519201219
vn 0.382683 0.923880 -0.000000
vt 0.101495497 0.777926564
vn 0.382683 0.923880 -0.000000
vt 0.124081947 0.777926564
vn 0.923880 0.382683 -0.000000
vt 0.124081261 0.781570852
vn 0.382683 0.923880 -0.000000
vt 0.101495497 0.777926564
vn 0.923880 0.382683 -0.000000
vt 0.124081261 0.781570852
vn 0.923880 0.382683 -0.000000
vt 0.101494350 0.781570852
vn -0.382683 0.923880 -0.000000
vt 0.101495497 0.774282217
vn -0.382683 0.923880 -0.000000
vt 0.124082178 0.774282217
vn 0.382683 0.923880 -0.000000
vt 0.124081947 0.777926564
vn -0.382683 0.923880 -0.000000
vt 0.101495497 0.774282217
vn 0.382683 0.923880 -0.000000
vt 0.124081947 0.777926564
vn 0.382683 0.923880 -0.000000
vt 0.101495497 0.777926564
vn -0.923880 0.382683 -0.000000
vt 0.101495266 0.770637929
vn -0.923880 0.382683 -0.000000
vt 0.124077126 0.770637929
vn -0.382683 0.923880 -0.000000
vt 0.124082178 0.774282217
vn -0.923880 0.382683 -0.000000
vt 0.101495266 0.770637929
vn -0.382683 0.923880 -0.000000
vt 0.124082178 0.774282217
vn -0.382683 0.923880 -0.000000
vt 0.101495497 0.774282217
vn -0.923880 -0.382683 0.000000
vt 0.101483569 0.766993582
vn -0.923880 -0.382683 0.000000
vt 0.124069788 0.766993582
vn -0.923880 0.382683 -0.000000
vt 0.124077126 0.770637929
vn -0.923880 -0.382683 0.000000
vt 0.101483569 0.766993582
vn -0.923880 0.382683 -0.000000
vt 0.124077126 0.770637929
vn -0.923880 0.382683 -0.000000
vt 0.101495266 0.770637929
vn -0.382683 -0.923880 0.000000
vt 0.101463377 0.777926564
vn -0.382683 -0.923880 0.000000
vt 0.124047756 0.777926564
vn -0.923880 -0.382683 0.000000
vt 0.124056019 0.781570852
vn -0.382683 -0.923880 0.000000
vt 0.101463377 0.777926564
vn -0.923880 -0.382683 0.000000
vt 0.124056019 0.781570852
vn -0.923880 -0.382683 0.000000
vt 0.101471178 0.781570852
vn 0.382683 -0.923880 0.000000
vt 0.101463147 0.774282217
vn 0.382683 -0.923880 0.000000
vt 0.124047987 0.774282217
vn -0.382683 -0.923880 0.000000
vt 0.124047756 0.777926564
vn 0.382683 -0.923880 0.000000
vt 0.101463147 0.774282217
vn -0.382683 -0.923880 0.000000
vt 0.124047756 0.777926564
vn -0.382683 -0.923880 0.000000
vt 0.101463377 0.777926564
vn 0.923880 -0.382683 0.000000
vt 0.101475768 0.770637929
vn 0.923880 -0.382683 0.000000
vt 0.124065883 0.770637929
vn 0.382683 -0.923880 0.000000
vt 0.124047987 0.774282217
vn 0.923880 -0.382683 0.000000
vt 0.101475768 0.770637929
vn 0.382683 -0.923880 0.000000
vt 0.124047987 0.774282217
vn 0.382683 -0.923880 0.000000
vt 0.101463147 0.774282217
vn 0.923880 0.382683 -0.000000
vt 0.101486549 0.766993582
vn 0.923880 0.382683 -0.000000
vt 0.124072313 0.766993582
vn 0.923880 -0.382683 0.000000
vt 0.124065883 0.770637929
vn 0.923880 0.382683 -0.000000
vt 0.101486549 0.766993582
vn 0.923880 -0.382683 0.000000
vt 0.124065883 0.770637929
vn 0.923880 -0.382683 0.000000
vt 0.101475768 0.770637929
vn -0.999028 0.044078 0.000000
vt 0.077210620 0.522106349
vn -0.999028 0.044078 0.000000
vt 0.078666516 0.578969419
vn -0.999028 0.044078 0.000000
vt 0.067803174 0.576064229
vn -0.999028 0.044078 0.000000
vt 0.077210620 0.522106349
vn -0.999028 0.044078 0.000000
vt 0.067803174 0.576064229
vn -0.999028 0.044078 0.000000
vt 0.066448472 0.519201219
vn 0.044078 0.999028 -0.000000
vt 0.077210620 0.522106349
vn 0.044078 0.999028 -0.000000
vt 0.078669496 0.578969419
vn 0.044078 0.999028 -0.000000
vt 0.067805238 0.576064229
vn 0.044078 0.999028 -0.000000
vt 0.077210620 0.522106349
vn 0.044078 0.999028 -0.000000
vt 0.067805238 0.576064229
vn 0.044078 0.999028 -0.000000
vt 0.066449389 0.519201219
vn -0.044078 0.999028 -0.000000
vt 0.078656875 0.578969419
vn -0.044078 0.999028 -0.000000
vt 0.077265687 0.522106349
vn -0.044078 0.999028 -0.000000
vt 0.066462234 0.519201219
vn -0.044078 0.999028 -0.000000
vt 0.078656875 0.578969419
vn -0.044078 0.999028 -0.000000
vt 0.066462234 0.519201219
vn -0.044078 0.999028 -0.000000
vt 0.067750171 0.576064229
vn 0.000000 1.000000 -0.000000
vt 0.403109223 0.184949085
vn 0.000000 1.000000 -0.000000
vt 0.403077304 0.196173653
vn 0.000000 1.000000 -0.000000
vt 0.398255527 0.196173653
vn 0.000000 1.000000 -0.000000
vt 0.403109223 0.184949085
vn 0.000000 1.000000 -0.000000
vt 0.398255527 0.196173653
vn 0.000000 1.000000 -0.000000
vt 0.398287445 0.184949085
vn 0.999028 0.044078 0.000000
vt 0.078655273 0.578969419
vn 0.999028 0.044078 0.000000
vt 0.077263393 0.522106349
vn 0.999028 0.044078 0.000000
vt 0.066459484 0.519201219
vn 0.999028 0.044078 0.000000
vt 0.078655273 0.578969419
vn 0.999028 0.044078 0.000000
vt 0.066459484 0.519201219
vn 0.999028 0.044078 0.000000
vt 0.067750171 0.576064229
vn -1.000000 0.000000 0.000000
vt 0.403106242 0.184949085
vn -1.000000 0.000000 0.000000
vt 0.403077304 0.196173653
vn -1.000000 0.000000 0.000000
vt 0.398255527 0.196173653
vn -1.000000 0.000000 0.000000
vt 0.403106242 0.184949085
vn -1.000000 0.000000 0.000000
vt 0.398255527 0.196173653
vn -1.000000 0.000000 0.000000
vt 0.398286045 0.184949085
vn 1.000000 0.000000 0.000000
vt 0.403108060 0.184949085
vn 1.000000 0.000000 0.000000
vt 0.403077304 0.196173653
vn 1.000000 0.000000 0.000000
vt 0.398255527 0.196173653
vn 1.000000 0.000000 0.000000
vt 0.403108060 0.184949085
vn 1.000000 0.000000 0.000000
vt 0.398255527 0.196173653
vn 1.000000 0.000000 0.000000
vt 0.398284465 0.184949085
vn -0.999028 -0.044078 0.000000
vt 0.078649536 0.578969419
vn -0.999028 -0.044078 0.000000
vt 0.077240676 0.522106349
vn -0.999028 -0.044078 0.000000
vt 0.066436537 0.519201219
vn -0.999028 -0.044078 0.000000
vt 0.078649536 0.578969419
vn -0.999028 -0.044078 0.000000
vt 0.066436537 0.519201219
vn -0.999028 -0.044078 0.000000
vt 0.067750171 0.576064229
s off
f 53/139/139 54/140/140 55/141/141
f 56/142/142 57/143/143 58/144/144
f 67/157/157 68/158/158 69/159/159
f 70/160/160 71/161/161 72/162/162
f 73/163/163 74/164/164 75/165/165
f 76/166/166 77/167/167 78/168/168
f 52/313/313 87/314/314 49/315/315
f 50/316/316 88/317/317 51/318/318
s 1
f 1/1/1 2/2/2 3/3/3
f 1/4/4 3/5/5 4/6/6
f 5/7/7 6/8/8 2/9/9
f 5/10/10 2/11/11 1/12/12
f 7/13/13 8/14/14 6/15/15
f 7/16/16 6/17/17 5/18/18
f 9/19/19 10/20/20 8/21/21
f 9/22/22 8/23/23 7/24/24
f 11/25/25 12/26/26 10/27/27
f 11/28/28 10/29/29 9/30/30
f 13/31/31 14/32/32 12/33/33
f 13/34/34 12/35/35 11/36/36
f 15/37/37 16/38/38 14/39/39
f 15/40/40 14/41/41 13/42/42
f 4/43/43 3/44/44 16/45/45
f 4/46/46 16/47/47 15/48/48
s 2
f 17/49/49 18/50/50 19/51/51
f 17/52/52 19/53/53 20/54/54
f 21/55/55 22/56/56 18/57/57
f 21/58/58 18/59/59 17/60/60
f 23/61/61 24/62/62 22/63/63
f 23/64/64 22/65/65 21/66/66
f 25/67/67 26/68/68 24/69/69
f 25/70/70 24/71/71 23/72/72
f 27/73/73 28/74/74 26/75/75
f 27/76/76 26/77/77 25/78/78
f 29/79/79 30/80/80 28/81/81
f 29/82/82 28/83/83 27/84/84
f 31/85/85 32/86/86 30/87/87
f 31/88/88 30/89/89 29/90/90
f 20/91/91 19/92/92 32/93/93
f 20/94/94 32/95/95 31/96/96
s 3
f 33/97/97 34/98/98 35/99/99
f 33/100/100 35/101/101 36/102/102
f 33/103/103 36/104/104 37/105/105
f 33/106/106 37/107/107 38/108/108
f 33/109/109 38/110/110 39/111/111
f 33/112/112 39/113/113 40/114/114
s 4
f 41/115/115 42/116/116 43/117/117
f 41/118/118 43/119/119 44/120/120
f 41/121/121 44/122/122 45/123/123
f 41/124/124 45/125/125 46/126/126
f 41/127/127 46/128/128 47/129/129
f 41/130/130 47/131/131 48/132/132
s 5
f 49/133/133 50/134/134 51/135/135
f 49/136/136 51/137/137 52/138/138
s 6
f 59/145/145 60/146/146 61/147/147
f 59/148/148 61/149/149 62/150/150
s 7
f 63/151/151 64/152/152 65/153/153
f 63/154/154 65/155/155 66/156/156
s 8
f 79/169/169 41/170/170 48/171/171
f 79/172/172 48/173/173 80/174/174
f 80/175/175 48/176/176 47/177/177
f 80/178/178 47/179/179 81/180/180
f 81/181/181 47/182/182 46/183/183
f 81/184/184 46/185/185 82/186/186
f 82/187/187 46/188/188 45/189/189
f 82/190/190 45/191/191 83/192/192
f 83/193/193 45/194/194 44/195/195
f 83/196/196 44/197/197 84/198/198
f 84/199/199 44/200/200 43/201/201
f 84/202/202 43/203/203 85/204/204
f 85/205/205 43/206/206 42/207/207
f 85/208/208 42/209/209 86/210/210
f 86/211/211 42/212/212 41/213/213
f 86/214/214 41/215/215 79/216/216
s 9
f 2/217/217 17/218/218 20/219/219
f 2/220/220 20/221/221 3/222/222
f 6/223/223 21/224/224 17/225/225
f 6/226/226 17/227/227 2/228/228
f 8/229/229 23/230/230 21/231/231
f 8/232/232 21/233/233 6/234/234
f 10/235/235 25/236/236 23/237/237
f 10/238/238 23/239/239 8/240/240
f 12/241/241 27/242/242 25/243/243
f 12/244/244 25/245/245 10/246/246
f 14/247/247 29/248/248 27/249/249
f 14/250/250 27/251/251 12/252/252
f 16/253/253 31/254/254 29/255/255
f 16/256/256 29/257/257 14/258/258
f 3/259/259 20/260/260 31/261/261
f 3/262/262 31/263/263 16/264/264
s 10
f 18/265/265 40/266/266 39/267/267
f 18/268/268 39/269/269 19/270/270
f 22/271/271 33/272/272 40/273/273
f 22/274/274 40/275/275 18/276/276
f 24/277/277 34/278/278 33/279/279
f 24/280/280 33/281/281 22/282/282
f 26/283/283 35/284/284 34/285/285
f 26/286/286 34/287/287 24/288/288
f 28/289/289 36/290/290 35/291/291
f 28/292/292 35/293/293 26/294/294
f 30/295/295 37/296/296 36/297/297
f 30/298/298 36/299/299 28/300/300
f 32/301/301 38/302/302 37/303/303
f 32/304/304 37/305/305 30/306/306
f 19/307/307 39/308/308 38/309/309
f 19/310/310 38/311/311 32/312/312
s 11
f 55/319/319 54/320/320 57/321/321
f 55/322/322 57/323/323 56/324/324
s 12
f 62/325/325 63/326/326 66/327/327
f 62/328/328 66/329/329 59/330/330
f 62/331/331 61/332/332 64/333/333
f 62/334/334 64/335/335 63/336/336
f 66/337/337 65/338/338 60/339/339
f 66/340/340 60/341/341 59/342/342
f 60/343/343 65/344/344 64/345/345
f 60/346/346 64/347/347 61/348/348
s 13
f 72/349/349 71/350/350 68/351/351
f 72/352/352 68/353/353 67/354/354
s 14
f 78/355/355 77/356/356 74/357/357
f 78/358/358 74/359/359 73/360/360
s 15
f 79/361/361 1/362/362 4/363/363
f 79/364/364 4/365/365 86/366/366
f 80/367/367 5/368/368 1/369/369
f 80/370/370 1/371/371 79/372/372
f 81/373/373 7/374/374 5/375/375
f 81/376/376 5/377/377 80/378/378
f 82/379/379 9/380/380 7/381/381
f 82/382/382 7/383/383 81/384/384
f 83/385/385 11/386/386 9/387/387
f 83/388/388 9/389/389 82/390/390
f 84/391/391 13/392/392 11/393/393
f 84/394/394 11/395/395 83/396/396
f 85/397/397 15/398/398 13/399/399
f 85/400/400 13/401/401 84/402/402
f 86/403/403 4/404/404 15/405/405
f 86/406/406 15/407/407 85/408/408
s 16
f 51/409/409 88/410/410 87/411/411
f 51/412/412 87/413/413 52/414/414
s 17
f 58/415/415 57/416/416 54/417/417
f 58/418/418 54/419/419 53/420/420
s 18
f 69/421/421 68/422/422 71/423/423
f 69/424/424 71/425/425 70/426/426
s 19
f 75/427/427 76/428/428 78/429/429
f 75/430/430 78/431/431 73/432/432
s 20
f 49/433/433 87/434/434 88/435/435
f 49/436/436 88/437/437 50/438/438
s 21
f 55/439/439 56/440/440 58/441/441
f 55/442/442 58/443/443 53/444/444
s 22
f 69/445/445 70/446/446 72/447/447
f 69/448/448 72/449/449 67/450/450
s 23
f 75/451/451 74/452/452 77/453/453
f 75/454/454 77/455/455 76/456/456
