# Spring Unit export, Created by Beherith mysterme@gmail.com with the help of Muon 
# arguments of an object 'o' piecename:
# Mxyz = midpoint of an s3o
# r = unit radius
# h = height
#			 t1 t2 = textures 1 and 2
# Oxyz = piece offset
# p = parent
o base,ox=-0.00,oy=-3.00,oz=0.00,p=,mx=-0.00,my=4.00,mz=-0.00,r=19.00,h=29.00,t1=cor_color.dds,t2=cor_other.dds
v 8.732460 -7.838400 -0.000001
vn -0.000000 -2.818362 0.000000
vt 0.398395747 0.632345915
v 0.000000 -7.838398 8.732461
vn -0.000000 -2.818362 0.000000
vt 0.398395509 0.717101157
v -0.000001 -7.838401 -8.732461
vn -0.000000 -2.818362 0.000000
vt 0.483112544 0.632345915
v -8.732461 -7.838400 0.000000
vn -0.000000 -2.818362 0.000000
vt 0.483112544 0.717101157
vn -0.000000 -2.818362 0.000000
vt 0.483112544 0.632345915
vn -0.000000 -2.818362 0.000000
vt 0.398395509 0.717101157
v -8.732461 10.124354 -0.000002
vn -0.000000 2.818362 -0.000000
vt 0.483147651 0.632345796
v 0.000000 10.124356 8.732458
vn -0.000000 2.818362 -0.000000
vt 0.398430854 0.632345796
v -0.000001 10.124352 -8.732464
vn -0.000000 2.818362 -0.000000
vt 0.483147413 0.717101038
v 8.732460 10.124354 -0.000004
vn -0.000000 2.818362 -0.000000
vt 0.398430616 0.717101038
vn -0.000000 2.818362 -0.000000
vt 0.483147413 0.717101038
vn -0.000000 2.818362 -0.000000
vt 0.398430854 0.632345796
v -10.717024 -5.031805 1.984562
vn -1.992883 0.000000 1.992883
vt 0.483136386 0.632346034
v -1.984562 -5.031804 10.717023
vn -1.992883 0.000000 1.992883
vt 0.398419380 0.632346034
v -10.717024 7.317760 1.984560
vn -1.992883 0.000000 1.992883
vt 0.483144432 0.717101216
v -1.984562 7.317761 10.717021
vn -1.992883 0.000000 1.992883
vt 0.398427874 0.717101216
vn -1.992883 0.000000 1.992883
vt 0.483144432 0.717101216
vn -1.992883 0.000000 1.992883
vt 0.398419380 0.632346034
v -1.984563 -5.031807 -10.717024
vn -1.992883 -0.000000 -1.992883
vt 0.483136386 0.632346034
v -10.717024 -5.031806 -1.984562
vn -1.992883 -0.000000 -1.992883
vt 0.398419380 0.632346034
v -1.984563 7.317758 -10.717026
vn -1.992883 -0.000000 -1.992883
vt 0.483144194 0.717101216
v -10.717024 7.317760 -1.984564
vn -1.992883 -0.000000 -1.992883
vt 0.398427635 0.717101216
vn -1.992883 -0.000000 -1.992883
vt 0.483144194 0.717101216
vn -1.992883 -0.000000 -1.992883
vt 0.398419380 0.632346034
v 10.717023 -5.031806 -1.984564
vn 1.992883 -0.000000 -1.992883
vt 0.483136386 0.632345915
v 1.984561 -5.031807 -10.717024
vn 1.992883 -0.000000 -1.992883
vt 0.398419589 0.632345915
v 10.717023 7.317760 -1.984565
vn 1.992883 -0.000000 -1.992883
vt 0.483144432 0.717101157
v 1.984561 7.317758 -10.717026
vn 1.992883 -0.000000 -1.992883
vt 0.398427397 0.717101157
vn 1.992883 -0.000000 -1.992883
vt 0.483144432 0.717101157
vn 1.992883 -0.000000 -1.992883
vt 0.398419589 0.632345915
v 1.984563 -5.031804 10.717023
vn 1.992883 0.000000 1.992883
vt 0.483136386 0.632346034
v 10.717023 -5.031805 1.984561
vn 1.992883 0.000000 1.992883
vt 0.398419589 0.632346034
v 1.984563 7.317761 10.717021
vn 1.992883 0.000000 1.992883
vt 0.483144194 0.717101216
v 10.717023 7.317760 1.984559
vn 1.992883 0.000000 1.992883
vt 0.398427635 0.717101216
vn 1.992883 0.000000 1.992883
vt 0.483144194 0.717101216
vn 1.992883 0.000000 1.992883
vt 0.398419589 0.632346034
vn -0.000000 -1.627182 2.301183
vt 0.040382098 0.994240642
vn -0.000000 -1.627182 2.301183
vt 0.021460971 0.994240642
vn -0.000000 -1.627182 2.301183
vt 0.030917060 0.977858305
vn -2.301183 -1.627183 0.000000
vt 0.021461200 0.994240344
vn -2.301183 -1.627183 0.000000
vt 0.030917289 0.977857947
vn -2.301183 -1.627183 0.000000
vt 0.040382329 0.994240344
vn 2.301183 -1.627183 0.000000
vt 0.040382098 0.994240880
vn 2.301183 -1.627183 0.000000
vt 0.021461200 0.994240880
vn 2.301183 -1.627183 0.000000
vt 0.030917060 0.977858543
vn -0.000000 -1.627183 -2.301183
vt 0.021461429 0.994240582
vn -0.000000 -1.627183 -2.301183
vt 0.030917289 0.977858186
vn -0.000000 -1.627183 -2.301183
vt 0.040382098 0.994240582
vn -0.000000 1.627183 2.301183
vt 0.030943448 0.977858067
vn -0.000000 1.627183 2.301183
vt 0.021482999 0.994240522
vn -0.000000 1.627183 2.301183
vt 0.040403895 0.994240522
vn -2.301183 1.627183 -0.000000
vt 0.030943448 0.977858543
vn -2.301183 1.627183 -0.000000
vt 0.021482999 0.994240880
vn -2.301183 1.627183 -0.000000
vt 0.040403895 0.994240880
vn 2.301183 1.627183 -0.000000
vt 0.030943448 0.977858186
vn 2.301183 1.627183 -0.000000
vt 0.021482999 0.994240582
vn 2.301183 1.627183 -0.000000
vt 0.040403895 0.994240582
vn -0.000000 1.627182 -2.301183
vt 0.030943448 0.977858186
vn -0.000000 1.627182 -2.301183
vt 0.021482999 0.994240522
vn -0.000000 1.627182 -2.301183
vt 0.040403895 0.994240522
vn 1.409181 -1.992883 1.409181
vt 0.061740961 0.980898321
vn 1.409181 -1.992883 1.409181
vt 0.078032762 0.980898321
vn 1.409181 -1.992883 1.409181
vt 0.061740961 0.929279864
vn 1.409181 -1.992883 1.409181
vt 0.078032762 0.929279864
vn 1.409181 -1.992883 1.409181
vt 0.061740961 0.929279864
vn 1.409181 -1.992883 1.409181
vt 0.078032762 0.980898321
vn 1.409181 -1.992884 -1.409181
vt 0.061740961 0.980898440
vn 1.409181 -1.992884 -1.409181
vt 0.078032531 0.980898440
vn 1.409181 -1.992884 -1.409181
vt 0.061741192 0.929279983
vn 1.409181 -1.992884 -1.409181
vt 0.078032762 0.929279983
vn 1.409181 -1.992884 -1.409181
vt 0.061741192 0.929279983
vn 1.409181 -1.992884 -1.409181
vt 0.078032531 0.980898440
vn -1.409181 -1.992884 -1.409181
vt 0.061740961 0.980898142
vn -1.409181 -1.992884 -1.409181
vt 0.078032531 0.980898142
vn -1.409181 -1.992884 -1.409181
vt 0.061740961 0.929279745
vn -1.409181 -1.992884 -1.409181
vt 0.078032531 0.929279745
vn -1.409181 -1.992884 -1.409181
vt 0.061740961 0.929279745
vn -1.409181 -1.992884 -1.409181
vt 0.078032531 0.980898142
vn -1.409181 -1.992883 1.409181
vt 0.061740961 0.980898321
vn -1.409181 -1.992883 1.409181
vt 0.078032762 0.980898321
vn -1.409181 -1.992883 1.409181
vt 0.061740961 0.929279864
vn -1.409181 -1.992883 1.409181
vt 0.078032762 0.929279864
vn -1.409181 -1.992883 1.409181
vt 0.061740961 0.929279864
vn -1.409181 -1.992883 1.409181
vt 0.078032762 0.980898321
vn -1.409181 1.992884 1.409181
vt 0.078062132 0.929279983
vn -1.409181 1.992884 1.409181
vt 0.061765742 0.929279983
vn -1.409181 1.992884 1.409181
vt 0.078061901 0.980898440
vn -1.409181 1.992884 1.409181
vt 0.061765742 0.980898440
vn -1.409181 1.992884 1.409181
vt 0.078061901 0.980898440
vn -1.409181 1.992884 1.409181
vt 0.061765742 0.929279983
vn -1.409181 1.992883 -1.409181
vt 0.078062132 0.929279983
vn -1.409181 1.992883 -1.409181
vt 0.061765742 0.929279983
vn -1.409181 1.992883 -1.409181
vt 0.078061901 0.980898440
vn -1.409181 1.992883 -1.409181
vt 0.061765742 0.980898440
vn -1.409181 1.992883 -1.409181
vt 0.078061901 0.980898440
vn -1.409181 1.992883 -1.409181
vt 0.061765742 0.929279983
vn 1.409181 1.992883 -1.409181
vt 0.078061901 0.929279983
vn 1.409181 1.992883 -1.409181
vt 0.061765742 0.929279983
vn 1.409181 1.992883 -1.409181
vt 0.078062132 0.980898440
vn 1.409181 1.992883 -1.409181
vt 0.061765514 0.980898440
vn 1.409181 1.992883 -1.409181
vt 0.078062132 0.980898440
vn 1.409181 1.992883 -1.409181
vt 0.061765742 0.929279983
vn 1.409181 1.992884 1.409181
vt 0.078062132 0.929279983
vn 1.409181 1.992884 1.409181
vt 0.061765742 0.929279983
vn 1.409181 1.992884 1.409181
vt 0.078062132 0.980898440
vn 1.409181 1.992884 1.409181
vt 0.061765742 0.980898440
vn 1.409181 1.992884 1.409181
vt 0.078062132 0.980898440
vn 1.409181 1.992884 1.409181
vt 0.061765742 0.929279983
vn -2.818362 0.000000 0.000000
vt 0.061754499 0.980898440
vn -2.818362 0.000000 0.000000
vt 0.078050889 0.980898440
vn -2.818362 0.000000 0.000000
vt 0.061761152 0.929279983
vn -2.818362 0.000000 0.000000
vt 0.078057311 0.929279983
vn -2.818362 0.000000 0.000000
vt 0.061761152 0.929279983
vn -2.818362 0.000000 0.000000
vt 0.078050889 0.980898440
vn -0.000000 0.000000 2.818362
vt 0.078057311 0.929279625
vn -0.000000 0.000000 2.818362
vt 0.061760925 0.929279625
vn -0.000000 0.000000 2.818362
vt 0.078051113 0.980898082
vn -0.000000 0.000000 2.818362
vt 0.061754499 0.980898082
vn -0.000000 0.000000 2.818362
vt 0.078051113 0.980898082
vn -0.000000 0.000000 2.818362
vt 0.061760925 0.929279625
vn -0.000000 -0.000000 -2.818362
vt 0.061754730 0.980898440
vn -0.000000 -0.000000 -2.818362
vt 0.078051113 0.980898440
vn -0.000000 -0.000000 -2.818362
vt 0.061760925 0.929279983
vn -0.000000 -0.000000 -2.818362
vt 0.078057311 0.929279983
vn -0.000000 -0.000000 -2.818362
vt 0.061760925 0.929279983
vn -0.000000 -0.000000 -2.818362
vt 0.078051113 0.980898440
vn 2.818362 0.000000 -0.000000
vt 0.061754499 0.980898082
vn 2.818362 0.000000 -0.000000
vt 0.078051113 0.980898082
vn 2.818362 0.000000 -0.000000
vt 0.061761152 0.929279625
vn 2.818362 0.000000 0.000000
vt 0.078057311 0.929279625
vn 2.818362 0.000000 -0.000000
vt 0.061761152 0.929279625
vn 2.818362 0.000000 -0.000000
vt 0.078051113 0.980898082
v 7.411752 10.029171 -0.000003
vn 1.741784 1.369503 -1.741785
vt 0.141496927 0.510251224
v -0.000002 10.029170 -7.411756
vn 1.741784 1.369503 -1.741785
vt 0.141496927 0.528393507
v -0.000001 19.455708 -0.000004
vn 1.741784 1.369503 -1.741785
vt 0.122922279 0.519322455
v -0.000000 10.029171 7.411750
vn 1.741785 1.369504 1.741784
vt 0.141496927 0.528393447
vn 1.741785 1.369504 1.741784
vt 0.141496927 0.510251164
vn 1.741785 1.369504 1.741784
vt 0.122922279 0.519322336
v -7.411754 10.029171 -0.000002
vn -1.741784 1.369504 1.741785
vt 0.141496927 0.510251164
vn -1.741784 1.369504 1.741785
vt 0.141496927 0.528393507
vn -1.741784 1.369504 1.741785
vt 0.122922279 0.519322336
vn -1.741785 1.369503 -1.741784
vt 0.141496927 0.528393507
vn -1.741785 1.369503 -1.741784
vt 0.141496927 0.510251164
vn -1.741785 1.369503 -1.741784
vt 0.122922279 0.519322336
v 9.989364 -4.097924 2.577610
vn 2.710170 -0.000000 -0.773400
vt 0.141496018 0.510251224
v 9.989365 6.383879 2.577609
vn 2.710170 -0.000000 -0.773400
vt 0.141496927 0.528393507
v 12.949059 1.142979 12.949056
vn 2.710170 -0.000000 -0.773400
vt 0.122916542 0.519322455
v 2.577611 -4.097922 9.989364
vn 0.968385 -2.463255 0.968385
vt 0.141495779 0.528393447
vn 0.968385 -2.463255 0.968385
vt 0.141495779 0.510251164
vn 0.968385 -2.463255 0.968385
vt 0.122905530 0.519322336
v 2.577611 6.383879 9.989363
vn -0.773399 0.000000 2.710170
vt 0.141497388 0.510251164
vn -0.773399 0.000000 2.710170
vt 0.141496241 0.528393507
vn -0.773399 0.000000 2.710170
vt 0.122916542 0.519322336
vn 0.968385 2.463256 0.968385
vt 0.141496927 0.528393507
vn 0.968385 2.463256 0.968385
vt 0.141496927 0.510251164
vn 0.968385 2.463256 0.968385
vt 0.122922279 0.519322336
v 9.989364 6.383878 -2.577614
vn 2.710170 0.000000 0.773399
vt 0.141496927 0.510251224
v 9.989365 -4.097925 -2.577612
vn 2.710170 0.000000 0.773399
vt 0.141496018 0.528393507
v 12.949058 1.142975 -12.949060
vn 2.710170 0.000000 0.773399
vt 0.122916318 0.519322455
v 2.577610 6.383877 -9.989367
vn 0.968385 2.463255 -0.968386
vt 0.141496703 0.528393447
vn 0.968385 2.463255 -0.968386
vt 0.141496703 0.510251164
vn 0.968385 2.463255 -0.968386
vt 0.122922279 0.519322336
v 2.577611 -4.097926 -9.989367
vn -0.773399 -0.000000 -2.710170
vt 0.141496018 0.510251164
vn -0.773399 -0.000000 -2.710170
vt 0.141496703 0.528393507
vn -0.773399 -0.000000 -2.710170
vt 0.122916318 0.519322336
vn 0.968385 -2.463255 -0.968385
vt 0.141495779 0.528393507
vn 0.968385 -2.463255 -0.968385
vt 0.141495779 0.510251164
vn 0.968385 -2.463255 -0.968385
vt 0.122905530 0.519322336
v -2.577610 -4.097922 9.989364
vn 0.773400 0.000001 2.710170
vt 0.141496018 0.510251224
v -2.577610 6.383881 9.989360
vn 0.773400 0.000001 2.710170
vt 0.141496927 0.528393507
v -12.949054 1.142979 12.949056
vn 0.773400 0.000001 2.710170
vt 0.122916318 0.519322455
v -9.989364 -4.097924 2.577610
vn -0.968385 -2.463255 0.968386
vt 0.141496018 0.528393447
vn -0.968385 -2.463255 0.968386
vt 0.141495779 0.510251164
vn -0.968385 -2.463255 0.968386
vt 0.122905530 0.519322336
v -9.989365 6.383877 2.577608
vn -2.710170 -0.000001 -0.773399
vt 0.141497165 0.510251164
vn -2.710170 -0.000001 -0.773399
vt 0.141496018 0.528393507
vn -2.710170 -0.000001 -0.773399
vt 0.122916318 0.519322336
vn -0.968385 2.463255 0.968385
vt 0.141496703 0.528393507
vn -0.968385 2.463255 0.968385
vt 0.141496703 0.510251164
vn -0.968385 2.463255 0.968385
vt 0.122922510 0.519322336
v -2.577612 6.383876 -9.989367
vn 0.773400 -0.000000 -2.710170
vt 0.141496927 0.510251224
v -2.577611 -4.097927 -9.989364
vn 0.773400 -0.000000 -2.710170
vt 0.141496018 0.528393507
v -12.949058 1.142972 -12.949060
vn 0.773400 -0.000000 -2.710170
vt 0.122916542 0.519322455
v -9.989366 6.383877 -2.577614
vn -0.968385 2.463255 -0.968386
vt 0.141496927 0.528393447
vn -0.968385 2.463255 -0.968386
vt 0.141496927 0.510251164
vn -0.968385 2.463255 -0.968386
vt 0.122922510 0.519322336
v -9.989365 -4.097926 -2.577612
vn -2.710170 -0.000000 0.773399
vt 0.141495779 0.510251164
vn -2.710170 -0.000000 0.773399
vt 0.141496927 0.528393507
vn -2.710170 -0.000000 0.773399
vt 0.122916318 0.519322336
vn -0.968385 -2.463255 -0.968385
vt 0.141496018 0.528393507
vn -0.968385 -2.463255 -0.968385
vt 0.141495779 0.510251164
vn -0.968385 -2.463255 -0.968385
vt 0.122905761 0.519322336
v -0.000000 -7.743217 -7.411754
vn 1.741785 -1.369503 -1.741784
vt 0.141480640 0.510251224
v 7.411753 -7.743216 0.000000
vn 1.741785 -1.369503 -1.741784
vt 0.141480640 0.528393507
v -0.000000 -17.169755 0.000001
vn 1.741785 -1.369503 -1.741784
vt 0.122883961 0.519322455
v -7.411754 -7.743216 -0.000000
vn -1.741784 -1.369503 -1.741784
vt 0.141480640 0.528393447
vn -1.741784 -1.369503 -1.741784
vt 0.141480640 0.510251164
vn -1.741784 -1.369503 -1.741784
vt 0.122883961 0.519322336
v -0.000001 -7.743215 7.411753
vn -1.741785 -1.369503 1.741785
vt 0.141480640 0.510251164
vn -1.741785 -1.369503 1.741785
vt 0.141480640 0.528393507
vn -1.741785 -1.369503 1.741785
vt 0.122884192 0.519322336
vn 1.741785 -1.369503 1.741785
vt 0.141480640 0.528393507
vn 1.741785 -1.369503 1.741785
vt 0.141480640 0.510251164
vn 1.741785 -1.369503 1.741785
vt 0.122883961 0.519322336
s off
f 21/37/37 10/38/38 2/39/39
f 14/40/40 4/41/41 9/42/42
f 17/43/43 22/44/44 1/45/45
f 18/46/46 3/47/47 13/48/48
f 6/49/49 12/50/50 23/51/51
f 5/52/52 16/53/53 11/54/54
f 8/55/55 24/56/56 19/57/57
f 7/58/58 20/59/59 15/60/60
f 25/133/133 26/134/134 27/135/135
f 28/136/136 25/137/137 27/138/138
f 29/139/139 28/140/140 27/141/141
f 26/142/142 29/143/143 27/144/144
f 30/145/145 31/146/146 32/147/147
f 33/148/148 30/149/149 32/150/150
f 34/151/151 33/152/152 32/153/153
f 31/154/154 34/155/155 32/156/156
f 35/157/157 36/158/158 37/159/159
f 38/160/160 35/161/161 37/162/162
f 39/163/163 38/164/164 37/165/165
f 36/166/166 39/167/167 37/168/168
f 40/169/169 41/170/170 42/171/171
f 43/172/172 40/173/173 42/174/174
f 44/175/175 43/176/176 42/177/177
f 41/178/178 44/179/179 42/180/180
f 45/181/181 46/182/182 47/183/183
f 48/184/184 45/185/185 47/186/186
f 49/187/187 48/188/188 47/189/189
f 46/190/190 49/191/191 47/192/192
f 50/193/193 51/194/194 52/195/195
f 53/196/196 50/197/197 52/198/198
f 54/199/199 53/200/200 52/201/201
f 51/202/202 54/203/203 52/204/204
s 1
f 1/1/1 2/2/2 3/3/3
f 4/4/4 3/5/5 2/6/6
s 2
f 5/7/7 6/8/8 7/9/9
f 8/10/10 7/11/11 6/12/12
s 3
f 9/13/13 10/14/14 11/15/15
f 12/16/16 11/17/17 10/18/18
s 4
f 13/19/19 14/20/20 15/21/21
f 16/22/22 15/23/23 14/24/24
s 5
f 17/25/25 18/26/26 19/27/27
f 20/28/28 19/29/29 18/30/30
s 6
f 21/31/31 22/32/32 23/33/33
f 24/34/34 23/35/35 22/36/36
s 7
f 21/61/61 2/62/62 22/63/63
f 1/64/64 22/65/65 2/66/66
s 8
f 17/67/67 1/68/68 18/69/69
f 3/70/70 18/71/71 1/72/72
s 9
f 13/73/73 3/74/74 14/75/75
f 4/76/76 14/77/77 3/78/78
s 10
f 9/79/79 4/80/80 10/81/81
f 2/82/82 10/83/83 4/84/84
s 11
f 12/85/85 6/86/86 11/87/87
f 5/88/88 11/89/89 6/90/90
s 12
f 16/91/91 5/92/92 15/93/93
f 7/94/94 15/95/95 5/96/96
s 13
f 20/97/97 7/98/98 19/99/99
f 8/100/100 19/101/101 7/102/102
s 14
f 24/103/103 8/104/104 23/105/105
f 6/106/106 23/107/107 8/108/108
s 15
f 14/109/109 9/110/110 16/111/111
f 11/112/112 16/113/113 9/114/114
s 16
f 23/115/115 12/116/116 21/117/117
f 10/118/118 21/119/119 12/120/120
s 17
f 18/121/121 13/122/122 20/123/123
f 15/124/124 20/125/125 13/126/126
s 18
f 22/127/127 17/128/128 24/129/129
f 19/130/130 24/131/131 17/132/132
