# Spring Unit export, Created by Beherith mysterme@gmail.com with the help of Muon 
# arguments of an object 'o' piecename:
# Mxyz = midpoint of an s3o
# r = unit radius
# h = height
#			 t1 t2 = textures 1 and 2
# Oxyz = piece offset
# p = parent
o empty_root_piece,ox=0.00,oy=0.00,oz=0.00,p=,mx=0.00,my=0.00,mz=0.00,r=2.00,h=3.00,t1=cor_color.dds,t2=cor_other.dds
v -0.683628 -1.939526 -2.245712
vn -0.000000 -0.862762 -0.505611
vt 0.002824826 0.574597061
v -2.163015 -0.792424 -4.203100
vn -0.000000 -0.862762 -0.505611
vt 0.016087582 0.622102916
v 0.455345 -1.939526 -2.245712
vn -0.000000 -0.862762 -0.505611
vt 0.016557736 0.559034288
v 0.455345 1.097494 -2.245712
vn 0.000000 0.932318 -0.361639
vt 0.015987081 0.559969306
v -2.163015 0.338239 -4.203100
vn 0.000000 0.932318 -0.361639
vt 0.016050410 0.621066391
v -0.683628 1.097494 -2.245712
vn 0.000000 0.932318 -0.361639
vt 0.003047857 0.576164722
v 1.260720 1.097494 -0.681081
vn 0.000000 0.000000 -1.000000
vt 0.036899194 0.709450006
v 2.019975 1.097494 -0.681081
vn 0.000000 0.000000 -1.000000
vt 0.036906537 0.718627751
v 2.019975 -1.939526 -0.681081
vn 0.000000 0.000000 -1.000000
vt 0.000210411 0.718627751
vn 0.000000 0.000000 -1.000000
vt 0.036899194 0.709450006
vn 0.000000 0.000000 -1.000000
vt 0.000210411 0.718627751
v 1.260720 -1.939526 -0.681081
vn 0.000000 0.000000 -1.000000
vt 0.000206739 0.709450006
v 2.019975 -1.939526 0.457891
vn 0.800936 0.000000 0.598750
vt 0.105381787 0.846628129
v 3.977363 -0.792424 -2.160468
vn 0.800936 0.000000 0.598750
vt 0.116505101 0.853265047
v 3.977363 0.338239 -2.160468
vn 0.800936 0.000000 0.598750
vt 0.116385780 0.867026925
vn 0.800936 0.000000 0.598750
vt 0.105381787 0.846628129
vn 0.800936 0.000000 0.598750
vt 0.116385780 0.867026925
v 2.019975 1.097494 0.457891
vn 0.800936 0.000000 0.598750
vt 0.105823033 0.873412728
v 0.455345 -1.939526 -1.486457
vn -0.000000 -1.000000 0.000000
vt 0.168220699 0.725989163
vn -0.000000 -1.000000 0.000000
vt 0.162849829 0.738980174
v 1.260720 -1.939526 0.457891
vn -0.000000 -1.000000 -0.000000
vt 0.149849117 0.744361222
vn -0.000000 -1.000000 0.000000
vt 0.168220699 0.725989163
vn -0.000000 -1.000000 -0.000000
vt 0.149849117 0.744361222
v -0.114142 -1.939526 -0.111595
vn -0.000000 -1.000000 -0.000000
vt 0.149848416 0.725989163
vn -0.000000 -1.000000 0.000000
vt 0.168220699 0.725989163
vn -0.000000 -1.000000 -0.000000
vt 0.149848416 0.725989163
v -1.489004 -1.939526 -0.681081
vn -0.000000 -1.000000 -0.000000
vt 0.149849340 0.707617104
vn -0.000000 -1.000000 0.000000
vt 0.168220699 0.725989163
vn -0.000000 -1.000000 -0.000000
vt 0.149849340 0.707617104
v -0.683628 -1.939526 -1.486457
vn -0.000000 -1.000000 0.000000
vt 0.162849829 0.712998152
v 0.455345 -1.939526 1.263267
vn -0.000000 -1.000000 -0.000000
vt 0.162849829 0.738980174
v -0.683628 -1.939526 1.263267
vn -0.000000 -1.000000 -0.000000
vt 0.168220922 0.725989163
v -1.489004 -1.939526 0.457891
vn -0.000000 -1.000000 -0.000000
vt 0.162849605 0.712998152
vn -0.000000 -1.000000 -0.000000
vt 0.162849829 0.738980174
vn -0.000000 -1.000000 -0.000000
vt 0.162849605 0.712998152
vn -0.000000 -1.000000 -0.000000
vt 0.149849340 0.707617104
vn -0.000000 -1.000000 -0.000000
vt 0.162849829 0.738980174
vn -0.000000 -1.000000 -0.000000
vt 0.149849340 0.707617104
vn -0.000000 -1.000000 -0.000000
vt 0.149848416 0.725989163
vn -0.000000 -1.000000 -0.000000
vt 0.162849829 0.738980174
vn -0.000000 -1.000000 -0.000000
vt 0.149848416 0.725989163
vn -0.000000 -1.000000 -0.000000
vt 0.149849117 0.744361222
vn 0.000000 0.000000 -1.000000
vt 0.000205592 0.718627751
v -2.248259 -1.939526 -0.681081
vn 0.000000 0.000000 -1.000000
vt 0.000209034 0.709450006
v -2.248259 1.097494 -0.681081
vn 0.000000 0.000000 -1.000000
vt 0.036905389 0.709450006
vn 0.000000 0.000000 -1.000000
vt 0.000205592 0.718627751
vn 0.000000 0.000000 -1.000000
vt 0.036905389 0.709450006
v -1.489004 1.097494 -0.681081
vn 0.000000 0.000000 -1.000000
vt 0.036897816 0.718627751
v -2.248259 1.097494 0.457891
vn 0.602955 -0.000000 0.797775
vt 0.090610817 0.846391082
v -4.205647 0.338239 1.937278
vn 0.602955 -0.000000 0.797775
vt 0.101909898 0.852984071
v -4.205647 -0.792424 1.937278
vn 0.602955 -0.000000 0.797775
vt 0.102088414 0.867452919
vn 0.602955 -0.000000 0.797775
vt 0.090610817 0.846391082
vn 0.602955 -0.000000 0.797775
vt 0.102088414 0.867452919
v -2.248259 -1.939526 0.457891
vn 0.602955 -0.000000 0.797775
vt 0.090659924 0.873754859
v -0.683628 1.097494 1.263267
vn 0.000000 1.000000 0.000000
vt 0.035926301 0.747845709
v -0.683628 1.097494 2.022522
vn 0.000000 1.000000 0.000000
vt 0.031241510 0.747845709
v 0.455345 1.097494 2.022522
vn 0.000000 1.000000 0.000000
vt 0.031241739 0.740784347
vn 0.000000 1.000000 0.000000
vt 0.035926301 0.747845709
vn 0.000000 1.000000 0.000000
vt 0.031241739 0.740784347
v 0.455345 1.097494 1.263267
vn 0.000000 1.000000 0.000000
vt 0.035926301 0.740784347
v 0.455345 -1.939526 2.022522
vn -0.000000 -0.862762 0.505611
vt 0.002824597 0.574597061
v 1.934731 -0.792424 3.979910
vn -0.000000 -0.862762 0.505611
vt 0.016087582 0.622102916
v -0.683628 -1.939526 2.022522
vn -0.000000 -0.862762 0.505611
vt 0.016557736 0.559034288
v 0.455345 1.097494 -1.486457
vn 0.000000 1.000000 0.000000
vt 0.031226596 0.740784347
vn 0.000000 1.000000 0.000000
vt 0.035941217 0.740784347
vn 0.000000 1.000000 0.000000
vt 0.035941217 0.747845709
vn 0.000000 1.000000 0.000000
vt 0.031226596 0.740784347
vn 0.000000 1.000000 0.000000
vt 0.035941217 0.747845709
v -0.683628 1.097494 -1.486457
vn 0.000000 1.000000 0.000000
vt 0.031226596 0.747845709
vn -0.000000 -1.000000 0.000000
vt 0.031196997 0.740784347
vn -0.000000 -1.000000 0.000000
vt 0.035897620 0.740784347
vn -0.000000 -1.000000 0.000000
vt 0.035897393 0.747845709
vn -0.000000 -1.000000 0.000000
vt 0.031196997 0.740784347
vn -0.000000 -1.000000 0.000000
vt 0.035897393 0.747845709
vn -0.000000 -1.000000 0.000000
vt 0.031196766 0.747845709
vn -0.797775 0.000000 0.602955
vt 0.090611048 0.846391082
vn -0.797775 0.000000 0.602955
vt 0.101910122 0.852984071
vn -0.797775 0.000000 0.602955
vt 0.102088183 0.867452919
vn -0.797775 0.000000 0.602955
vt 0.090611048 0.846391082
vn -0.797775 0.000000 0.602955
vt 0.102088183 0.867452919
vn -0.797775 0.000000 0.602955
vt 0.090659924 0.873754859
vn -0.000000 0.000000 1.000000
vt 0.000205592 0.718627751
vn -0.000000 0.000000 1.000000
vt 0.000209493 0.709450006
vn -0.000000 0.000000 1.000000
vt 0.036905389 0.709450006
vn -0.000000 0.000000 1.000000
vt 0.000205592 0.718627751
vn -0.000000 0.000000 1.000000
vt 0.036905389 0.709450006
v 1.260720 1.097494 0.457891
vn -0.000000 0.000000 1.000000
vt 0.036898278 0.718627751
vn 0.505611 -0.862762 0.000000
vt 0.002397580 0.574807882
vn 0.505611 -0.862762 0.000000
vt 0.016820004 0.621956885
vn 0.505611 -0.862762 0.000000
vt 0.015703015 0.558896422
vn 0.361639 0.932318 0.000000
vt 0.015865240 0.559956789
vn 0.361639 0.932318 0.000000
vt 0.016111445 0.621053517
vn 0.361639 0.932318 0.000000
vt 0.002986592 0.576183856
vn -0.382683 0.000000 -0.923880
vt 0.037557501 0.718571126
v -0.683628 1.666935 -1.486457
vn -0.353179 0.385036 -0.852650
vt 0.064744994 0.718571126
v 0.455345 1.666935 -1.486457
vn 0.353179 0.385036 -0.852650
vt 0.064744532 0.709988594
vn -0.382683 0.000000 -0.923880
vt 0.037557501 0.718571126
vn 0.353179 0.385036 -0.852650
vt 0.064744532 0.709988594
vn 0.382683 -0.000000 -0.923880
vt 0.037558191 0.709988594
vn 0.382683 -0.000000 -0.923880
vt 0.037560713 0.718571126
vn 0.353179 0.385036 -0.852650
vt 0.064743847 0.718571126
v 1.260720 1.666935 -0.681081
vn 0.852650 0.385036 -0.353179
vt 0.064744532 0.709988594
vn 0.382683 -0.000000 -0.923880
vt 0.037560713 0.718571126
vn 0.852650 0.385036 -0.353179
vt 0.064744532 0.709988594
vn 0.923880 -0.000000 -0.382683
vt 0.037560944 0.709988594
vn 0.923880 -0.000000 -0.382683
vt 0.037555207 0.718571126
vn 0.852650 0.385036 -0.353179
vt 0.064743154 0.718571126
v 1.260720 1.666935 0.457891
vn 0.852650 0.385036 0.353179
vt 0.064744763 0.709988594
vn 0.923880 -0.000000 -0.382683
vt 0.037555207 0.718571126
vn 0.852650 0.385036 0.353179
vt 0.064744763 0.709988594
vn 0.923880 -0.000000 0.382683
vt 0.037558191 0.709988594
vn 0.923880 -0.000000 0.382683
vt 0.037560485 0.718571126
vn 0.852650 0.385036 0.353179
vt 0.064743847 0.718571126
v 0.455345 1.666935 1.263267
vn 0.353179 0.385036 0.852650
vt 0.064744763 0.709988594
vn 0.923880 -0.000000 0.382683
vt 0.037560485 0.718571126
vn 0.353179 0.385036 0.852650
vt 0.064744763 0.709988594
vn 0.382683 0.000000 0.923880
vt 0.037561174 0.709988594
vn 0.382683 0.000000 0.923880
vt 0.037554979 0.718571126
vn 0.353179 0.385036 0.852650
vt 0.064743385 0.718571126
v -0.683628 1.666935 1.263267
vn -0.353179 0.385036 0.852650
vt 0.064744301 0.709988594
vn 0.382683 0.000000 0.923880
vt 0.037554979 0.718571126
vn -0.353179 0.385036 0.852650
vt 0.064744301 0.709988594
vn -0.382683 0.000000 0.923880
vt 0.037560485 0.709988594
vn -0.382683 0.000000 0.923880
vt 0.037560485 0.709988594
vn -0.353179 0.385036 0.852650
vt 0.064744301 0.709988594
v -1.489004 1.666935 0.457891
vn -0.852650 0.385036 0.353179
vt 0.064744532 0.718571126
vn -0.382683 0.000000 0.923880
vt 0.037560485 0.709988594
vn -0.852650 0.385036 0.353179
vt 0.064744532 0.718571126
vn -0.923880 0.000000 0.382683
vt 0.037560944 0.718571126
vn -0.923880 0.000000 0.382683
vt 0.037554979 0.709988594
vn -0.852650 0.385036 0.353179
vt 0.064743154 0.709988594
v -1.489004 1.666935 -0.681081
vn -0.852650 0.385036 -0.353179
vt 0.064744763 0.718571126
vn -0.923880 0.000000 0.382683
vt 0.037554979 0.709988594
vn -0.852650 0.385036 -0.353179
vt 0.064744763 0.718571126
vn -0.923880 0.000000 -0.382683
vt 0.037558191 0.718571126
vn -0.923880 0.000000 -0.382683
vt 0.037560713 0.709988594
vn -0.852650 0.385036 -0.353179
vt 0.064744078 0.709988594
vn -0.353179 0.385036 -0.852650
vt 0.064744994 0.718571126
vn -0.923880 0.000000 -0.382683
vt 0.037560713 0.709988594
vn -0.353179 0.385036 -0.852650
vt 0.064744994 0.718571126
vn -0.382683 0.000000 -0.923880
vt 0.037557501 0.718571126
vn 0.353179 0.385036 -0.852650
vt 0.088559486 0.764699697
v 0.170601 2.426190 -0.799026
vn 0.193178 0.863237 -0.466373
vt 0.076291882 0.760143995
v 0.573289 2.426190 -0.396338
vn 0.466373 0.863237 -0.193178
vt 0.076292112 0.750958622
vn 0.353179 0.385036 -0.852650
vt 0.088559486 0.764699697
vn 0.466373 0.863237 -0.193178
vt 0.076292112 0.750958622
vn 0.852650 0.385036 -0.353179
vt 0.088559486 0.746328890
vn -0.353179 0.385036 -0.852650
vt 0.088557884 0.764712393
v -0.398885 2.426190 -0.799026
vn -0.145116 0.925312 -0.350341
vt 0.076291651 0.760119677
vn 0.193178 0.863237 -0.466373
vt 0.076291651 0.750934303
vn -0.353179 0.385036 -0.852650
vt 0.088557884 0.764712393
vn 0.193178 0.863237 -0.466373
vt 0.076291651 0.750934303
vn 0.353179 0.385036 -0.852650
vt 0.088559031 0.746341586
vn -0.852650 0.385036 -0.353179
vt 0.088559486 0.746328890
v -0.801573 2.426190 -0.396338
vn -0.466373 0.863237 -0.193178
vt 0.076291882 0.750958622
vn -0.145116 0.925312 -0.350341
vt 0.076291882 0.760143995
vn -0.852650 0.385036 -0.353179
vt 0.088559486 0.746328890
vn -0.145116 0.925312 -0.350341
vt 0.076291882 0.760143995
vn -0.353179 0.385036 -0.852650
vt 0.088559486 0.764699697
vn -0.852650 0.385036 0.353179
vt 0.088557884 0.764712393
v -0.801573 2.426190 0.173148
vn -0.466373 0.863237 0.193178
vt 0.076291651 0.760119677
vn -0.466373 0.863237 -0.193178
vt 0.076291882 0.750934303
vn -0.852650 0.385036 0.353179
vt 0.088557884 0.764712393
vn -0.466373 0.863237 -0.193178
vt 0.076291882 0.750934303
vn -0.852650 0.385036 -0.353179
vt 0.088559031 0.746341586
vn -0.353179 0.385036 0.852650
vt 0.088559486 0.764699697
v -0.398885 2.426190 0.575836
vn -0.193178 0.863237 0.466373
vt 0.076291882 0.760143995
vn -0.466373 0.863237 0.193178
vt 0.076291882 0.750958622
vn -0.353179 0.385036 0.852650
vt 0.088559486 0.764699697
vn -0.466373 0.863237 0.193178
vt 0.076291882 0.750958622
vn -0.852650 0.385036 0.353179
vt 0.088559486 0.746328890
vn 0.353179 0.385036 0.852650
vt 0.088558108 0.764712393
v 0.170601 2.426190 0.575836
vn 0.145116 0.925312 0.350341
vt 0.076291651 0.760119677
vn -0.193178 0.863237 0.466373
vt 0.076291882 0.750934303
vn 0.353179 0.385036 0.852650
vt 0.088558108 0.764712393
vn -0.193178 0.863237 0.466373
vt 0.076291882 0.750934303
vn -0.353179 0.385036 0.852650
vt 0.088559031 0.746341586
vn 0.852650 0.385036 0.353179
vt 0.088559486 0.746328890
v 0.573289 2.426190 0.173148
vn 0.466373 0.863237 0.193178
vt 0.076291882 0.750958622
vn 0.145116 0.925312 0.350341
vt 0.076291882 0.760143995
vn 0.852650 0.385036 0.353179
vt 0.088559486 0.746328890
vn 0.145116 0.925312 0.350341
vt 0.076291882 0.760143995
vn 0.353179 0.385036 0.852650
vt 0.088559486 0.764699697
vn 0.852650 0.385036 -0.353179
vt 0.088557884 0.764712393
vn 0.466373 0.863237 -0.193178
vt 0.076291651 0.760119677
vn 0.466373 0.863237 0.193178
vt 0.076291882 0.750934303
vn 0.852650 0.385036 -0.353179
vt 0.088557884 0.764712393
vn 0.466373 0.863237 0.193178
vt 0.076291882 0.750934303
vn 0.852650 0.385036 0.353179
vt 0.088559031 0.746341586
vn -0.145116 0.925312 -0.350341
vt 0.096373133 0.611092031
vn 0.145116 0.925312 0.350341
vt 0.102171473 0.597139955
vn 0.466373 0.863237 0.193178
vt 0.106260829 0.601226449
vn -0.145116 0.925312 -0.350341
vt 0.096373133 0.611092031
vn 0.466373 0.863237 0.193178
vt 0.106260829 0.601226449
vn 0.466373 0.863237 -0.193178
vt 0.106260829 0.607005596
vn -0.145116 0.925312 -0.350341
vt 0.096373133 0.611092031
vn 0.466373 0.863237 -0.193178
vt 0.106260829 0.607005596
vn 0.193178 0.863237 -0.466373
vt 0.102171473 0.611092031
vn -0.466373 0.863237 -0.193178
vt 0.092283778 0.607005596
vn -0.466373 0.863237 0.193178
vt 0.092283778 0.601226449
vn -0.193178 0.863237 0.466373
vt 0.096373133 0.597139955
vn -0.466373 0.863237 -0.193178
vt 0.092283778 0.607005596
vn -0.193178 0.863237 0.466373
vt 0.096373133 0.597139955
vn 0.145116 0.925312 0.350341
vt 0.102171473 0.597139955
vn -0.466373 0.863237 -0.193178
vt 0.092283778 0.607005596
vn 0.145116 0.925312 0.350341
vt 0.102171473 0.597139955
vn -0.145116 0.925312 -0.350341
vt 0.096373133 0.611092031
vn -0.000000 1.000000 0.000000
vt 0.035926301 0.747845709
vn -0.000000 1.000000 0.000000
vt 0.031241281 0.747845709
vn -0.000000 1.000000 0.000000
vt 0.031241510 0.740784347
vn -0.000000 1.000000 0.000000
vt 0.035926301 0.747845709
vn -0.000000 1.000000 0.000000
vt 0.031241510 0.740784347
v -1.489004 1.097494 0.457891
vn -0.000000 1.000000 0.000000
vt 0.035926301 0.740784347
vn -0.505611 -0.862762 0.000000
vt 0.002397351 0.574807882
vn -0.505611 -0.862762 0.000000
vt 0.016820004 0.621956885
vn -0.505611 -0.862762 0.000000
vt 0.015703015 0.558896422
vn 0.797775 0.000000 -0.602955
vt 0.090610817 0.846391082
v 1.934731 0.338239 3.979910
vn 0.797775 0.000000 -0.602955
vt 0.101910122 0.852984071
vn 0.797775 0.000000 -0.602955
vt 0.102088414 0.867452919
vn 0.797775 0.000000 -0.602955
vt 0.090610817 0.846391082
vn 0.797775 0.000000 -0.602955
vt 0.102088414 0.867452919
vn 0.797775 0.000000 -0.602955
vt 0.090659924 0.873754859
vn -1.000000 0.000000 0.000000
vt 0.036899194 0.709450006
vn -1.000000 0.000000 0.000000
vt 0.036906768 0.718627751
vn -1.000000 0.000000 0.000000
vt 0.000210411 0.718627751
vn -1.000000 0.000000 0.000000
vt 0.036899194 0.709450006
vn -1.000000 0.000000 0.000000
vt 0.000210411 0.718627751
vn -1.000000 0.000000 0.000000
vt 0.000206739 0.709450006
vn 1.000000 0.000000 0.000000
vt 0.000205592 0.709450006
vn 1.000000 0.000000 0.000000
vt 0.000209034 0.718627751
vn 1.000000 0.000000 0.000000
vt 0.036905389 0.718627751
vn 1.000000 0.000000 0.000000
vt 0.000205592 0.709450006
vn 1.000000 0.000000 0.000000
vt 0.036905389 0.718627751
vn 1.000000 0.000000 0.000000
vt 0.036898278 0.709450006
vn -0.000000 1.000000 0.000000
vt 0.031226596 0.740784347
vn -0.000000 1.000000 0.000000
vt 0.035941217 0.740784347
vn -0.000000 1.000000 0.000000
vt 0.035941217 0.747845709
vn -0.000000 1.000000 0.000000
vt 0.031226596 0.740784347
vn -0.000000 1.000000 0.000000
vt 0.035941217 0.747845709
vn -0.000000 1.000000 0.000000
vt 0.031226367 0.747845709
vn -0.000000 -1.000000 0.000000
vt 0.035896704 0.747845709
vn -0.000000 -1.000000 0.000000
vt 0.031197913 0.747845709
vn -0.000000 -1.000000 0.000000
vt 0.031197684 0.740784347
vn -0.000000 -1.000000 0.000000
vt 0.035896704 0.747845709
vn -0.000000 -1.000000 0.000000
vt 0.031197684 0.740784347
vn -0.000000 -1.000000 0.000000
vt 0.035896473 0.740784347
vn -0.602955 0.000000 -0.797775
vt 0.090610817 0.846391082
vn -0.602955 0.000000 -0.797775
vt 0.101910122 0.852984071
vn -0.602955 0.000000 -0.797775
vt 0.102088414 0.867452919
vn -0.602955 0.000000 -0.797775
vt 0.090610817 0.846391082
vn -0.602955 0.000000 -0.797775
vt 0.102088414 0.867452919
vn -0.602955 0.000000 -0.797775
vt 0.090660155 0.873754859
vn -0.000000 -1.000000 0.000000
vt 0.031196766 0.740784347
vn -0.000000 -1.000000 0.000000
vt 0.035897393 0.740784347
vn -0.000000 -1.000000 0.000000
vt 0.035897620 0.747845709
vn -0.000000 -1.000000 0.000000
vt 0.031196766 0.740784347
vn -0.000000 -1.000000 0.000000
vt 0.035897620 0.747845709
vn -0.000000 -1.000000 0.000000
vt 0.031196997 0.747845709
vn -0.361639 0.932318 0.000000
vt 0.015865240 0.559956789
vn -0.361639 0.932318 0.000000
vt 0.016111445 0.621053517
vn -0.361639 0.932318 0.000000
vt 0.002986822 0.576183856
vn 1.000000 0.000000 0.000000
vt 0.036899425 0.718627751
vn 1.000000 0.000000 0.000000
vt 0.036906537 0.709450006
vn 1.000000 0.000000 0.000000
vt 0.000210411 0.709450006
vn 1.000000 0.000000 0.000000
vt 0.036899425 0.718627751
vn 1.000000 0.000000 0.000000
vt 0.000210411 0.709450006
vn 1.000000 0.000000 0.000000
vt 0.000206969 0.718627751
vn -0.598750 -0.000000 0.800936
vt 0.105382018 0.846628129
vn -0.598750 -0.000000 0.800936
vt 0.116505101 0.853265047
vn -0.598750 -0.000000 0.800936
vt 0.116385780 0.867026925
vn -0.598750 -0.000000 0.800936
vt 0.105382018 0.846628129
vn -0.598750 -0.000000 0.800936
vt 0.116385780 0.867026925
vn -0.598750 -0.000000 0.800936
vt 0.105823033 0.873412728
vn 0.598750 0.000000 -0.800936
vt 0.105382018 0.846628129
vn 0.598750 0.000000 -0.800936
vt 0.116505332 0.853265047
vn 0.598750 0.000000 -0.800936
vt 0.116385780 0.867026925
vn 0.598750 0.000000 -0.800936
vt 0.105382018 0.846628129
vn 0.598750 0.000000 -0.800936
vt 0.116385780 0.867026925
vn 0.598750 0.000000 -0.800936
vt 0.105823256 0.873412728
vn -0.800936 0.000000 -0.598750
vt 0.105382018 0.846628129
vn -0.800936 0.000000 -0.598750
vt 0.116505332 0.853265047
vn -0.800936 0.000000 -0.598750
vt 0.116385780 0.867026925
vn -0.800936 0.000000 -0.598750
vt 0.105382018 0.846628129
vn -0.800936 0.000000 -0.598750
vt 0.116385780 0.867026925
vn -0.800936 0.000000 -0.598750
vt 0.105823033 0.873412728
vn -1.000000 0.000000 0.000000
vt 0.000205592 0.718627751
vn -1.000000 0.000000 0.000000
vt 0.000209263 0.709450006
vn -1.000000 0.000000 0.000000
vt 0.036905389 0.709450006
vn -1.000000 0.000000 0.000000
vt 0.000205592 0.718627751
vn -1.000000 0.000000 0.000000
vt 0.036905389 0.709450006
vn -1.000000 0.000000 0.000000
vt 0.036898278 0.718627751
vn 0.000000 0.932318 0.361639
vt 0.015987540 0.559969306
vn 0.000000 0.932318 0.361639
vt 0.016050410 0.621066391
vn 0.000000 0.932318 0.361639
vt 0.003048087 0.576164722
vn -0.000000 0.000000 1.000000
vt 0.036899425 0.709450006
vn -0.000000 0.000000 1.000000
vt 0.036906537 0.718627751
vn -0.000000 0.000000 1.000000
vt 0.000210640 0.718627751
vn -0.000000 0.000000 1.000000
vt 0.036899425 0.709450006
vn -0.000000 0.000000 1.000000
vt 0.000210640 0.718627751
vn -0.000000 0.000000 1.000000
vt 0.000206969 0.709450006
vn -0.000000 -1.000000 0.000000
vt 0.035896704 0.747845709
vn -0.000000 -1.000000 0.000000
vt 0.031197684 0.747845709
vn -0.000000 -1.000000 0.000000
vt 0.031197684 0.740784347
vn -0.000000 -1.000000 0.000000
vt 0.035896704 0.747845709
vn -0.000000 -1.000000 0.000000
vt 0.031197684 0.740784347
vn -0.000000 -1.000000 0.000000
vt 0.035896704 0.740784347
s off
f 1/1/1 2/2/2 3/3/3
f 4/4/4 5/5/5 6/6/6
f 34/61/61 35/62/62 36/63/63
f 9/88/88 12/89/89 11/90/90
f 14/91/91 13/92/92 8/93/93
f 29/214/214 28/215/215 23/216/216
f 24/259/259 27/260/260 26/261/261
f 31/292/292 57/293/293 32/294/294
s 1
f 7/7/7 8/8/8 9/9/9
f 7/10/10 9/11/11 10/12/12
s 2
f 11/13/13 12/14/14 13/15/15
f 11/16/16 13/17/17 14/18/18
s 3
f 15/19/19 10/20/20 16/21/21
f 15/22/22 16/23/23 17/24/24
f 15/25/25 17/26/26 18/27/27
f 15/28/28 18/29/29 19/30/30
f 20/31/31 21/32/32 22/33/33
f 20/34/34 22/35/35 18/36/36
f 20/37/37 18/38/38 17/39/39
f 20/40/40 17/41/41 16/42/42
f 19/70/70 1/71/71 3/72/72
f 19/73/73 3/74/74 15/75/75
f 10/241/241 9/242/242 11/243/243
f 10/244/244 11/245/245 16/246/246
f 22/253/253 29/254/254 23/255/255
f 22/256/256 23/257/257 18/258/258
f 20/301/301 34/302/302 36/303/303
f 20/304/304 36/305/305 21/306/306
s 4
f 18/43/43 23/44/44 24/45/45
f 18/46/46 24/47/47 25/48/48
s 5
f 26/49/49 27/50/50 28/51/51
f 26/52/52 28/53/53 29/54/54
s 6
f 30/55/55 31/56/56 32/57/57
f 30/58/58 32/59/59 33/60/60
s 7
f 37/64/64 4/65/65 6/66/66
f 37/67/67 6/68/68 38/69/69
s 8
f 6/76/76 5/77/77 2/78/78
f 6/79/79 2/80/80 1/81/81
s 9
f 16/82/82 11/83/83 14/84/84
f 16/85/85 14/86/86 39/87/87
s 10
f 19/94/94 40/95/95 41/96/96
f 19/97/97 41/98/98 15/99/99
f 15/100/100 41/101/101 42/102/102
f 15/103/103 42/104/104 10/105/105
f 10/106/106 42/107/107 43/108/108
f 10/109/109 43/110/110 16/111/111
f 16/112/112 43/113/113 44/114/114
f 16/115/115 44/116/116 20/117/117
f 20/118/118 44/119/119 45/120/120
f 20/121/121 45/122/122 21/123/123
f 21/124/124 45/125/125 46/126/126
f 21/127/127 46/128/128 22/129/129
f 22/130/130 46/131/131 47/132/132
f 22/133/133 47/134/134 18/135/135
f 18/136/136 47/137/137 40/138/138
f 18/139/139 40/140/140 19/141/141
f 41/142/142 48/143/143 49/144/144
f 41/145/145 49/146/146 42/147/147
f 40/148/148 50/149/149 48/150/150
f 40/151/151 48/152/152 41/153/153
f 47/154/154 51/155/155 50/156/156
f 47/157/157 50/158/158 40/159/159
f 46/160/160 52/161/161 51/162/162
f 46/163/163 51/164/164 47/165/165
f 45/166/166 53/167/167 52/168/168
f 45/169/169 52/170/170 46/171/171
f 44/172/172 54/173/173 53/174/174
f 44/175/175 53/176/176 45/177/177
f 43/178/178 55/179/179 54/180/180
f 43/181/181 54/182/182 44/183/183
f 42/184/184 49/185/185 55/186/186
f 42/187/187 55/188/188 43/189/189
f 50/190/190 54/191/191 55/192/192
f 50/193/193 55/194/194 49/195/195
f 50/196/196 49/197/197 48/198/198
f 51/199/199 52/200/200 53/201/201
f 51/202/202 53/203/203 54/204/204
f 51/205/205 54/206/206 50/207/207
s 11
f 25/208/208 24/209/209 26/210/210
f 25/211/211 26/212/212 56/213/213
s 12
f 32/217/217 57/218/218 35/219/219
f 32/220/220 35/221/221 34/222/222
s 13
f 38/223/223 6/224/224 1/225/225
f 38/226/226 1/227/227 19/228/228
s 14
f 15/229/229 3/230/230 4/231/231
f 15/232/232 4/233/233 37/234/234
s 15
f 39/235/235 14/236/236 8/237/237
f 39/238/238 8/239/239 7/240/240
s 16
f 8/247/247 13/248/248 12/249/249
f 8/250/250 12/251/251 9/252/252
s 17
f 33/262/262 32/263/263 34/264/264
f 33/265/265 34/266/266 20/267/267
s 18
f 36/268/268 35/269/269 57/270/270
f 36/271/271 57/272/272 31/273/273
s 19
f 3/274/274 2/275/275 5/276/276
f 3/277/277 5/278/278 4/279/279
s 20
f 23/280/280 28/281/281 27/282/282
f 23/283/283 27/284/284 24/285/285
s 21
f 21/286/286 36/287/287 31/288/288
f 21/289/289 31/290/290 30/291/291
s 22
f 56/295/295 26/296/296 29/297/297
f 56/298/298 29/299/299 22/300/300
