# Spring Unit export, Created by Beherith mysterme@gmail.com with the help of Muon 
# arguments of an object 'o' piecename:
# Mxyz = midpoint of an s3o
# r = unit radius
# h = height
#			 t1 t2 = textures 1 and 2
# Oxyz = piece offset
# p = parent
o empty_root_piece,ox=0.00,oy=0.00,oz=0.00,p=,mx=0.00,my=0.00,mz=0.00,r=2.00,h=4.00,t1=cor_color.dds,t2=cor_other.dds
v 0.230627 0.972693 -1.411347
vn -0.000000 -1.000000 0.000000
vt 0.176727980 0.150141984
v 0.230627 0.972693 3.983948
vn -0.000000 -1.000000 -0.000000
vt 0.176697925 0.195040241
v -0.347487 0.972693 3.983948
vn -0.000000 -1.000000 -0.000000
vt 0.171876147 0.195040241
vn -0.000000 -1.000000 0.000000
vt 0.176727980 0.150141984
vn -0.000000 -1.000000 -0.000000
vt 0.171876147 0.195040241
v -0.347487 0.972693 -1.411347
vn -0.000000 -1.000000 0.000000
vt 0.171906203 0.150141984
vn -0.000000 -1.000000 -0.000000
vt 0.186585620 0.146973446
vn -0.000000 -1.000000 -0.000000
vt 0.191346362 0.146973446
v -0.058430 0.972693 9.379245
vn -0.000000 -1.000000 -0.000000
vt 0.188965991 0.191871703
v 0.664212 1.750882 0.816695
vn 0.000000 0.000000 -1.000000
vt 0.136627421 0.582608581
v 1.686181 0.728913 0.816695
vn 0.000000 0.000000 -1.000000
vt 0.124849476 0.570855260
v 1.686181 -0.716370 0.816695
vn 0.000000 0.000000 -1.000000
vt 0.124842592 0.554233611
vn 0.000000 0.000000 -1.000000
vt 0.136627421 0.582608581
vn 0.000000 0.000000 -1.000000
vt 0.124842592 0.554233611
v 0.664212 -1.738340 0.816695
vn 0.000000 0.000000 -1.000000
vt 0.136620998 0.542480290
vn 0.000000 0.000000 -1.000000
vt 0.136627421 0.582608581
vn 0.000000 0.000000 -1.000000
vt 0.136620998 0.542480290
v -0.781072 -1.738340 0.816695
vn 0.000000 0.000000 -1.000000
vt 0.153222337 0.542480290
vn 0.000000 0.000000 -1.000000
vt 0.136627421 0.582608581
vn 0.000000 0.000000 -1.000000
vt 0.153222337 0.542480290
v -1.803041 -0.716370 0.816695
vn 0.000000 0.000000 -1.000000
vt 0.164942697 0.554233611
vn 0.000000 0.000000 -1.000000
vt 0.136627421 0.582608581
vn 0.000000 0.000000 -1.000000
vt 0.164942697 0.554233611
v -1.803041 0.728913 0.816695
vn 0.000000 0.000000 -1.000000
vt 0.164949581 0.570855260
vn 0.000000 0.000000 -1.000000
vt 0.136627421 0.582608581
vn 0.000000 0.000000 -1.000000
vt 0.164949581 0.570855260
v -0.781072 1.750882 0.816695
vn 0.000000 0.000000 -1.000000
vt 0.153228983 0.582608581
v 0.230627 -0.995834 -1.411347
vn 0.000000 0.000000 -1.000000
vt 0.380916059 0.281467080
v -0.058430 -3.693482 -1.411347
vn 0.000000 0.000000 -1.000000
vt 0.383346677 0.259017944
v -0.347487 -0.995834 -1.411347
vn 0.000000 0.000000 -1.000000
vt 0.385737836 0.281467080
v 0.925834 -0.300627 -1.411347
vn 0.106541 -0.994308 0.000000
vt 0.446082324 0.765031099
v 3.623482 -0.011570 -1.411347
vn 0.106541 -0.994308 0.000000
vt 0.432720214 0.765031099
v 3.623482 -0.011570 3.983948
vn 0.106504 -0.993956 0.026607
vt 0.432709873 0.791610837
vn 0.106541 -0.994308 0.000000
vt 0.446082324 0.765031099
vn 0.106504 -0.993956 0.026607
vt 0.432709873 0.791610837
v 0.925834 -0.300627 3.983948
vn 0.106504 -0.993956 0.026607
vt 0.446046054 0.791610837
v 0.925834 -0.011570 9.379245
vn 0.106391 -0.992900 0.053195
vt 0.445923984 0.812473178
vn 0.106504 -0.993956 0.026607
vt 0.446046054 0.791610837
vn 0.106504 -0.993956 0.026607
vt 0.432709873 0.791610837
v -1.042694 -0.300627 -1.411347
vn 0.000000 0.000000 -1.000000
vt 0.372127682 0.267837048
v -3.740342 -0.011570 -1.411347
vn 0.000000 0.000000 -1.000000
vt 0.394528270 0.270242512
v -1.042694 0.277486 -1.411347
vn 0.000000 0.000000 -1.000000
vt 0.372128129 0.272647947
v -0.058430 3.670341 3.983948
vn -0.993956 0.106504 0.026607
vt 0.432728946 0.791707516
vn -0.993956 0.106504 0.026607
vt 0.446046054 0.791631281
vn -0.992900 0.106391 0.053195
vt 0.446046054 0.812494040
vn -0.993956 0.106504 0.026607
vt 0.446046054 0.791631281
vn -0.993956 0.106504 0.026607
vt 0.432728946 0.791707516
v -0.058430 3.670341 -1.411347
vn -0.994308 0.106541 0.000000
vt 0.432549030 0.765128136
vn -0.993956 0.106504 0.026607
vt 0.446046054 0.791631281
vn -0.994308 0.106541 0.000000
vt 0.432549030 0.765128136
vn -0.994308 0.106541 0.000000
vt 0.445908397 0.765051961
vn 0.382683 0.923880 -0.000000
vt 0.050219543 0.771443248
v 0.664212 1.750882 16.794453
vn 0.379914 0.917193 0.120094
vt 0.109312586 0.771443248
v 1.686181 0.728913 16.794453
vn 0.917193 0.379914 0.120094
vt 0.109312586 0.767370582
vn 0.382683 0.923880 -0.000000
vt 0.050219543 0.771443248
vn 0.917193 0.379914 0.120094
vt 0.109312586 0.767370582
vn 0.923880 0.382683 -0.000000
vt 0.050222065 0.767370582
vn -0.382683 0.923880 -0.000000
vt 0.050214037 0.775515914
v -0.781072 1.750882 16.794453
vn -0.379914 0.917193 0.120094
vt 0.109312586 0.775515914
vn 0.379914 0.917193 0.120094
vt 0.109312586 0.771443248
vn -0.382683 0.923880 -0.000000
vt 0.050214037 0.775515914
vn 0.379914 0.917193 0.120094
vt 0.109312586 0.771443248
vn 0.382683 0.923880 -0.000000
vt 0.050219543 0.771443248
vn -0.923880 0.382683 -0.000000
vt 0.050219543 0.779588521
v -1.803041 0.728913 16.794453
vn -0.917193 0.379914 0.120094
vt 0.109309837 0.779588521
vn -0.379914 0.917193 0.120094
vt 0.109312586 0.775515914
vn -0.923880 0.382683 -0.000000
vt 0.050219543 0.779588521
vn -0.379914 0.917193 0.120094
vt 0.109312586 0.775515914
vn -0.382683 0.923880 -0.000000
vt 0.050214037 0.775515914
vn -0.923880 -0.382683 0.000000
vt 0.050200269 0.783661187
v -1.803041 -0.716370 16.794453
vn -0.917193 -0.379914 0.120094
vt 0.109302260 0.783661187
vn -0.917193 0.379914 0.120094
vt 0.109309837 0.779588521
vn -0.923880 -0.382683 0.000000
vt 0.050200269 0.783661187
vn -0.917193 0.379914 0.120094
vt 0.109309837 0.779588521
vn -0.923880 0.382683 -0.000000
vt 0.050219543 0.779588521
vn -0.382683 -0.923880 0.000000
vt 0.050197516 0.771443248
v -0.781072 -1.738340 16.794453
vn -0.379914 -0.917193 0.120094
vt 0.109274268 0.771443248
vn -0.917193 -0.379914 0.120094
vt 0.109287575 0.767370582
vn -0.382683 -0.923880 0.000000
vt 0.050197516 0.771443248
vn -0.917193 -0.379914 0.120094
vt 0.109287575 0.767370582
vn -0.923880 -0.382683 0.000000
vt 0.050203022 0.767370582
vn 0.382683 -0.923880 0.000000
vt 0.050192468 0.775515914
v 0.664212 -1.738340 16.794453
vn 0.379914 -0.917193 0.120094
vt 0.109276332 0.775515914
vn -0.379914 -0.917193 0.120094
vt 0.109274268 0.771443248
vn 0.382683 -0.923880 0.000000
vt 0.050192468 0.775515914
vn -0.379914 -0.917193 0.120094
vt 0.109274268 0.771443248
vn -0.382683 -0.923880 0.000000
vt 0.050197516 0.771443248
vn 0.923880 -0.382683 0.000000
vt 0.050202105 0.779588521
v 1.686181 -0.716370 16.794453
vn 0.917193 -0.379914 0.120094
vt 0.109297447 0.779588521
vn 0.379914 -0.917193 0.120094
vt 0.109276332 0.775515914
vn 0.923880 -0.382683 0.000000
vt 0.050202105 0.779588521
vn 0.379914 -0.917193 0.120094
vt 0.109276332 0.775515914
vn 0.382683 -0.923880 0.000000
vt 0.050192468 0.775515914
vn 0.923880 0.382683 -0.000000
vt 0.050209448 0.783661187
vn 0.917193 0.379914 0.120094
vt 0.109305248 0.783661187
vn 0.917193 -0.379914 0.120094
vt 0.109297447 0.779588521
vn 0.923880 0.382683 -0.000000
vt 0.050209448 0.783661187
vn 0.917193 -0.379914 0.120094
vt 0.109297447 0.779588521
vn 0.923880 -0.382683 0.000000
vt 0.050202105 0.779588521
vn 0.379914 0.917193 0.120094
vt 0.127928317 0.513503313
v -0.058430 0.006271 24.502018
vn -0.000000 -0.000000 1.000000
vt 0.158688188 0.510672569
vn 0.917193 0.379914 0.120094
vt 0.127928317 0.507874906
vn -0.379914 0.917193 0.120094
vt 0.127928317 0.507867813
vn -0.000000 -0.000000 1.000000
vt 0.158688188 0.510681987
vn 0.379914 0.917193 0.120094
vt 0.127928317 0.513496161
vn -0.917193 0.379914 0.120094
vt 0.127928317 0.513503313
vn -0.000000 -0.000000 1.000000
vt 0.158688188 0.510672569
vn -0.379914 0.917193 0.120094
vt 0.127928317 0.507874906
vn -0.917193 -0.379914 0.120094
vt 0.127918214 0.507867813
vn -0.000000 -0.000000 1.000000
vt 0.158688188 0.510681987
vn -0.917193 0.379914 0.120094
vt 0.127921194 0.513496161
vn -0.379914 -0.917193 0.120094
vt 0.127898023 0.507874906
vn -0.000000 -0.000000 1.000000
vt 0.158688188 0.510672569
vn -0.917193 -0.379914 0.120094
vt 0.127904221 0.513503313
vn 0.379914 -0.917193 0.120094
vt 0.127891138 0.507867813
vn -0.000000 -0.000000 1.000000
vt 0.158688188 0.510681987
vn -0.379914 -0.917193 0.120094
vt 0.127891138 0.513496161
vn 0.917193 -0.379914 0.120094
vt 0.127904221 0.507874906
vn -0.000000 -0.000000 1.000000
vt 0.158688188 0.510672569
vn 0.379914 -0.917193 0.120094
vt 0.127898023 0.513503313
vn 0.917193 0.379914 0.120094
vt 0.127921432 0.507867813
vn -0.000000 -0.000000 1.000000
vt 0.158688188 0.510681987
vn 0.917193 -0.379914 0.120094
vt 0.127918437 0.513496161
vn -0.994308 -0.106541 0.000000
vt 0.446083933 0.765031099
vn -0.994308 -0.106541 0.000000
vt 0.432711273 0.765031099
v -0.058430 -3.693482 3.983948
vn -0.993956 -0.106504 0.026607
vt 0.432702094 0.791610837
vn -0.994308 -0.106541 0.000000
vt 0.446083933 0.765031099
vn -0.993956 -0.106504 0.026607
vt 0.432702094 0.791610837
v -0.347487 -0.995834 3.983948
vn -0.993956 -0.106504 0.026607
vt 0.446046054 0.791610837
v -0.058430 -0.995834 9.379245
vn -0.992900 -0.106391 0.053195
vt 0.445923984 0.812473178
vn -0.993956 -0.106504 0.026607
vt 0.446046054 0.791610837
vn -0.993956 -0.106504 0.026607
vt 0.432702094 0.791610837
vn -1.000000 0.000000 0.000000
vt 0.176733032 0.150141984
vn -1.000000 0.000000 0.000000
vt 0.176697925 0.195040241
v 0.925834 0.277486 3.983948
vn -1.000000 0.000000 0.000000
vt 0.171876147 0.195040241
vn -1.000000 0.000000 0.000000
vt 0.176733032 0.150141984
vn -1.000000 0.000000 0.000000
vt 0.171876147 0.195040241
v 0.925834 0.277486 -1.411347
vn -1.000000 0.000000 0.000000
vt 0.171911478 0.150141984
vn -1.000000 0.000000 0.000000
vt 0.186585620 0.146973446
vn -1.000000 0.000000 0.000000
vt 0.191346362 0.146973446
vn -1.000000 0.000000 0.000000
vt 0.188965991 0.191871703
v -3.740342 -0.011570 3.983948
vn -0.106504 -0.993956 0.026607
vt 0.432709873 0.791707516
v -1.042694 -0.300627 3.983948
vn -0.106504 -0.993956 0.026607
vt 0.446046054 0.791631281
v -1.042694 -0.011570 9.379245
vn -0.106391 -0.992900 0.053195
vt 0.446046054 0.812494040
vn -0.106504 -0.993956 0.026607
vt 0.446046054 0.791631281
vn -0.106504 -0.993956 0.026607
vt 0.432709873 0.791707516
vn -0.106541 -0.994308 0.000000
vt 0.432537109 0.765128136
vn -0.106504 -0.993956 0.026607
vt 0.446046054 0.791631281
vn -0.106541 -0.994308 0.000000
vt 0.432537109 0.765128136
vn -0.106541 -0.994308 0.000000
vt 0.445899218 0.765051961
vn 0.994308 0.106541 -0.000000
vt 0.446091741 0.765031099
vn 0.994308 0.106541 -0.000000
vt 0.432732135 0.765031099
vn 0.993956 0.106504 0.026607
vt 0.432728946 0.791610837
vn 0.994308 0.106541 -0.000000
vt 0.446091741 0.765031099
vn 0.993956 0.106504 0.026607
vt 0.432728946 0.791610837
vn 0.993956 0.106504 0.026607
vt 0.446046054 0.791610837
vn 0.992900 0.106391 0.053195
vt 0.445923984 0.812473178
vn 0.993956 0.106504 0.026607
vt 0.446046054 0.791610837
vn 0.993956 0.106504 0.026607
vt 0.432728946 0.791610837
vn 0.993956 -0.106504 0.026607
vt 0.432701856 0.791707516
v 0.230627 -0.995834 3.983948
vn 0.993956 -0.106504 0.026607
vt 0.446046054 0.791631281
vn 0.992900 -0.106391 0.053195
vt 0.446046054 0.812494040
vn 0.993956 -0.106504 0.026607
vt 0.446046054 0.791631281
vn 0.993956 -0.106504 0.026607
vt 0.432701856 0.791707516
vn 0.994308 -0.106541 0.000000
vt 0.432527930 0.765128136
vn 0.993956 -0.106504 0.026607
vt 0.446046054 0.791631281
vn 0.994308 -0.106541 0.000000
vt 0.432527930 0.765128136
vn 0.994308 -0.106541 0.000000
vt 0.445900828 0.765051961
vn 0.106504 0.993956 0.026607
vt 0.432728946 0.791707516
vn 0.106504 0.993956 0.026607
vt 0.446046054 0.791631281
vn 0.106391 0.992900 0.053195
vt 0.446046054 0.812494040
vn 0.106504 0.993956 0.026607
vt 0.446046054 0.791631281
vn 0.106504 0.993956 0.026607
vt 0.432728946 0.791707516
vn 0.106541 0.994308 -0.000000
vt 0.432549506 0.765128136
vn 0.106504 0.993956 0.026607
vt 0.446046054 0.791631281
vn 0.106541 0.994308 -0.000000
vt 0.432549506 0.765128136
vn 0.106541 0.994308 -0.000000
vt 0.445911378 0.765051961
vn 1.000000 0.000000 0.000000
vt 0.176733255 0.150141984
v -1.042694 0.277486 3.983948
vn 1.000000 0.000000 0.000000
vt 0.176697925 0.195040241
vn 1.000000 0.000000 0.000000
vt 0.171876147 0.195040241
vn 1.000000 0.000000 0.000000
vt 0.176733255 0.150141984
vn 1.000000 0.000000 0.000000
vt 0.171876147 0.195040241
vn 1.000000 0.000000 0.000000
vt 0.171911255 0.150141984
vn 1.000000 0.000000 0.000000
vt 0.186585620 0.146973446
vn 1.000000 0.000000 0.000000
vt 0.191346362 0.146973446
vn 1.000000 0.000000 0.000000
vt 0.188965991 0.191871703
vn -0.000000 0.000000 -1.000000
vt 0.385739446 0.259017944
vn -0.000000 0.000000 -1.000000
vt 0.383359969 0.281467080
vn -0.000000 0.000000 -1.000000
vt 0.380917668 0.259017944
vn 0.000000 1.000000 -0.000000
vt 0.176736474 0.150141984
vn 0.000000 1.000000 -0.000000
vt 0.176697925 0.195040241
vn 0.000000 1.000000 -0.000000
vt 0.171876147 0.195040241
vn 0.000000 1.000000 -0.000000
vt 0.176736474 0.150141984
vn 0.000000 1.000000 -0.000000
vt 0.171876147 0.195040241
vn 0.000000 1.000000 -0.000000
vt 0.171914473 0.150141984
vn 0.000000 1.000000 -0.000000
vt 0.186585620 0.146973446
vn 0.000000 1.000000 -0.000000
vt 0.191346362 0.146973446
vn 0.000000 1.000000 -0.000000
vt 0.188965991 0.191871703
vn -0.000000 0.000000 -1.000000
vt 0.394528031 0.272647947
vn -0.000000 0.000000 -1.000000
vt 0.372128606 0.270242512
vn -0.000000 0.000000 -1.000000
vt 0.394527584 0.267837048
vn -0.106541 0.994308 -0.000000
vt 0.446094483 0.765031099
vn -0.106541 0.994308 -0.000000
vt 0.432732612 0.765031099
vn -0.106504 0.993956 0.026607
vt 0.432728946 0.791610837
vn -0.106541 0.994308 -0.000000
vt 0.446094483 0.765031099
vn -0.106504 0.993956 0.026607
vt 0.432728946 0.791610837
vn -0.106504 0.993956 0.026607
vt 0.446046054 0.791610837
vn -0.106391 0.992900 0.053195
vt 0.445923984 0.812473178
vn -0.106504 0.993956 0.026607
vt 0.446046054 0.791610837
vn -0.106504 0.993956 0.026607
vt 0.432728946 0.791610837
s off
f 14/28/28 15/29/29 16/30/30
f 22/40/40 23/41/41 24/42/42
f 4/187/187 26/188/188 1/189/189
f 40/199/199 18/200/200 17/201/201
s 1
f 1/1/1 2/2/2 3/3/3
f 1/4/4 3/5/5 4/6/6
f 3/7/7 2/8/8 5/9/9
s 2
f 6/10/10 7/11/11 8/12/12
f 6/13/13 8/14/14 9/15/15
f 6/16/16 9/17/17 10/18/18
f 6/19/19 10/20/20 11/21/21
f 6/22/22 11/23/23 12/24/24
f 6/25/25 12/26/26 13/27/27
s 3
f 17/31/31 18/32/32 19/33/33
f 17/34/34 19/35/35 20/36/36
f 21/37/37 20/38/38 19/39/39
s 4
f 25/43/43 3/44/44 5/45/45
f 3/46/46 25/47/47 26/48/48
f 3/49/49 26/50/50 4/51/51
s 5
f 6/52/52 27/53/53 28/54/54
f 6/55/55 28/56/56 7/57/57
f 13/58/58 29/59/59 27/60/60
f 13/61/61 27/62/62 6/63/63
f 12/64/64 30/65/65 29/66/66
f 12/67/67 29/68/68 13/69/69
f 11/70/70 31/71/71 30/72/72
f 11/73/73 30/74/74 12/75/75
f 10/76/76 32/77/77 31/78/78
f 10/79/79 31/80/80 11/81/81
f 9/82/82 33/83/83 32/84/84
f 9/85/85 32/86/86 10/87/87
f 8/88/88 34/89/89 33/90/90
f 8/91/91 33/92/92 9/93/93
f 7/94/94 28/95/95 34/96/96
f 7/97/97 34/98/98 8/99/99
f 27/100/100 35/101/101 28/102/102
f 29/103/103 35/104/104 27/105/105
f 30/106/106 35/107/107 29/108/108
f 31/109/109 35/110/110 30/111/111
f 32/112/112 35/113/113 31/114/114
f 33/115/115 35/116/116 32/117/117
f 34/118/118 35/119/119 33/120/120
f 28/121/121 35/122/122 34/123/123
s 6
f 16/124/124 15/125/125 36/126/126
f 16/127/127 36/128/128 37/129/129
f 38/130/130 37/131/131 36/132/132
s 7
f 17/133/133 20/134/134 39/135/135
f 17/136/136 39/137/137 40/138/138
f 39/139/139 20/140/140 21/141/141
s 8
f 41/142/142 42/143/143 43/144/144
f 42/145/145 41/146/146 23/147/147
f 42/148/148 23/149/149 22/150/150
s 9
f 1/151/151 26/152/152 25/153/153
f 1/154/154 25/155/155 2/156/156
f 5/157/157 2/158/158 25/159/159
s 10
f 36/160/160 44/161/161 38/162/162
f 44/163/163 36/164/164 15/165/165
f 44/166/166 15/167/167 14/168/168
s 11
f 19/169/169 39/170/170 21/171/171
f 39/172/172 19/173/173 18/174/174
f 39/175/175 18/176/176 40/177/177
s 12
f 24/178/178 45/179/179 42/180/180
f 24/181/181 42/182/182 22/183/183
f 42/184/184 45/185/185 43/186/186
s 13
f 16/190/190 37/191/191 44/192/192
f 16/193/193 44/194/194 14/195/195
f 44/196/196 37/197/197 38/198/198
s 14
f 24/202/202 23/203/203 41/204/204
f 24/205/205 41/206/206 45/207/207
f 43/208/208 45/209/209 41/210/210
