# Spring Unit export, Created by Beherith mysterme@gmail.com with the help of Muon 
# arguments of an object 'o' piecename:
# Mxyz = midpoint of an s3o
# r = unit radius
# h = height
#			 t1 t2 = textures 1 and 2
# Oxyz = piece offset
# p = parent
o empty_root_piece,ox=0.00,oy=0.00,oz=0.00,p=,mx=0.00,my=0.00,mz=0.00,r=4.00,h=8.00,t1=cor_color.dds,t2=cor_other.dds
v -0.654193 2.851307 12.062261
vn 0.000000 -1.000000 0.000000
vt 0.130311206 0.182420924
v -0.654193 2.851307 0.127602
vn 0.000000 -1.000000 0.000000
vt 0.130333915 0.152249292
v 0.779956 2.851307 0.127602
vn 0.000000 -1.000000 0.000000
vt 0.141686693 0.152249292
vn 0.000000 -1.000000 0.000000
vt 0.130311206 0.182420924
vn 0.000000 -1.000000 0.000000
vt 0.141686693 0.152249292
v 0.779956 2.851307 12.062261
vn 0.000000 -1.000000 0.000000
vt 0.141663745 0.182420924
v -0.654193 3.807331 0.127602
vn -0.000000 -1.000000 0.000000
vt 0.331450045 0.961009085
v -0.654193 3.807331 -2.642914
vn -0.000000 -1.000000 0.000000
vt 0.331459671 0.949773550
v 0.779956 3.807331 -2.642914
vn -0.000000 -1.000000 0.000000
vt 0.337257564 0.949773550
vn -0.000000 -1.000000 0.000000
vt 0.331450045 0.961009085
vn -0.000000 -1.000000 0.000000
vt 0.337257564 0.949773550
v 0.779956 3.807331 0.127602
vn -0.000000 -1.000000 0.000000
vt 0.337247908 0.961009085
v -0.654193 3.807331 12.062261
vn -0.880712 0.469342 0.063748
vt 0.140742019 0.182420924
v 0.062882 4.763354 2.995672
vn -0.880712 0.469342 0.063748
vt 0.131333426 0.174878016
v 0.062882 6.740014 0.377282
vn -0.880712 0.469342 0.063748
vt 0.131344214 0.152249292
vn -0.880712 0.469342 0.063748
vt 0.140742019 0.182420924
vn -0.880712 0.469342 0.063748
vt 0.131344214 0.152249292
vn -0.880712 0.469342 0.063748
vt 0.140737429 0.152249292
v 0.062882 7.145030 -2.642914
vn 0.977303 0.209965 0.028157
vt 0.340387553 0.948473155
vn 0.977303 0.209965 0.028157
vt 0.330498248 0.959521830
vn 0.977303 0.209965 0.028157
vt 0.326529592 0.947944999
v -2.788426 0.717074 12.062261
vn -0.000000 0.000000 1.000000
vt 0.139776245 0.172992736
v -3.744449 0.717074 12.062261
vn -0.000000 0.000000 1.000000
vt 0.132237941 0.172992736
v -3.744449 -0.717074 12.062261
vn -0.000000 0.000000 1.000000
vt 0.132233590 0.161677465
vn -0.000000 0.000000 1.000000
vt 0.139776245 0.172992736
vn -0.000000 0.000000 1.000000
vt 0.132233590 0.161677465
v -2.788426 -0.717074 12.062261
vn -0.000000 0.000000 1.000000
vt 0.139776245 0.161677465
v -3.744449 -0.717074 0.127602
vn 1.000000 0.000000 0.000000
vt 0.331445694 0.961009085
v -3.744449 -0.717074 -2.642914
vn 1.000000 0.000000 0.000000
vt 0.331458539 0.949773550
v -3.744449 0.717074 -2.642914
vn 1.000000 0.000000 0.000000
vt 0.337258250 0.949773550
vn 1.000000 0.000000 0.000000
vt 0.331445694 0.961009085
vn 1.000000 0.000000 0.000000
vt 0.337258250 0.949773550
v -3.744449 0.717074 0.127602
vn 1.000000 0.000000 0.000000
vt 0.337249070 0.961009085
vn -0.469342 -0.880712 0.063748
vt 0.140718624 0.182420924
v -4.700472 -0.000000 2.995672
vn -0.469342 -0.880712 0.063748
vt 0.131333664 0.174878016
v -6.677132 -0.000000 0.377282
vn -0.469342 -0.880712 0.063748
vt 0.131330222 0.152249292
vn -0.469342 -0.880712 0.063748
vt 0.140718624 0.182420924
vn -0.469342 -0.880712 0.063748
vt 0.131330222 0.152249292
vn -0.469342 -0.880712 0.063748
vt 0.140721828 0.152249292
vn -0.209965 -0.977303 0.028157
vt 0.342204392 0.947944999
vn -0.209965 -0.977303 0.028157
vt 0.338236630 0.959521830
v -7.082149 -0.000000 -2.642914
vn -0.209965 -0.977303 0.028157
vt 0.328414798 0.948473155
v 1.282396 2.944167 0.385243
vn -0.000000 0.000000 -1.000000
vt 0.136517972 0.584894776
v 3.007049 1.219514 0.385243
vn -0.000000 0.000000 -1.000000
vt 0.122908510 0.571287513
v 3.007049 -1.219514 0.385243
vn -0.000000 0.000000 -1.000000
vt 0.122905068 0.552043855
vn -0.000000 0.000000 -1.000000
vt 0.136517972 0.584894776
vn -0.000000 0.000000 -1.000000
vt 0.122905068 0.552043855
v 1.282396 -2.944167 0.385243
vn -0.000000 0.000000 -1.000000
vt 0.136514530 0.538436532
vn -0.000000 0.000000 -1.000000
vt 0.136517972 0.584894776
vn -0.000000 0.000000 -1.000000
vt 0.136514530 0.538436532
v -1.156632 -2.944167 0.385243
vn -0.000000 0.000000 -1.000000
vt 0.155740380 0.538436532
vn -0.000000 0.000000 -1.000000
vt 0.136517972 0.584894776
vn -0.000000 0.000000 -1.000000
vt 0.155740380 0.538436532
v -2.881286 -1.219514 0.385243
vn -0.000000 0.000000 -1.000000
vt 0.169352591 0.552043855
vn -0.000000 0.000000 -1.000000
vt 0.136517972 0.584894776
vn -0.000000 0.000000 -1.000000
vt 0.169352591 0.552043855
v -2.881286 1.219514 0.385243
vn -0.000000 0.000000 -1.000000
vt 0.169356033 0.571287513
vn -0.000000 0.000000 -1.000000
vt 0.136517972 0.584894776
vn -0.000000 0.000000 -1.000000
vt 0.169356033 0.571287513
v -1.156632 2.944167 0.385243
vn -0.000000 0.000000 -1.000000
vt 0.155743822 0.584894776
v 2.914189 -0.717074 12.062261
vn -0.000000 0.000000 1.000000
vt 0.132207885 0.161677465
v 3.870212 -0.717074 12.062261
vn -0.000000 0.000000 1.000000
vt 0.139801949 0.161677465
v 3.870212 0.717074 12.062261
vn -0.000000 0.000000 1.000000
vt 0.139806300 0.172992736
vn -0.000000 0.000000 1.000000
vt 0.132207885 0.161677465
vn -0.000000 0.000000 1.000000
vt 0.139806300 0.172992736
v 2.914189 0.717074 12.062261
vn -0.000000 0.000000 1.000000
vt 0.132207885 0.172992736
v 2.914189 0.717074 0.127602
vn 0.000000 0.000000 -1.000000
vt 0.139814571 0.172992736
v 3.870212 0.717074 0.127602
vn 0.000000 0.000000 -1.000000
vt 0.132244140 0.172992736
v 3.870212 -0.717074 0.127602
vn 0.000000 0.000000 -1.000000
vt 0.132241383 0.161677465
vn 0.000000 0.000000 -1.000000
vt 0.139814571 0.172992736
vn 0.000000 0.000000 -1.000000
vt 0.132241383 0.161677465
v 2.914189 -0.717074 0.127602
vn 0.000000 0.000000 -1.000000
vt 0.139813870 0.161677465
vn 0.469342 0.880712 0.063748
vt 0.145502537 0.182420924
v 4.826235 -0.000000 2.995672
vn 0.469342 0.880712 0.063748
vt 0.136016622 0.174878016
v 6.802896 -0.000000 0.377282
vn 0.469342 0.880712 0.063748
vt 0.136043921 0.152249292
vn 0.469342 0.880712 0.063748
vt 0.145502537 0.182420924
vn 0.469342 0.880712 0.063748
vt 0.136043921 0.152249292
vn 0.469342 0.880712 0.063748
vt 0.145498857 0.152249292
v 7.207912 -0.000000 -2.642914
vn 0.209965 -0.977303 0.028157
vt 0.340377688 0.948473155
vn 0.209965 -0.977303 0.028157
vt 0.330485165 0.959521830
v 3.870212 -0.717074 -2.642914
vn 0.209965 -0.977303 0.028157
vt 0.326518357 0.947944999
v -0.654193 -2.851307 12.062261
vn 0.000000 0.000000 1.000000
vt 0.130311206 0.171106562
v -0.654193 -3.807331 12.062261
vn 0.000000 0.000000 1.000000
vt 0.130333915 0.163563654
v 0.779956 -3.807331 12.062261
vn 0.000000 0.000000 1.000000
vt 0.141686454 0.163563654
vn 0.000000 0.000000 1.000000
vt 0.130311206 0.171106562
vn 0.000000 0.000000 1.000000
vt 0.141686454 0.163563654
v 0.779956 -2.851307 12.062261
vn 0.000000 0.000000 1.000000
vt 0.141663745 0.171106562
v 0.779956 -2.851307 0.127602
vn -0.000000 0.000000 -1.000000
vt 0.130352974 0.171106562
v 0.779956 -3.807331 0.127602
vn -0.000000 0.000000 -1.000000
vt 0.130346999 0.163563654
v -0.654193 -3.807331 0.127602
vn -0.000000 0.000000 -1.000000
vt 0.141699538 0.163563654
vn -0.000000 0.000000 -1.000000
vt 0.130352974 0.171106562
vn -0.000000 0.000000 -1.000000
vt 0.141699538 0.163563654
v -0.654193 -2.851307 0.127602
vn -0.000000 0.000000 -1.000000
vt 0.141705275 0.171106562
vn -0.971384 -0.237514 0.000000
vt 0.331148773 0.962779641
v -0.654193 -3.807331 -2.642914
vn -0.971384 -0.237514 0.000000
vt 0.331156105 0.951544106
v 0.062882 -6.740014 0.377282
vn -0.971384 -0.237514 0.000000
vt 0.336024910 0.962779641
vn 0.880712 -0.469342 0.063748
vt 0.140714720 0.182420924
v 0.062882 -4.763354 2.995672
vn 0.880712 -0.469342 0.063748
vt 0.131311625 0.174878016
vn 0.880712 -0.469342 0.063748
vt 0.131310478 0.152249292
vn 0.880712 -0.469342 0.063748
vt 0.140714720 0.182420924
vn 0.880712 -0.469342 0.063748
vt 0.131310478 0.152249292
vn 0.880712 -0.469342 0.063748
vt 0.140719533 0.152249292
v 0.779956 -3.807331 -2.642914
vn 0.977303 -0.209965 0.028157
vt 0.342203707 0.947944999
vn 0.977303 -0.209965 0.028157
vt 0.338222414 0.959521830
v 0.062882 -7.145030 -2.642914
vn 0.977303 -0.209965 0.028157
vt 0.328401029 0.948473155
vn -1.000000 0.000000 0.000000
vt 0.139776245 0.182420924
vn -1.000000 0.000000 0.000000
vt 0.132248491 0.182420924
vn -1.000000 0.000000 0.000000
vt 0.132250562 0.152249292
vn -1.000000 0.000000 0.000000
vt 0.139776245 0.182420924
vn -1.000000 0.000000 0.000000
vt 0.132250562 0.152249292
vn -1.000000 0.000000 0.000000
vt 0.139809981 0.152249292
vn 1.000000 0.000000 0.000000
vt 0.132241845 0.152249292
vn 1.000000 0.000000 0.000000
vt 0.139818460 0.152249292
v 0.779956 3.807331 12.062261
vn 1.000000 0.000000 0.000000
vt 0.139816627 0.182420924
vn 1.000000 0.000000 0.000000
vt 0.132241845 0.152249292
vn 1.000000 0.000000 0.000000
vt 0.139816627 0.182420924
vn 1.000000 0.000000 0.000000
vt 0.132208109 0.182420924
vn 0.971384 0.237514 0.000000
vt 0.331166893 0.962779641
vn 0.971384 0.237514 0.000000
vt 0.331168950 0.951544106
vn 0.971384 0.237514 0.000000
vt 0.336053133 0.962779641
vn 0.000000 0.994487 0.104863
vt 0.141721800 0.162001461
vn 0.000000 0.994487 0.104863
vt 0.136019140 0.172668740
vn 0.000000 0.994487 0.104863
vt 0.130369723 0.162001461
vn -0.971384 0.237514 0.000000
vt 0.332696438 0.962779641
vn -0.971384 0.237514 0.000000
vt 0.337577879 0.951544106
vn -0.971384 0.237514 0.000000
vt 0.337575823 0.962779641
vn -0.000000 0.000000 -1.000000
vt 0.337278664 0.946490407
vn -0.000000 0.000000 -1.000000
vt 0.334410250 0.960026085
vn -0.000000 0.000000 -1.000000
vt 0.331480324 0.946490407
vn -0.000000 -1.000000 0.000000
vt 0.139776468 0.182420924
vn -0.000000 -1.000000 0.000000
vt 0.132225096 0.182420924
vn -0.000000 -1.000000 0.000000
vt 0.132235646 0.152249292
vn -0.000000 -1.000000 0.000000
vt 0.139776468 0.182420924
vn -0.000000 -1.000000 0.000000
vt 0.132235646 0.152249292
v -2.788426 -0.717074 0.127602
vn -0.000000 -1.000000 0.000000
vt 0.139801711 0.152249292
v -2.788426 0.717074 0.127602
vn 0.000000 1.000000 -0.000000
vt 0.132243454 0.152249292
vn 0.000000 1.000000 -0.000000
vt 0.139819846 0.152249292
vn 0.000000 1.000000 -0.000000
vt 0.139816403 0.182420924
vn 0.000000 1.000000 -0.000000
vt 0.132243454 0.152249292
vn 0.000000 1.000000 -0.000000
vt 0.139816403 0.182420924
vn 0.000000 1.000000 -0.000000
vt 0.132208109 0.182420924
vn -0.237514 0.971384 -0.000000
vt 0.331167340 0.962779641
vn -0.237514 0.971384 -0.000000
vt 0.331170321 0.951544106
vn -0.237514 0.971384 -0.000000
vt 0.336053610 0.962779641
vn -0.994487 0.000000 0.104863
vt 0.130363062 0.172668740
vn -0.994487 0.000000 0.104863
vt 0.136019140 0.162001461
vn -0.994487 0.000000 0.104863
vt 0.141714454 0.172668740
vn -0.237514 -0.971384 0.000000
vt 0.332682908 0.962779641
vn -0.237514 -0.971384 0.000000
vt 0.337566167 0.951544106
vn -0.237514 -0.971384 0.000000
vt 0.337560207 0.962779641
vn -0.000000 0.000000 -1.000000
vt 0.325498194 0.952483296
vn -0.000000 0.000000 -1.000000
vt 0.339048445 0.955391347
vn -0.000000 0.000000 -1.000000
vt 0.325498432 0.958299339
vn -0.382683 0.923880 -0.000000
vt 0.094338320 0.777294934
v -1.156632 2.944167 20.636871
vn -0.372652 0.899661 0.227466
vt 0.044859234 0.777294934
v 1.282396 2.944167 20.636871
vn 0.372652 0.899661 0.227466
vt 0.044859461 0.783219039
vn -0.382683 0.923880 -0.000000
vt 0.094338320 0.777294934
vn 0.372652 0.899661 0.227466
vt 0.044859461 0.783219039
vn 0.382683 0.923880 -0.000000
vt 0.094347499 0.783219039
vn 0.382683 0.923880 -0.000000
vt 0.094347499 0.783219039
vn 0.372652 0.899661 0.227466
vt 0.044859461 0.783219039
v 3.007049 1.219514 20.636871
vn 0.899661 0.372652 0.227466
vt 0.044859461 0.777294934
vn 0.382683 0.923880 -0.000000
vt 0.094347499 0.783219039
vn 0.899661 0.372652 0.227466
vt 0.044859461 0.777294934
vn 0.923880 0.382683 -0.000000
vt 0.094349340 0.777294934
vn 0.923880 0.382683 -0.000000
vt 0.094338097 0.783219039
vn 0.899661 0.372652 0.227466
vt 0.044853497 0.783219039
v 3.007049 -1.219514 20.636871
vn 0.899661 -0.372652 0.227466
vt 0.044850744 0.777294934
vn 0.923880 0.382683 -0.000000
vt 0.094338097 0.783219039
vn 0.899661 -0.372652 0.227466
vt 0.044850744 0.777294934
vn 0.923880 -0.382683 -0.000000
vt 0.094330981 0.777294934
vn 0.923880 -0.382683 -0.000000
vt 0.094333045 0.783219039
vn 0.899661 -0.372652 0.227466
vt 0.044838812 0.783219039
v 1.282396 -2.944167 20.636871
vn 0.372652 -0.899661 0.227466
vt 0.044832848 0.777294934
vn 0.923880 -0.382683 -0.000000
vt 0.094333045 0.783219039
vn 0.372652 -0.899661 0.227466
vt 0.044832848 0.777294934
vn 0.382683 -0.923880 0.000000
vt 0.094330296 0.777294934
vn 0.382683 -0.923880 0.000000
vt 0.094319053 0.783219039
vn 0.372652 -0.899661 0.227466
vt 0.044827338 0.783219039
v -1.156632 -2.944167 20.636871
vn -0.372652 -0.899661 0.227466
vt 0.044827338 0.777294934
vn 0.382683 -0.923880 0.000000
vt 0.094319053 0.783219039
vn -0.372652 -0.899661 0.227466
vt 0.044827338 0.777294934
vn -0.382683 -0.923880 0.000000
vt 0.094327539 0.777294934
vn -0.382683 -0.923880 0.000000
vt 0.094327539 0.777294934
vn -0.372652 -0.899661 0.227466
vt 0.044827338 0.777294934
v -2.881286 -1.219514 20.636871
vn -0.899661 -0.372652 0.227466
vt 0.044838812 0.783219039
vn -0.382683 -0.923880 0.000000
vt 0.094327539 0.777294934
vn -0.899661 -0.372652 0.227466
vt 0.044838812 0.783219039
vn -0.923880 -0.382683 0.000000
vt 0.094332129 0.783219039
vn -0.923880 -0.382683 0.000000
vt 0.094330296 0.777294934
vn -0.899661 -0.372652 0.227466
vt 0.044850744 0.777294934
v -2.881286 1.219514 20.636871
vn -0.899661 0.372652 0.227466
vt 0.044853266 0.783219039
vn -0.923880 -0.382683 0.000000
vt 0.094330296 0.777294934
vn -0.899661 0.372652 0.227466
vt 0.044853266 0.783219039
vn -0.923880 0.382683 -0.000000
vt 0.094339244 0.783219039
vn -0.923880 0.382683 -0.000000
vt 0.094349571 0.777294934
vn -0.899661 0.372652 0.227466
vt 0.044859461 0.777294934
vn -0.372652 0.899661 0.227466
vt 0.044859234 0.783219039
vn -0.923880 0.382683 -0.000000
vt 0.094349571 0.777294934
vn -0.372652 0.899661 0.227466
vt 0.044859234 0.783219039
vn -0.382683 0.923880 -0.000000
vt 0.094349109 0.783219039
vn 0.372652 0.899661 0.227466
vt 0.392027438 0.160847187
v 0.672639 1.472084 23.888651
vn 0.321948 0.777252 0.540582
vt 0.385191500 0.144337341
v 1.534965 0.609757 23.888651
vn 0.777252 0.321948 0.540582
vt 0.398985207 0.130577132
vn 0.372652 0.899661 0.227466
vt 0.392027438 0.160847187
vn 0.777252 0.321948 0.540582
vt 0.398985207 0.130577132
vn 0.899661 0.372652 0.227466
vt 0.415463567 0.137415737
vn -0.372652 0.899661 0.227466
vt 0.358885348 0.160847187
v -0.546875 1.472084 23.888651
vn -0.321948 0.777252 0.540582
vt 0.365721285 0.144337341
vn 0.321948 0.777252 0.540582
vt 0.385191500 0.144337341
vn -0.372652 0.899661 0.227466
vt 0.358885348 0.160847187
vn 0.321948 0.777252 0.540582
vt 0.385191500 0.144337341
vn 0.372652 0.899661 0.227466
vt 0.392027438 0.160847187
vn -0.899661 0.372652 0.227466
vt 0.335508406 0.137415737
v -1.409202 0.609757 23.888651
vn -0.777252 0.321948 0.540582
vt 0.351986527 0.130577132
vn -0.321948 0.777252 0.540582
vt 0.365721285 0.144337341
vn -0.899661 0.372652 0.227466
vt 0.335508406 0.137415737
vn -0.321948 0.777252 0.540582
vt 0.365721285 0.144337341
vn -0.372652 0.899661 0.227466
vt 0.358885348 0.160847187
vn -0.899661 -0.372652 0.227466
vt 0.335497856 0.104278646
v -1.409202 -0.609757 23.888651
vn -0.777252 -0.321948 0.540582
vt 0.351978034 0.111117251
vn -0.777252 0.321948 0.540582
vt 0.351986527 0.130577132
vn -0.899661 -0.372652 0.227466
vt 0.335497856 0.104278646
vn -0.777252 0.321948 0.540582
vt 0.351986527 0.130577132
vn -0.899661 0.372652 0.227466
vt 0.335508406 0.137415737
vn -0.372652 -0.899661 0.227466
vt 0.358858496 0.080847189
v -0.546875 -1.472084 23.888651
vn -0.321948 -0.777252 0.540582
vt 0.365702927 0.097357035
vn -0.777252 -0.321948 0.540582
vt 0.351978034 0.111117251
vn -0.372652 -0.899661 0.227466
vt 0.358858496 0.080847189
vn -0.777252 -0.321948 0.540582
vt 0.351978034 0.111117251
vn -0.899661 -0.372652 0.227466
vt 0.335497856 0.104278646
vn 0.372652 -0.899661 0.227466
vt 0.391999424 0.080847189
v 0.672639 -1.472084 23.888651
vn 0.321948 -0.777252 0.540582
vt 0.385174960 0.097357035
vn -0.321948 -0.777252 0.540582
vt 0.365702927 0.097357035
vn 0.372652 -0.899661 0.227466
vt 0.391999424 0.080847189
vn -0.321948 -0.777252 0.540582
vt 0.365702927 0.097357035
vn -0.372652 -0.899661 0.227466
vt 0.358858496 0.080847189
vn 0.899661 -0.372652 0.227466
vt 0.415451854 0.104278646
v 1.534965 -0.609757 23.888651
vn 0.777252 -0.321948 0.540582
vt 0.398978561 0.111117251
vn 0.321948 -0.777252 0.540582
vt 0.385174960 0.097357035
vn 0.899661 -0.372652 0.227466
vt 0.415451854 0.104278646
vn 0.321948 -0.777252 0.540582
vt 0.385174960 0.097357035
vn 0.372652 -0.899661 0.227466
vt 0.391999424 0.080847189
vn 0.899661 0.372652 0.227466
vt 0.415463567 0.137415737
vn 0.777252 0.321948 0.540582
vt 0.398985207 0.130577132
vn 0.777252 -0.321948 0.540582
vt 0.398978561 0.111117251
vn 0.899661 0.372652 0.227466
vt 0.415463567 0.137415737
vn 0.777252 -0.321948 0.540582
vt 0.398978561 0.111117251
vn 0.899661 -0.372652 0.227466
vt 0.415451854 0.104278646
vn 0.321948 0.777252 0.540582
vt 0.385191500 0.144337341
v 0.367760 0.736042 24.864183
vn 0.212802 0.513750 0.831130
vt 0.380613863 0.133241117
v 0.798924 0.304879 24.864183
vn 0.513750 0.212802 0.831130
vt 0.387876809 0.125980914
vn 0.321948 0.777252 0.540582
vt 0.385191500 0.144337341
vn 0.513750 0.212802 0.831130
vt 0.387876809 0.125980914
vn 0.777252 0.321948 0.540582
vt 0.398985207 0.130577132
vn -0.321948 0.777252 0.540582
vt 0.365721285 0.144337341
v -0.241997 0.736042 24.864183
vn -0.212802 0.513750 0.831130
vt 0.370359957 0.133241117
vn 0.212802 0.513750 0.831130
vt 0.380613863 0.133241117
vn -0.321948 0.777252 0.540582
vt 0.365721285 0.144337341
vn 0.212802 0.513750 0.831130
vt 0.380613863 0.133241117
vn 0.321948 0.777252 0.540582
vt 0.385191500 0.144337341
vn -0.777252 0.321948 0.540582
vt 0.351986527 0.130577132
v -0.673160 0.304879 24.864183
vn -0.513750 0.212802 0.831130
vt 0.363094926 0.125980914
vn -0.212802 0.513750 0.831130
vt 0.370359957 0.133241117
vn -0.777252 0.321948 0.540582
vt 0.351986527 0.130577132
vn -0.212802 0.513750 0.831130
vt 0.370359957 0.133241117
vn -0.321948 0.777252 0.540582
vt 0.365721285 0.144337341
vn -0.777252 -0.321948 0.540582
vt 0.351978034 0.111117251
v -0.673160 -0.304879 24.864183
vn -0.513750 -0.212802 0.831130
vt 0.363088727 0.115713462
vn -0.513750 0.212802 0.831130
vt 0.363094926 0.125980914
vn -0.777252 -0.321948 0.540582
vt 0.351978034 0.111117251
vn -0.513750 0.212802 0.831130
vt 0.363094926 0.125980914
vn -0.777252 0.321948 0.540582
vt 0.351986527 0.130577132
vn -0.321948 -0.777252 0.540582
vt 0.365702927 0.097357035
v -0.241997 -0.736042 24.864183
vn -0.212802 -0.513750 0.831130
vt 0.370346636 0.108453259
vn -0.513750 -0.212802 0.831130
vt 0.363088727 0.115713462
vn -0.321948 -0.777252 0.540582
vt 0.365702927 0.097357035
vn -0.513750 -0.212802 0.831130
vt 0.363088727 0.115713462
vn -0.777252 -0.321948 0.540582
vt 0.351978034 0.111117251
vn 0.321948 -0.777252 0.540582
vt 0.385174960 0.097357035
v 0.367760 -0.736042 24.864183
vn 0.212802 -0.513750 0.831130
vt 0.380602390 0.108453259
vn -0.212802 -0.513750 0.831130
vt 0.370346636 0.108453259
vn 0.321948 -0.777252 0.540582
vt 0.385174960 0.097357035
vn -0.212802 -0.513750 0.831130
vt 0.370346636 0.108453259
vn -0.321948 -0.777252 0.540582
vt 0.365702927 0.097357035
vn 0.777252 -0.321948 0.540582
vt 0.398978561 0.111117251
v 0.798924 -0.304879 24.864183
vn 0.513750 -0.212802 0.831130
vt 0.387872219 0.115713462
vn 0.212802 -0.513750 0.831130
vt 0.380602390 0.108453259
vn 0.777252 -0.321948 0.540582
vt 0.398978561 0.111117251
vn 0.212802 -0.513750 0.831130
vt 0.380602390 0.108453259
vn 0.321948 -0.777252 0.540582
vt 0.385174960 0.097357035
vn 0.777252 0.321948 0.540582
vt 0.398985207 0.130577132
vn 0.513750 0.212802 0.831130
vt 0.387876809 0.125980914
vn 0.513750 -0.212802 0.831130
vt 0.387872219 0.115713462
vn 0.777252 0.321948 0.540582
vt 0.398985207 0.130577132
vn 0.513750 -0.212802 0.831130
vt 0.387872219 0.115713462
vn 0.777252 -0.321948 0.540582
vt 0.398978561 0.111117251
vn -0.212802 0.513750 0.831130
vt 0.088743284 0.622963369
vn -0.513750 0.212802 0.831130
vt 0.086301647 0.620500445
vn -0.513750 -0.212802 0.831130
vt 0.086301647 0.617017329
vn -0.212802 0.513750 0.831130
vt 0.088743284 0.622963369
vn -0.513750 -0.212802 0.831130
vt 0.086301647 0.617017329
vn -0.212802 -0.513750 0.831130
vt 0.088742822 0.614554405
vn -0.212802 0.513750 0.831130
vt 0.088743284 0.622963369
vn -0.212802 -0.513750 0.831130
vt 0.088742822 0.614554405
vn 0.212802 -0.513750 0.831130
vt 0.092221826 0.614554405
vn -0.212802 0.513750 0.831130
vt 0.088743284 0.622963369
vn 0.212802 -0.513750 0.831130
vt 0.092221826 0.614554405
vn 0.513750 -0.212802 0.831130
vt 0.094663464 0.617017329
vn -0.212802 0.513750 0.831130
vt 0.088743284 0.622963369
vn 0.513750 -0.212802 0.831130
vt 0.094663464 0.617017329
vn 0.513750 0.212802 0.831130
vt 0.094663464 0.620500445
vn -0.212802 0.513750 0.831130
vt 0.088743284 0.622963369
vn 0.513750 0.212802 0.831130
vt 0.094663464 0.620500445
vn 0.212802 0.513750 0.831130
vt 0.092222288 0.622963369
vn 0.000000 1.000000 -0.000000
vt 0.139776468 0.182420924
vn 0.000000 1.000000 -0.000000
vt 0.132248491 0.182420924
vn 0.000000 1.000000 -0.000000
vt 0.132251933 0.152249292
vn 0.000000 1.000000 -0.000000
vt 0.139776468 0.182420924
vn 0.000000 1.000000 -0.000000
vt 0.132251933 0.152249292
vn 0.000000 1.000000 -0.000000
vt 0.139811814 0.152249292
vn -0.000000 -1.000000 0.000000
vt 0.132233351 0.152249292
vn -0.000000 -1.000000 0.000000
vt 0.139804006 0.152249292
vn -0.000000 -1.000000 0.000000
vt 0.139793217 0.182420924
vn -0.000000 -1.000000 0.000000
vt 0.132233351 0.152249292
vn -0.000000 -1.000000 0.000000
vt 0.139793217 0.182420924
vn -0.000000 -1.000000 0.000000
vt 0.132208109 0.182420924
vn 0.237514 -0.971384 0.000000
vt 0.331151515 0.962779641
vn 0.237514 -0.971384 0.000000
vt 0.331157476 0.951544106
vn 0.237514 -0.971384 0.000000
vt 0.336039841 0.962779641
vn 0.994487 0.000000 0.104863
vt 0.130727440 0.161677465
vn 0.994487 0.000000 0.104863
vt 0.141323924 0.167335093
vn 0.994487 0.000000 0.104863
vt 0.130729496 0.172992736
vn 0.237514 0.971384 -0.000000
vt 0.332696915 0.962779641
v 3.870212 0.717074 -2.642914
vn 0.237514 0.971384 -0.000000
vt 0.337579250 0.951544106
vn 0.237514 0.971384 -0.000000
vt 0.337576509 0.962779641
vn -0.000000 0.000000 -1.000000
vt 0.343259662 0.958299339
vn -0.000000 0.000000 -1.000000
vt 0.329771101 0.955391347
vn -0.000000 0.000000 -1.000000
vt 0.343259424 0.952483296
vn 1.000000 0.000000 0.000000
vt 0.139771655 0.182420924
vn 1.000000 0.000000 0.000000
vt 0.132230595 0.182420924
vn 1.000000 0.000000 0.000000
vt 0.132237256 0.152249292
vn 1.000000 0.000000 0.000000
vt 0.139771655 0.182420924
vn 1.000000 0.000000 0.000000
vt 0.132237256 0.152249292
vn 1.000000 0.000000 0.000000
vt 0.139799654 0.152249292
vn -1.000000 0.000000 0.000000
vt 0.132231295 0.152249292
vn -1.000000 0.000000 0.000000
vt 0.139805153 0.152249292
vn -1.000000 0.000000 0.000000
vt 0.139798507 0.182420924
vn -1.000000 0.000000 0.000000
vt 0.132231295 0.152249292
vn -1.000000 0.000000 0.000000
vt 0.139798507 0.182420924
vn -1.000000 0.000000 0.000000
vt 0.132203296 0.182420924
vn 0.000000 -0.994487 0.104863
vt 0.130328640 0.172668740
vn 0.000000 -0.994487 0.104863
vt 0.135995045 0.162001461
vn 0.000000 -0.994487 0.104863
vt 0.141681418 0.172668740
vn 0.971384 -0.237514 0.000000
vt 0.332668215 0.962779641
vn 0.971384 -0.237514 0.000000
vt 0.337565482 0.951544106
vn 0.971384 -0.237514 0.000000
vt 0.337557912 0.962779641
vn -0.977303 -0.209965 0.028157
vt 0.340363681 0.948473155
vn -0.977303 -0.209965 0.028157
vt 0.330470711 0.959521830
vn -0.977303 -0.209965 0.028157
vt 0.326517195 0.947944999
vn 0.000000 0.000000 1.000000
vt 0.141668558 0.163563654
vn 0.000000 0.000000 1.000000
vt 0.141705051 0.171106562
vn 0.000000 0.000000 1.000000
vt 0.130352512 0.171106562
vn 0.000000 0.000000 1.000000
vt 0.141668558 0.163563654
vn 0.000000 0.000000 1.000000
vt 0.130352512 0.171106562
vn 0.000000 0.000000 1.000000
vt 0.130316019 0.163563654
vn -0.000000 0.000000 -1.000000
vt 0.141707346 0.163563654
vn -0.000000 0.000000 -1.000000
vt 0.141704127 0.171106562
vn -0.000000 0.000000 -1.000000
vt 0.130351588 0.171106562
vn -0.000000 0.000000 -1.000000
vt 0.141707346 0.163563654
vn -0.000000 0.000000 -1.000000
vt 0.130351588 0.171106562
vn -0.000000 0.000000 -1.000000
vt 0.130355030 0.163563654
vn 0.880712 0.469342 0.063748
vt 0.131337792 0.152249292
vn 0.880712 0.469342 0.063748
vt 0.140739039 0.152249292
vn 0.880712 0.469342 0.063748
vt 0.140734673 0.174878016
vn 0.880712 0.469342 0.063748
vt 0.131337792 0.152249292
vn 0.880712 0.469342 0.063748
vt 0.140734673 0.174878016
vn 0.880712 0.469342 0.063748
vt 0.131344900 0.182420924
vn -0.977303 0.209965 0.028157
vt 0.342216104 0.947944999
vn -0.977303 0.209965 0.028157
vt 0.338250190 0.959521830
vn -0.977303 0.209965 0.028157
vt 0.328424901 0.948473155
vn 1.000000 0.000000 0.000000
vt 0.130311206 0.182420924
vn 1.000000 0.000000 0.000000
vt 0.130334616 0.152249292
vn 1.000000 0.000000 0.000000
vt 0.141688302 0.152249292
vn 1.000000 0.000000 0.000000
vt 0.130311206 0.182420924
vn 1.000000 0.000000 0.000000
vt 0.141688302 0.152249292
vn 1.000000 0.000000 0.000000
vt 0.141663745 0.182420924
vn -0.469342 0.880712 0.063748
vt 0.131337553 0.152249292
vn -0.469342 0.880712 0.063748
vt 0.140739501 0.152249292
vn -0.469342 0.880712 0.063748
vt 0.140734673 0.174878016
vn -0.469342 0.880712 0.063748
vt 0.131337553 0.152249292
vn -0.469342 0.880712 0.063748
vt 0.140734673 0.174878016
vn -0.469342 0.880712 0.063748
vt 0.131344900 0.182420924
vn -0.209965 0.977303 0.028157
vt 0.340388030 0.948473155
vn -0.209965 0.977303 0.028157
vt 0.330498725 0.959521830
vn -0.209965 0.977303 0.028157
vt 0.326531202 0.947944999
vn -1.000000 0.000000 0.000000
vt 0.130311206 0.182420924
vn -1.000000 0.000000 0.000000
vt 0.130335763 0.152249292
vn -1.000000 0.000000 0.000000
vt 0.141687378 0.152249292
vn -1.000000 0.000000 0.000000
vt 0.130311206 0.182420924
vn -1.000000 0.000000 0.000000
vt 0.141687378 0.152249292
vn -1.000000 0.000000 0.000000
vt 0.141663745 0.182420924
vn 0.469342 -0.880712 0.063748
vt 0.126622245 0.152249292
vn 0.469342 -0.880712 0.063748
vt 0.136026025 0.152249292
vn 0.469342 -0.880712 0.063748
vt 0.136018217 0.174878016
vn 0.469342 -0.880712 0.063748
vt 0.126622245 0.152249292
vn 0.469342 -0.880712 0.063748
vt 0.136018217 0.174878016
vn 0.469342 -0.880712 0.063748
vt 0.126622245 0.182420924
vn -1.000000 0.000000 0.000000
vt 0.331451178 0.961009085
vn -1.000000 0.000000 0.000000
vt 0.331460148 0.949773550
vn -1.000000 0.000000 0.000000
vt 0.337257087 0.949773550
vn -1.000000 0.000000 0.000000
vt 0.331451178 0.961009085
vn -1.000000 0.000000 0.000000
vt 0.337257087 0.949773550
vn -1.000000 0.000000 0.000000
vt 0.337243557 0.961009085
vn 0.209965 0.977303 0.028157
vt 0.342217684 0.947944999
vn 0.209965 0.977303 0.028157
vt 0.338250637 0.959521830
vn 0.209965 0.977303 0.028157
vt 0.328425348 0.948473155
vn -0.000000 1.000000 -0.000000
vt 0.130311206 0.182420924
vn -0.000000 1.000000 -0.000000
vt 0.130337819 0.152249292
vn -0.000000 1.000000 -0.000000
vt 0.141690359 0.152249292
vn -0.000000 1.000000 -0.000000
vt 0.130311206 0.182420924
vn -0.000000 1.000000 -0.000000
vt 0.141690359 0.152249292
vn -0.000000 1.000000 -0.000000
vt 0.141663745 0.182420924
vn -0.880712 -0.469342 0.063748
vt 0.131316677 0.152249292
vn -0.880712 -0.469342 0.063748
vt 0.140710816 0.152249292
vn -0.880712 -0.469342 0.063748
vt 0.140710816 0.174878016
vn -0.880712 -0.469342 0.063748
vt 0.131316677 0.152249292
vn -0.880712 -0.469342 0.063748
vt 0.140710816 0.174878016
vn -0.880712 -0.469342 0.063748
vt 0.131314620 0.182420924
vn -0.000000 -0.000000 -1.000000
vt 0.331477791 0.964292228
vn -0.000000 -0.000000 -1.000000
vt 0.334396482 0.950756490
vn -0.000000 -0.000000 -1.000000
vt 0.337276131 0.964292228
vn 0.000000 0.000000 -1.000000
vt 0.132245287 0.161677465
vn 0.000000 0.000000 -1.000000
vt 0.139810205 0.161677465
vn 0.000000 0.000000 -1.000000
vt 0.139812499 0.172992736
vn 0.000000 0.000000 -1.000000
vt 0.132245287 0.161677465
vn 0.000000 0.000000 -1.000000
vt 0.139812499 0.172992736
vn 0.000000 0.000000 -1.000000
vt 0.132246211 0.172992736
vn -0.000000 1.000000 0.000000
vt 0.331453264 0.961009085
vn -0.000000 1.000000 0.000000
vt 0.331464946 0.949773550
vn -0.000000 1.000000 0.000000
vt 0.337263286 0.949773550
vn -0.000000 1.000000 0.000000
vt 0.331453264 0.961009085
vn -0.000000 1.000000 0.000000
vt 0.337263286 0.949773550
vn -0.000000 1.000000 0.000000
vt 0.337250888 0.961009085
s off
f 12/19/19 11/20/20 7/21/21
f 18/40/40 22/41/41 23/42/42
f 42/79/79 41/80/80 43/81/81
f 50/94/94 52/95/95 53/96/96
f 55/103/103 53/104/104 56/105/105
f 8/118/118 7/119/119 11/120/120
f 57/121/121 10/122/122 9/123/123
f 11/124/124 6/125/125 5/126/126
f 6/127/127 12/128/128 7/129/129
f 20/142/142 19/143/143 22/144/144
f 14/145/145 21/146/146 15/147/147
f 22/148/148 18/149/149 17/150/150
f 18/151/151 23/152/152 19/153/153
f 38/328/328 43/329/329 41/330/330
f 33/331/331 40/332/332 34/333/333
f 41/334/334 84/335/335 37/336/336
f 84/337/337 42/338/338 43/339/339
f 45/352/352 54/353/353 46/354/354
f 53/355/355 55/356/356 49/357/357
f 56/358/358 53/359/359 52/360/360
f 6/379/379 11/380/380 12/381/381
f 23/394/394 22/395/395 19/396/396
f 84/415/415 41/416/416 42/417/417
f 55/430/430 56/431/431 52/432/432
s 1
f 1/1/1 2/2/2 3/3/3
f 1/4/4 3/5/5 4/6/6
s 2
f 5/7/7 6/8/8 7/9/9
f 5/10/10 7/11/11 8/12/12
s 3
f 9/13/13 10/14/14 11/15/15
f 9/16/16 11/17/17 5/18/18
s 4
f 13/22/22 14/23/23 15/24/24
f 13/25/25 15/26/26 16/27/27
s 5
f 17/28/28 18/29/29 19/30/30
f 17/31/31 19/32/32 20/33/33
s 6
f 15/34/34 21/35/35 22/36/36
f 15/37/37 22/38/38 17/39/39
s 7
f 24/43/43 25/44/44 26/45/45
f 24/46/46 26/47/47 27/48/48
f 24/49/49 27/50/50 28/51/51
f 24/52/52 28/53/53 29/54/54
f 24/55/55 29/56/56 30/57/57
f 24/58/58 30/59/59 31/60/60
s 8
f 32/61/61 33/62/62 34/63/63
f 32/64/64 34/65/65 35/66/66
s 9
f 36/67/67 37/68/68 38/69/69
f 36/70/70 38/71/71 39/72/72
s 10
f 34/73/73 40/74/74 41/75/75
f 34/76/76 41/77/77 37/78/78
s 11
f 44/82/82 45/83/83 46/84/84
f 44/85/85 46/86/86 47/87/87
s 12
f 48/88/88 49/89/89 50/90/90
f 48/91/91 50/92/92 51/93/93
s 13
f 46/97/97 54/98/98 53/99/99
f 46/100/100 53/101/101 49/102/102
s 14
f 1/106/106 9/107/107 5/108/108
f 1/109/109 5/110/110 2/111/111
s 15
f 3/112/112 8/113/113 57/114/114
f 3/115/115 57/116/116 4/117/117
s 16
f 16/130/130 15/131/131 17/132/132
f 16/133/133 17/134/134 58/135/135
s 17
f 59/136/136 20/137/137 14/138/138
f 59/139/139 14/140/140 13/141/141
s 18
f 31/154/154 60/155/155 61/156/156
f 31/157/157 61/158/158 24/159/159
f 24/160/160 61/161/161 62/162/162
f 24/163/163 62/164/164 25/165/165
f 25/166/166 62/167/167 63/168/168
f 25/169/169 63/170/170 26/171/171
f 26/172/172 63/173/173 64/174/174
f 26/175/175 64/176/176 27/177/177
f 27/178/178 64/179/179 65/180/180
f 27/181/181 65/182/182 28/183/183
f 28/184/184 65/185/185 66/186/186
f 28/187/187 66/188/188 29/189/189
f 29/190/190 66/191/191 67/192/192
f 29/193/193 67/194/194 30/195/195
f 30/196/196 67/197/197 60/198/198
f 30/199/199 60/200/200 31/201/201
f 61/202/202 68/203/203 69/204/204
f 61/205/205 69/206/206 62/207/207
f 60/208/208 70/209/209 68/210/210
f 60/211/211 68/212/212 61/213/213
f 67/214/214 71/215/215 70/216/216
f 67/217/217 70/218/218 60/219/219
f 66/220/220 72/221/221 71/222/222
f 66/223/223 71/224/224 67/225/225
f 65/226/226 73/227/227 72/228/228
f 65/229/229 72/230/230 66/231/231
f 64/232/232 74/233/233 73/234/234
f 64/235/235 73/236/236 65/237/237
f 63/238/238 75/239/239 74/240/240
f 63/241/241 74/242/242 64/243/243
f 62/244/244 69/245/245 75/246/246
f 62/247/247 75/248/248 63/249/249
f 68/250/250 76/251/251 77/252/252
f 68/253/253 77/254/254 69/255/255
f 70/256/256 78/257/257 76/258/258
f 70/259/259 76/260/260 68/261/261
f 71/262/262 79/263/263 78/264/264
f 71/265/265 78/266/266 70/267/267
f 72/268/268 80/269/269 79/270/270
f 72/271/271 79/272/272 71/273/273
f 73/274/274 81/275/275 80/276/276
f 73/277/277 80/278/278 72/279/279
f 74/280/280 82/281/281 81/282/282
f 74/283/283 81/284/284 73/285/285
f 75/286/286 83/287/287 82/288/288
f 75/289/289 82/290/290 74/291/291
f 69/292/292 77/293/293 83/294/294
f 69/295/295 83/296/296 75/297/297
f 78/298/298 79/299/299 80/300/300
f 78/301/301 80/302/302 81/303/303
f 78/304/304 81/305/305 82/306/306
f 78/307/307 82/308/308 83/309/309
f 78/310/310 83/311/311 77/312/312
f 78/313/313 77/314/314 76/315/315
s 19
f 35/316/316 34/317/317 37/318/318
f 35/319/319 37/320/320 36/321/321
s 20
f 39/322/322 38/323/323 33/324/324
f 39/325/325 33/326/326 32/327/327
s 21
f 47/340/340 46/341/341 49/342/342
f 47/343/343 49/344/344 48/345/345
s 22
f 51/346/346 50/347/347 45/348/348
f 51/349/349 45/350/350 44/351/351
s 23
f 4/361/361 57/362/362 9/363/363
f 4/364/364 9/365/365 1/366/366
s 24
f 2/367/367 5/368/368 8/369/369
f 2/370/370 8/371/371 3/372/372
s 25
f 8/373/373 11/374/374 10/375/375
f 8/376/376 10/377/377 57/378/378
s 26
f 16/382/382 58/383/383 59/384/384
f 16/385/385 59/386/386 13/387/387
s 27
f 20/388/388 22/389/389 21/390/390
f 20/391/391 21/392/392 14/393/393
s 28
f 35/397/397 36/398/398 39/399/399
f 35/400/400 39/401/401 32/402/402
s 29
f 38/403/403 41/404/404 40/405/405
f 38/406/406 40/407/407 33/408/408
s 30
f 37/409/409 84/410/410 43/411/411
f 37/412/412 43/413/413 38/414/414
s 31
f 47/418/418 48/419/419 51/420/420
f 47/421/421 51/422/422 44/423/423
s 32
f 50/424/424 53/425/425 54/426/426
f 50/427/427 54/428/428 45/429/429
s 33
f 58/433/433 17/434/434 20/435/435
f 58/436/436 20/437/437 59/438/438
s 34
f 49/439/439 55/440/440 52/441/441
f 49/442/442 52/443/443 50/444/444
