# Spring Unit export, Created by Beherith mysterme@gmail.com with the help of Muon 
# arguments of an object 'o' piecename:
# Mxyz = midpoint of an s3o
# r = unit radius
# h = height
#			 t1 t2 = textures 1 and 2
# Oxyz = piece offset
# p = parent
o empty_root_piece,ox=-0.00,oy=0.00,oz=0.00,p=,mx=0.00,my=0.00,mz=0.00,r=16.00,h=4.00,t1=cor_color.dds,t2=cor_other.dds
v -1.889614 0.777051 -2.103875
vn 1.000000 0.000000 0.000000
vt 0.037488665 0.755451262
v -1.889614 0.777051 1.949729
vn 1.000000 0.000000 0.000000
vt 0.055983692 0.755451262
v -1.889614 -0.774196 1.949729
vn 1.000000 0.000000 0.000000
vt 0.055974744 0.762523293
vn 1.000000 0.000000 0.000000
vt 0.037488665 0.755451262
vn 1.000000 0.000000 0.000000
vt 0.055974744 0.762523293
v -1.889614 -0.774196 -2.103875
vn 1.000000 0.000000 0.000000
vt 0.037478797 0.762523293
v -3.366875 -0.774196 -2.103875
vn -1.000000 0.000000 0.000000
vt 0.068903416 0.736479282
v -3.366875 -0.774196 0.598527
vn -1.000000 0.000000 0.000000
vt 0.068903416 0.751674056
v -3.366875 0.777051 0.598527
vn -1.000000 0.000000 0.000000
vt 0.060176991 0.751674056
vn -1.000000 0.000000 0.000000
vt 0.068903416 0.736479282
vn -1.000000 0.000000 0.000000
vt 0.060176991 0.751674056
v -3.366875 0.777051 -2.103875
vn -1.000000 0.000000 0.000000
vt 0.060176991 0.736479282
v 0.202264 -0.766841 -13.908855
vn 0.000000 0.000000 -1.000000
vt 0.193854541 0.196080044
v -0.019343 -3.522626 -13.908855
vn 0.000000 0.000000 -1.000000
vt 0.196334720 0.173630908
v -0.240949 -0.766841 -13.908855
vn 0.000000 0.000000 -1.000000
vt 0.198676318 0.196080044
v 0.735248 0.209356 -13.908855
vn 0.000000 0.000000 -1.000000
vt 0.207526416 0.187260926
v 3.491033 -0.012250 -13.908855
vn 0.000000 0.000000 -1.000000
vt 0.185116410 0.184855476
v 0.735248 -0.233857 -13.908855
vn 0.000000 0.000000 -1.000000
vt 0.207526416 0.182450026
v -0.773933 -0.233857 -13.908855
vn -0.000000 0.000000 -1.000000
vt 0.185065478 0.182450026
v -3.529719 -0.012250 -13.908855
vn -0.000000 0.000000 -1.000000
vt 0.207577348 0.184855476
v -0.773933 0.209356 -13.908855
vn -0.000000 0.000000 -1.000000
vt 0.185065478 0.187260926
v -0.019343 3.498125 -9.772525
vn -0.996428 0.080128 0.026673
vt 0.152454570 0.968109488
v -0.240949 0.742340 -9.772525
vn -0.996428 0.080128 0.026673
vt 0.152405933 0.958070695
v -0.019343 0.742340 -5.636194
vn -0.995364 0.080042 0.053327
vt 0.132386401 0.958184600
vn -0.996428 0.080128 0.026673
vt 0.152405933 0.958070695
vn -0.996428 0.080128 0.026673
vt 0.152454570 0.968109488
v -0.019343 3.498125 -13.908855
vn -0.996782 0.080156 0.000000
vt 0.172416747 0.968109488
vn -0.996428 0.080128 0.026673
vt 0.152405933 0.958070695
vn -0.996782 0.080156 0.000000
vt 0.172416747 0.968109488
v -0.240949 0.742340 -13.908855
vn -0.996782 0.080156 0.000000
vt 0.172366500 0.958070695
v 0.758530 1.873949 -2.103875
vn 0.364830 0.880777 -0.301881
vt 0.126450390 0.524854958
v 0.491803 1.230011 -4.304994
vn 0.364830 0.880777 -0.301881
vt 0.128532931 0.511924982
v -0.525989 1.230011 -4.304994
vn -0.364830 0.880777 -0.301881
vt 0.132744357 0.511924982
vn 0.364830 0.880777 -0.301881
vt 0.126450390 0.524854958
vn -0.364830 0.880777 -0.301881
vt 0.132744357 0.511924982
v -0.792717 1.873949 -2.103875
vn -0.364830 0.880777 -0.301881
vt 0.134812430 0.524854958
vn -0.364830 0.880777 -0.301881
vt 0.126334280 0.522114873
vn -0.364830 0.880777 -0.301881
vt 0.132989407 0.510838449
v -1.245677 0.510324 -4.304994
vn -0.880777 0.364830 -0.301881
vt 0.136895657 0.512366652
vn -0.364830 0.880777 -0.301881
vt 0.126334280 0.522114873
vn -0.880777 0.364830 -0.301881
vt 0.136895657 0.512366652
vn -0.880777 0.364830 -0.301881
vt 0.134146780 0.525171280
vn -0.880777 0.364830 -0.301881
vt 0.126445115 0.524854958
vn -0.880777 0.364830 -0.301881
vt 0.128525123 0.511924982
v -1.245677 -0.507468 -4.304994
vn -0.880777 -0.364830 -0.301881
vt 0.132733345 0.511924982
vn -0.880777 0.364830 -0.301881
vt 0.126445115 0.524854958
vn -0.880777 -0.364830 -0.301881
vt 0.132733345 0.511924982
vn -0.880777 -0.364830 -0.301881
vt 0.134802341 0.524854958
vn -0.880777 -0.364830 -0.301881
vt 0.126311332 0.522114873
vn -0.880777 -0.364830 -0.301881
vt 0.132965773 0.510838449
v -0.525989 -1.227156 -4.304994
vn -0.364830 -0.880777 -0.301881
vt 0.136867434 0.512366652
vn -0.880777 -0.364830 -0.301881
vt 0.126311332 0.522114873
vn -0.364830 -0.880777 -0.301881
vt 0.136867434 0.512366652
v -0.792717 -1.871093 -2.103875
vn -0.364830 -0.880777 -0.301881
vt 0.134120166 0.525171280
vn -0.364830 -0.880777 -0.301881
vt 0.126421928 0.524854958
vn -0.364830 -0.880777 -0.301881
vt 0.128500342 0.511924982
v 0.491803 -1.227156 -4.304994
vn 0.364830 -0.880777 -0.301881
vt 0.132711992 0.511924982
vn -0.364830 -0.880777 -0.301881
vt 0.126421928 0.524854958
vn 0.364830 -0.880777 -0.301881
vt 0.132711992 0.511924982
v 0.758530 -1.871093 -2.103875
vn 0.364830 -0.880777 -0.301881
vt 0.134783521 0.524854958
vn 0.364830 -0.880777 -0.301881
vt 0.127101123 0.525171280
vn 0.364830 -0.880777 -0.301881
vt 0.124355227 0.512366652
v 1.211490 -0.507468 -4.304994
vn 0.880777 -0.364830 -0.301881
vt 0.128266066 0.510838449
vn 0.364830 -0.880777 -0.301881
vt 0.127101123 0.525171280
vn 0.880777 -0.364830 -0.301881
vt 0.128266066 0.510838449
v 1.855428 -0.774196 -2.103875
vn 0.880777 -0.364830 -0.301881
vt 0.134917527 0.522114873
vn 0.880777 -0.364830 -0.301881
vt 0.126440749 0.524854958
vn 0.880777 -0.364830 -0.301881
vt 0.128522143 0.511924982
v 1.211490 0.510324 -4.304994
vn 0.880777 0.364830 -0.301881
vt 0.132736772 0.511924982
vn 0.880777 -0.364830 -0.301881
vt 0.126440749 0.524854958
vn 0.880777 0.364830 -0.301881
vt 0.132736772 0.511924982
v 1.855428 0.777051 -2.103875
vn 0.880777 0.364830 -0.301881
vt 0.134807393 0.524854958
vn 0.880777 0.364830 -0.301881
vt 0.127127737 0.525171280
vn 0.880777 0.364830 -0.301881
vt 0.124383450 0.512366652
vn 0.364830 0.880777 -0.301881
vt 0.128289700 0.510838449
vn 0.880777 0.364830 -0.301881
vt 0.127127737 0.525171280
vn 0.364830 0.880777 -0.301881
vt 0.128289700 0.510838449
vn 0.364830 0.880777 -0.301881
vt 0.134940237 0.522114873
v -0.792717 1.873949 1.949729
vn 0.000000 0.982400 0.186788
vt 0.041191846 0.739497662
v -0.560030 1.312192 4.904251
vn 0.000000 0.982400 0.186788
vt 0.054196924 0.740504146
v 0.525843 1.312192 4.904251
vn 0.000000 0.982400 0.186788
vt 0.054197155 0.745200872
vn 0.000000 0.982400 0.186788
vt 0.041191846 0.739497662
vn 0.000000 0.982400 0.186788
vt 0.054197155 0.745200872
v 0.758530 1.873949 1.949729
vn 0.000000 0.982400 0.186788
vt 0.041191846 0.746207356
v -0.792717 -1.871093 1.949729
vn -0.694662 -0.694662 0.186788
vt 0.005401841 0.710866690
v -0.560030 -1.309337 4.904251
vn -0.694662 -0.694662 0.186788
vt 0.018473919 0.711914003
v -1.327858 -0.541509 4.904251
vn -0.694662 -0.694662 0.186788
vt 0.018416096 0.716610789
vn -0.694662 -0.694662 0.186788
vt 0.005401841 0.710866690
vn -0.694662 -0.694662 0.186788
vt 0.018416096 0.716610789
vn -0.694662 -0.694662 0.186788
vt 0.005408954 0.717576325
v 1.855428 0.777051 1.949729
vn 0.982400 0.000000 0.186788
vt 0.041188404 0.739497662
v 1.293671 0.544364 4.904251
vn 0.982400 0.000000 0.186788
vt 0.054193024 0.740504146
v 1.293671 -0.541509 4.904251
vn 0.982400 0.000000 0.186788
vt 0.054191187 0.745200872
vn 0.982400 0.000000 0.186788
vt 0.041188404 0.739497662
vn 0.982400 0.000000 0.186788
vt 0.054191187 0.745200872
v 1.855428 -0.774196 1.949729
vn 0.982400 0.000000 0.186788
vt 0.041183814 0.746207356
v -0.525989 1.230011 -7.132627
vn -0.346096 0.835548 0.426705
vt 0.061699200 0.773302913
v -0.792717 1.873949 -8.609888
vn -0.346096 0.835548 0.426705
vt 0.049739063 0.770746529
v -1.889614 0.777051 -8.609888
vn -0.835548 0.346096 0.426705
vt 0.049799871 0.781320632
vn -0.346096 0.835548 0.426705
vt 0.061699200 0.773302913
vn -0.835548 0.346096 0.426705
vt 0.049799871 0.781320632
v -1.245677 0.510324 -7.132627
vn -0.835548 0.346096 0.426705
vt 0.061698284 0.778589964
v 0.491803 1.230011 -7.132627
vn 0.346096 0.835548 0.426705
vt 0.061628070 0.778618217
v 0.758530 1.873949 -8.609888
vn 0.346096 0.835548 0.426705
vt 0.049727362 0.781261802
vn -0.346096 0.835548 0.426705
vt 0.049727362 0.770687401
vn 0.346096 0.835548 0.426705
vt 0.061628070 0.778618217
vn -0.346096 0.835548 0.426705
vt 0.049727362 0.770687401
vn -0.346096 0.835548 0.426705
vt 0.061627839 0.773331046
v 1.211490 0.510324 -7.132627
vn 0.835548 0.346096 0.426705
vt 0.061698284 0.778589964
v 1.855428 0.777051 -8.609888
vn 0.835548 0.346096 0.426705
vt 0.049799871 0.781320632
vn 0.346096 0.835548 0.426705
vt 0.049739063 0.770746529
vn 0.835548 0.346096 0.426705
vt 0.061698284 0.778589964
vn 0.346096 0.835548 0.426705
vt 0.049739063 0.770746529
vn 0.346096 0.835548 0.426705
vt 0.061699200 0.773302913
v 1.211490 -0.507468 -7.132627
vn 0.835548 -0.346096 0.426705
vt 0.061616369 0.778618217
v 1.855428 -0.774196 -8.609888
vn 0.835548 -0.346096 0.426705
vt 0.049716808 0.781261802
vn 0.835548 0.346096 0.426705
vt 0.049726442 0.770687401
vn 0.835548 -0.346096 0.426705
vt 0.061616369 0.778618217
vn 0.835548 0.346096 0.426705
vt 0.049726442 0.770687401
vn 0.835548 0.346096 0.426705
vt 0.061626464 0.773331046
v 0.491803 -1.227156 -7.132627
vn 0.346096 -0.835548 0.426705
vt 0.061670978 0.778589964
v 0.758530 -1.871093 -8.609888
vn 0.346096 -0.835548 0.426705
vt 0.049769811 0.781320632
vn 0.835548 -0.346096 0.426705
vt 0.049715888 0.770746529
vn 0.346096 -0.835548 0.426705
vt 0.061670978 0.778589964
vn 0.835548 -0.346096 0.426705
vt 0.049715888 0.770746529
vn 0.835548 -0.346096 0.426705
vt 0.061676025 0.773302913
v -0.525989 -1.227156 -7.132627
vn -0.346096 -0.835548 0.426705
vt 0.061598700 0.778618217
v -0.792717 -1.871093 -8.609888
vn -0.346096 -0.835548 0.426705
vt 0.049695924 0.781261802
vn 0.346096 -0.835548 0.426705
vt 0.049695697 0.770687401
vn -0.346096 -0.835548 0.426705
vt 0.061598700 0.778618217
vn 0.346096 -0.835548 0.426705
vt 0.049695697 0.770687401
vn 0.346096 -0.835548 0.426705
vt 0.061598700 0.773331046
v -1.245677 -0.507468 -7.132627
vn -0.835548 -0.346096 0.426705
vt 0.061676025 0.773302913
v -1.889614 -0.774196 -8.609888
vn -0.835548 -0.346096 0.426705
vt 0.049716119 0.770746529
vn -0.346096 -0.835548 0.426705
vt 0.049770270 0.781320632
vn -0.835548 -0.346096 0.426705
vt 0.061676025 0.773302913
vn -0.346096 -0.835548 0.426705
vt 0.049770270 0.781320632
vn -0.346096 -0.835548 0.426705
vt 0.061671209 0.778589964
vn -0.835548 0.346096 0.426705
vt 0.061626464 0.778618217
vn -0.835548 0.346096 0.426705
vt 0.049726672 0.781261802
vn -0.835548 -0.346096 0.426705
vt 0.049716808 0.770687401
vn -0.835548 0.346096 0.426705
vt 0.061626464 0.778618217
vn -0.835548 -0.346096 0.426705
vt 0.049716808 0.770687401
vn -0.835548 -0.346096 0.426705
vt 0.061616369 0.773331046
v 0.758530 1.873949 -13.967850
vn -0.000000 -0.000000 -1.000000
vt 0.132993311 0.532612860
v 1.855428 0.777051 -13.967850
vn -0.000000 -0.000000 -1.000000
vt 0.157712087 0.532612860
v 1.855428 -0.774196 -13.967850
vn -0.000000 -0.000000 -1.000000
vt 0.175166771 0.550083339
vn -0.000000 -0.000000 -1.000000
vt 0.132993311 0.532612860
vn -0.000000 -0.000000 -1.000000
vt 0.175166771 0.550083339
v 0.758530 -1.871093 -13.967850
vn -0.000000 -0.000000 -1.000000
vt 0.175164700 0.574790359
vn -0.000000 -0.000000 -1.000000
vt 0.132993311 0.532612860
vn -0.000000 -0.000000 -1.000000
vt 0.175164700 0.574790359
v -0.792717 -1.871093 -13.967850
vn -0.000000 -0.000000 -1.000000
vt 0.157708645 0.592260778
vn -0.000000 -0.000000 -1.000000
vt 0.132993311 0.532612860
vn -0.000000 -0.000000 -1.000000
vt 0.157708645 0.592260778
v -1.889614 -0.774196 -13.967850
vn -0.000000 -0.000000 -1.000000
vt 0.132991478 0.592260778
vn -0.000000 -0.000000 -1.000000
vt 0.132993311 0.532612860
vn -0.000000 -0.000000 -1.000000
vt 0.132991478 0.592260778
v -1.889614 0.777051 -13.967850
vn -0.000000 -0.000000 -1.000000
vt 0.115536794 0.574790359
vn -0.000000 -0.000000 -1.000000
vt 0.132993311 0.532612860
vn -0.000000 -0.000000 -1.000000
vt 0.115536794 0.574790359
v -0.792717 1.873949 -13.967850
vn -0.000000 -0.000000 -1.000000
vt 0.115537256 0.550083339
vn -1.000000 0.000000 0.000000
vt 0.037478797 0.755451262
vn -1.000000 0.000000 0.000000
vt 0.055974744 0.755451262
vn -1.000000 0.000000 0.000000
vt 0.055983923 0.762523293
vn -1.000000 0.000000 0.000000
vt 0.037478797 0.755451262
vn -1.000000 0.000000 0.000000
vt 0.055983923 0.762523293
vn -1.000000 0.000000 0.000000
vt 0.037488665 0.762523293
v 3.332688 0.777051 -2.103875
vn 1.000000 -0.000000 -0.000000
vt 0.068904787 0.736479282
v 3.332688 0.777051 0.598527
vn 1.000000 -0.000000 -0.000000
vt 0.068905018 0.751674056
v 3.332688 -0.774196 0.598527
vn 1.000000 -0.000000 -0.000000
vt 0.060175385 0.751674056
vn 1.000000 -0.000000 -0.000000
vt 0.068904787 0.736479282
vn 1.000000 -0.000000 -0.000000
vt 0.060175385 0.751674056
v 3.332688 -0.774196 -2.103875
vn 1.000000 -0.000000 -0.000000
vt 0.060175158 0.736479282
vn 1.000000 0.000000 0.000000
vt 0.419660747 0.888014078
v 0.758530 3.351209 -2.103875
vn 1.000000 0.000000 0.000000
vt 0.403614700 0.888014078
v 0.758530 3.351209 0.598527
vn 1.000000 0.000000 0.000000
vt 0.403614938 0.917347610
vn 1.000000 0.000000 0.000000
vt 0.419660747 0.888014078
vn 1.000000 0.000000 0.000000
vt 0.403614938 0.917347610
vn 1.000000 0.000000 0.000000
vt 0.419661433 0.932014346
vn -1.000000 0.000000 0.000000
vt 0.419661433 0.932014346
v -0.792717 3.351209 0.598527
vn -1.000000 0.000000 0.000000
vt 0.403614938 0.917347610
v -0.792717 3.351209 -2.103875
vn -1.000000 0.000000 0.000000
vt 0.403614700 0.888014078
vn -1.000000 0.000000 0.000000
vt 0.419661433 0.932014346
vn -1.000000 0.000000 0.000000
vt 0.403614700 0.888014078
vn -1.000000 0.000000 0.000000
vt 0.419660747 0.888014078
vn -1.000000 0.000000 0.000000
vt 0.419644475 0.888014078
v -0.792717 -3.348354 -2.103875
vn -1.000000 0.000000 0.000000
vt 0.403593361 0.888014078
v -0.792717 -3.348354 0.598527
vn -1.000000 0.000000 0.000000
vt 0.403592676 0.917347610
vn -1.000000 0.000000 0.000000
vt 0.419644475 0.888014078
vn -1.000000 0.000000 0.000000
vt 0.403592676 0.917347610
vn -1.000000 0.000000 0.000000
vt 0.419646293 0.932014346
v 0.758530 -1.871093 1.949729
vn 1.000000 0.000000 -0.000000
vt 0.419646293 0.932014346
v 0.758530 -3.348354 0.598527
vn 1.000000 0.000000 -0.000000
vt 0.403592676 0.917347610
v 0.758530 -3.348354 -2.103875
vn 1.000000 0.000000 -0.000000
vt 0.403593361 0.888014078
vn 1.000000 0.000000 -0.000000
vt 0.419646293 0.932014346
vn 1.000000 0.000000 -0.000000
vt 0.403593361 0.888014078
vn 1.000000 0.000000 -0.000000
vt 0.419644684 0.888014078
vn 0.000000 1.000000 -0.000000
vt 0.419660985 0.888014078
vn 0.000000 1.000000 -0.000000
vt 0.403616309 0.888014078
vn 0.000000 1.000000 -0.000000
vt 0.403615385 0.917347610
vn 0.000000 1.000000 -0.000000
vt 0.419660985 0.888014078
vn 0.000000 1.000000 -0.000000
vt 0.403615385 0.917347610
vn 0.000000 1.000000 -0.000000
vt 0.419661433 0.932014346
vn -0.000000 -1.000000 0.000000
vt 0.419640571 0.932014346
vn -0.000000 -1.000000 0.000000
vt 0.403593838 0.917347610
vn -0.000000 -1.000000 0.000000
vt 0.403593123 0.888014078
vn -0.000000 -1.000000 0.000000
vt 0.419640571 0.932014346
vn -0.000000 -1.000000 0.000000
vt 0.403593123 0.888014078
vn -0.000000 -1.000000 0.000000
vt 0.419636905 0.888014078
v -0.019343 -3.522626 -9.772525
vn 0.996428 -0.080128 0.026673
vt 0.152429104 0.968109488
v 0.202264 -0.766841 -9.772525
vn 0.996428 -0.080128 0.026673
vt 0.152405933 0.958070695
v -0.019343 -0.766841 -5.636194
vn 0.995364 -0.080042 0.053327
vt 0.132386401 0.958184600
vn 0.996428 -0.080128 0.026673
vt 0.152405933 0.958070695
vn 0.996428 -0.080128 0.026673
vt 0.152429104 0.968109488
vn 0.996782 -0.080156 0.000000
vt 0.172395870 0.968109488
vn 0.996428 -0.080128 0.026673
vt 0.152405933 0.958070695
vn 0.996782 -0.080156 0.000000
vt 0.172395870 0.968109488
vn 0.996782 -0.080156 0.000000
vt 0.172366723 0.958070695
v 3.491033 -0.012250 -9.772525
vn 0.080128 0.996428 0.026673
vt 0.152455032 0.968109488
v 0.735248 0.209356 -9.772525
vn 0.080128 0.996428 0.026673
vt 0.152405933 0.958070695
v 0.735248 -0.012250 -5.636194
vn 0.080042 0.995364 0.053327
vt 0.132386401 0.958184600
vn 0.080128 0.996428 0.026673
vt 0.152405933 0.958070695
vn 0.080128 0.996428 0.026673
vt 0.152455032 0.968109488
vn 0.080156 0.996782 -0.000000
vt 0.172416970 0.968109488
vn 0.080128 0.996428 0.026673
vt 0.152405933 0.958070695
vn 0.080156 0.996782 -0.000000
vt 0.172416970 0.968109488
vn 0.080156 0.996782 -0.000000
vt 0.172366500 0.958070695
vn 1.000000 0.000000 0.000000
vt 0.198672876 0.162406355
v -0.773933 0.209356 -9.772525
vn 1.000000 0.000000 0.000000
vt 0.198670581 0.207304612
v -0.773933 -0.233857 -9.772525
vn 1.000000 0.000000 0.000000
vt 0.193848804 0.207304612
vn 1.000000 0.000000 0.000000
vt 0.198672876 0.162406355
vn 1.000000 0.000000 0.000000
vt 0.193848804 0.207304612
vn 1.000000 0.000000 0.000000
vt 0.193851098 0.162406355
vn 1.000000 0.000000 0.000000
vt 0.193848804 0.162406355
vn 1.000000 0.000000 0.000000
vt 0.198670581 0.162406355
v -0.773933 -0.012250 -5.636194
vn 1.000000 0.000000 0.000000
vt 0.196290210 0.207304612
v 0.202264 0.742340 -13.908855
vn 0.996782 0.080156 -0.000000
vt 0.172305465 0.958212972
vn 0.996782 0.080156 -0.000000
vt 0.172294438 0.968251646
vn 0.996428 0.080128 0.026673
vt 0.152332276 0.968137860
vn 0.996782 0.080156 -0.000000
vt 0.172305465 0.958212972
vn 0.996428 0.080128 0.026673
vt 0.152332276 0.968137860
v 0.202264 0.742340 -9.772525
vn 0.996428 0.080128 0.026673
vt 0.152344897 0.958099186
vn 0.995364 0.080042 0.053327
vt 0.132325366 0.958099186
vn 0.996428 0.080128 0.026673
vt 0.152344897 0.958099186
vn 0.996428 0.080128 0.026673
vt 0.152332276 0.968137860
vn 0.382683 0.923880 0.000000
vt 0.037525836 0.755451262
vn 0.382683 0.923880 0.000000
vt 0.056024767 0.755451262
vn 0.923880 0.382683 0.000000
vt 0.056024767 0.762523293
vn 0.382683 0.923880 0.000000
vt 0.037525836 0.755451262
vn 0.923880 0.382683 0.000000
vt 0.056024767 0.762523293
vn 0.923880 0.382683 0.000000
vt 0.037525836 0.762523293
vn -0.382683 0.923880 -0.000000
vt 0.037520558 0.755451262
vn -0.382683 0.923880 -0.000000
vt 0.056021553 0.755451262
vn 0.382683 0.923880 0.000000
vt 0.056021553 0.762523293
vn -0.382683 0.923880 -0.000000
vt 0.037520558 0.755451262
vn 0.382683 0.923880 0.000000
vt 0.056021553 0.762523293
vn 0.382683 0.923880 0.000000
vt 0.037520330 0.762523293
vn -0.923880 0.382683 -0.000000
vt 0.037525836 0.755451262
vn -0.923880 0.382683 -0.000000
vt 0.056024536 0.755451262
vn -0.382683 0.923880 -0.000000
vt 0.056024767 0.762523293
vn -0.923880 0.382683 -0.000000
vt 0.037525836 0.755451262
vn -0.382683 0.923880 -0.000000
vt 0.056024767 0.762523293
vn -0.382683 0.923880 -0.000000
vt 0.037526067 0.762523293
vn -0.923880 -0.382683 0.000000
vt 0.037510693 0.755451262
vn -0.923880 -0.382683 0.000000
vt 0.056012835 0.755451262
vn -0.923880 0.382683 -0.000000
vt 0.056018341 0.762523293
vn -0.923880 -0.382683 0.000000
vt 0.037510693 0.755451262
vn -0.923880 0.382683 -0.000000
vt 0.056018341 0.762523293
vn -0.923880 0.382683 -0.000000
vt 0.037517119 0.762523293
vn -0.382683 -0.923880 0.000000
vt 0.037501056 0.755451262
vn -0.382683 -0.923880 0.000000
vt 0.055997919 0.755451262
vn -0.923880 -0.382683 0.000000
vt 0.056004573 0.762523293
vn -0.382683 -0.923880 0.000000
vt 0.037501056 0.755451262
vn -0.923880 -0.382683 0.000000
vt 0.056004573 0.762523293
vn -0.923880 -0.382683 0.000000
vt 0.037504267 0.762523293
vn 0.382683 -0.923880 0.000000
vt 0.037491418 0.755451262
vn 0.382683 -0.923880 0.000000
vt 0.055989888 0.755451262
vn -0.382683 -0.923880 0.000000
vt 0.055990119 0.762523293
vn 0.382683 -0.923880 0.000000
vt 0.037491418 0.755451262
vn -0.382683 -0.923880 0.000000
vt 0.055990119 0.762523293
vn -0.382683 -0.923880 0.000000
vt 0.037491649 0.762523293
vn 0.923880 -0.382683 0.000000
vt 0.037504040 0.755451262
vn 0.923880 -0.382683 0.000000
vt 0.056004573 0.755451262
vn 0.382683 -0.923880 0.000000
vt 0.055997692 0.762523293
vn 0.923880 -0.382683 0.000000
vt 0.037504040 0.755451262
vn 0.382683 -0.923880 0.000000
vt 0.055997692 0.762523293
vn 0.382683 -0.923880 0.000000
vt 0.037500825 0.762523293
vn 0.923880 0.382683 0.000000
vt 0.037516888 0.755451262
vn 0.923880 0.382683 0.000000
vt 0.056018341 0.755451262
vn 0.923880 -0.382683 0.000000
vt 0.056012835 0.762523293
vn 0.923880 0.382683 0.000000
vt 0.037516888 0.755451262
vn 0.923880 -0.382683 0.000000
vt 0.056012835 0.762523293
vn 0.923880 -0.382683 0.000000
vt 0.037510693 0.762523293
vn -0.382683 0.923880 0.000000
vt 0.086358324 0.775073349
vn -0.382683 0.923880 0.000000
vt 0.066820420 0.775073349
vn -0.923880 0.382683 0.000000
vt 0.066823862 0.773023069
vn -0.382683 0.923880 0.000000
vt 0.086358324 0.775073349
vn -0.923880 0.382683 0.000000
vt 0.066823862 0.773023069
vn -0.923880 0.382683 0.000000
vt 0.086355112 0.773023069
vn 0.382683 0.923880 -0.000000
vt 0.086359009 0.777123630
vn 0.382683 0.923880 -0.000000
vt 0.066823862 0.777123630
vn -0.382683 0.923880 0.000000
vt 0.066820420 0.775073349
vn 0.382683 0.923880 -0.000000
vt 0.086359009 0.777123630
vn -0.382683 0.923880 0.000000
vt 0.066820420 0.775073349
vn -0.382683 0.923880 0.000000
vt 0.086358324 0.775073349
vn 0.923880 0.382683 -0.000000
vt 0.086357400 0.779173911
vn 0.923880 0.382683 -0.000000
vt 0.066824779 0.779173911
vn 0.382683 0.923880 -0.000000
vt 0.066823862 0.777123630
vn 0.923880 0.382683 -0.000000
vt 0.086357400 0.779173911
vn 0.382683 0.923880 -0.000000
vt 0.066823862 0.777123630
vn 0.382683 0.923880 -0.000000
vt 0.086359009 0.777123630
vn 0.923880 -0.382683 0.000000
vt 0.086342946 0.773023069
vn 0.923880 -0.382683 0.000000
vt 0.066803664 0.773023069
vn 0.923880 0.382683 -0.000000
vt 0.066814907 0.770972788
vn 0.923880 -0.382683 0.000000
vt 0.086342946 0.773023069
vn 0.923880 0.382683 -0.000000
vt 0.066814907 0.770972788
vn 0.923880 0.382683 -0.000000
vt 0.086350061 0.770972788
vn 0.382683 -0.923880 0.000000
vt 0.086326197 0.775073349
vn 0.382683 -0.923880 0.000000
vt 0.066790588 0.775073349
vn 0.923880 -0.382683 0.000000
vt 0.066803664 0.773023069
vn 0.382683 -0.923880 0.000000
vt 0.086326197 0.775073349
vn 0.923880 -0.382683 0.000000
vt 0.066803664 0.773023069
vn 0.923880 -0.382683 0.000000
vt 0.086342946 0.773023069
vn -0.382683 -0.923880 0.000000
vt 0.086326197 0.777123630
vn -0.382683 -0.923880 0.000000
vt 0.066794492 0.777123630
vn 0.382683 -0.923880 0.000000
vt 0.066790588 0.775073349
vn -0.382683 -0.923880 0.000000
vt 0.086326197 0.777123630
vn 0.382683 -0.923880 0.000000
vt 0.066790588 0.775073349
vn 0.382683 -0.923880 0.000000
vt 0.086326197 0.775073349
vn -0.923880 -0.382683 0.000000
vt 0.086333767 0.779173911
vn -0.923880 -0.382683 0.000000
vt 0.066801600 0.779173911
vn -0.382683 -0.923880 0.000000
vt 0.066794492 0.777123630
vn -0.923880 -0.382683 0.000000
vt 0.086333767 0.779173911
vn -0.382683 -0.923880 0.000000
vt 0.066794492 0.777123630
vn -0.382683 -0.923880 0.000000
vt 0.086326197 0.777123630
vn -0.923880 0.382683 0.000000
vt 0.086355112 0.773023069
vn -0.923880 0.382683 0.000000
vt 0.066823862 0.773023069
vn -0.923880 -0.382683 0.000000
vt 0.066804811 0.770972788
vn -0.923880 0.382683 0.000000
vt 0.086355112 0.773023069
vn -0.923880 -0.382683 0.000000
vt 0.066804811 0.770972788
vn -0.923880 -0.382683 0.000000
vt 0.086346850 0.770972788
vn 0.000000 0.000000 1.000000
vt 0.101987220 0.610571265
vn 0.000000 0.000000 1.000000
vt 0.096554860 0.610571265
v -1.327858 0.544364 4.904251
vn 0.000000 0.000000 1.000000
vt 0.092709422 0.606737435
vn 0.000000 0.000000 1.000000
vt 0.101987220 0.610571265
vn 0.000000 0.000000 1.000000
vt 0.092709422 0.606737435
vn 0.000000 0.000000 1.000000
vt 0.092708498 0.601315558
vn 0.000000 0.000000 1.000000
vt 0.101987220 0.610571265
vn 0.000000 0.000000 1.000000
vt 0.092708498 0.601315558
vn 0.000000 0.000000 1.000000
vt 0.096552566 0.597481668
vn 0.000000 0.000000 1.000000
vt 0.101987220 0.610571265
vn 0.000000 0.000000 1.000000
vt 0.096552566 0.597481668
v 0.525843 -1.309337 4.904251
vn 0.000000 0.000000 1.000000
vt 0.101984695 0.597481668
vn 0.000000 0.000000 1.000000
vt 0.101987220 0.610571265
vn 0.000000 0.000000 1.000000
vt 0.101984695 0.597481668
vn 0.000000 0.000000 1.000000
vt 0.105831057 0.601315558
vn 0.000000 0.000000 1.000000
vt 0.101987220 0.610571265
vn 0.000000 0.000000 1.000000
vt 0.105831057 0.601315558
vn 0.000000 0.000000 1.000000
vt 0.105831981 0.606737435
vn -0.382683 0.923880 0.000000
vt 0.134578854 0.514469743
vn -0.382683 0.923880 0.000000
vt 0.166621387 0.514367223
vn -0.923880 0.382683 0.000000
vt 0.166621387 0.505078912
vn -0.382683 0.923880 0.000000
vt 0.134578854 0.514469743
vn -0.923880 0.382683 0.000000
vt 0.166621387 0.505078912
vn -0.923880 0.382683 0.000000
vt 0.134517580 0.505181491
vn 0.382683 0.923880 -0.000000
vt 0.166610599 0.505201101
vn 0.382683 0.923880 -0.000000
vt 0.134571508 0.505059361
vn -0.382683 0.923880 0.000000
vt 0.134510472 0.514347613
vn 0.382683 0.923880 -0.000000
vt 0.166610599 0.505201101
vn -0.382683 0.923880 0.000000
vt 0.134510472 0.514347613
vn -0.382683 0.923880 0.000000
vt 0.166610837 0.514489353
vn 0.923880 0.382683 -0.000000
vt 0.134578615 0.514469743
vn 0.923880 0.382683 -0.000000
vt 0.166621611 0.514367223
vn 0.382683 0.923880 -0.000000
vt 0.166621387 0.505078912
vn 0.923880 0.382683 -0.000000
vt 0.134578615 0.514469743
vn 0.382683 0.923880 -0.000000
vt 0.166621387 0.505078912
vn 0.382683 0.923880 -0.000000
vt 0.134517819 0.505181491
vn 0.923880 -0.382683 -0.000000
vt 0.134557739 0.514469743
vn 0.923880 -0.382683 -0.000000
vt 0.166608542 0.514367223
vn 0.923880 0.382683 -0.000000
vt 0.166614041 0.505078912
vn 0.923880 -0.382683 -0.000000
vt 0.134557739 0.514469743
vn 0.923880 0.382683 -0.000000
vt 0.166614041 0.505078912
vn 0.923880 0.382683 -0.000000
vt 0.134505659 0.505181491
vn 0.382683 -0.923880 -0.000000
vt 0.134487987 0.514347613
vn 0.382683 -0.923880 -0.000000
vt 0.166602120 0.514489353
vn 0.923880 -0.382683 -0.000000
vt 0.166606247 0.505201101
vn 0.382683 -0.923880 -0.000000
vt 0.134487987 0.514347613
vn 0.923880 -0.382683 -0.000000
vt 0.166606247 0.505201101
vn 0.923880 -0.382683 -0.000000
vt 0.134555444 0.505059361
vn -0.382683 -0.923880 0.000000
vt 0.134535030 0.514469743
vn -0.382683 -0.923880 0.000000
vt 0.166594535 0.514367223
vn 0.382683 -0.923880 -0.000000
vt 0.166594535 0.505078912
vn -0.382683 -0.923880 0.000000
vt 0.134535030 0.514469743
vn 0.382683 -0.923880 -0.000000
vt 0.166594535 0.505078912
vn 0.382683 -0.923880 -0.000000
vt 0.134473756 0.505181491
vn -0.923880 -0.382683 0.000000
vt 0.134494632 0.514347613
vn -0.923880 -0.382683 0.000000
vt 0.166606247 0.514489353
vn -0.382683 -0.923880 0.000000
vt 0.166602120 0.505201101
vn -0.923880 -0.382683 0.000000
vt 0.134494632 0.514347613
vn -0.382683 -0.923880 0.000000
vt 0.166602120 0.505201101
vn -0.382683 -0.923880 0.000000
vt 0.134549022 0.505059361
vn -0.923880 0.382683 0.000000
vt 0.134505659 0.514347613
vn -0.923880 0.382683 0.000000
vt 0.166614041 0.514489353
vn -0.923880 -0.382683 0.000000
vt 0.166608542 0.505201101
vn -0.923880 0.382683 0.000000
vt 0.134505659 0.514347613
vn -0.923880 -0.382683 0.000000
vt 0.166608542 0.505201101
vn -0.923880 -0.382683 0.000000
vt 0.134557515 0.505059361
vn -0.000000 0.000000 -1.000000
vt 0.068882994 0.739923596
vn -0.000000 0.000000 -1.000000
vt 0.068888500 0.748229742
vn -0.000000 0.000000 -1.000000
vt 0.060157489 0.748229742
vn -0.000000 0.000000 -1.000000
vt 0.068882994 0.739923596
vn -0.000000 0.000000 -1.000000
vt 0.060157489 0.748229742
vn -0.000000 0.000000 -1.000000
vt 0.060146935 0.739923596
vn 0.674922 0.000000 0.737889
vt 0.060164832 0.749705017
vn 0.674922 0.000000 0.737889
vt 0.060171716 0.738448322
vn 0.674922 0.000000 0.737889
vt 0.068901576 0.738448322
vn 0.674922 0.000000 0.737889
vt 0.060164832 0.749705017
vn 0.674922 0.000000 0.737889
vt 0.068901576 0.738448322
vn 0.674922 0.000000 0.737889
vt 0.068896987 0.749705017
vn -0.000000 -1.000000 0.000000
vt 0.037489355 0.755451262
vn -0.000000 -1.000000 0.000000
vt 0.055983692 0.755451262
vn -0.000000 -1.000000 0.000000
vt 0.055983692 0.762523293
vn -0.000000 -1.000000 0.000000
vt 0.037489355 0.755451262
vn -0.000000 -1.000000 0.000000
vt 0.055983692 0.762523293
vn -0.000000 -1.000000 0.000000
vt 0.037489355 0.762523293
vn -0.000000 1.000000 0.000000
vt 0.068907313 0.736479282
vn -0.000000 1.000000 0.000000
vt 0.068907313 0.751674056
vn -0.000000 1.000000 0.000000
vt 0.060179286 0.751674056
vn -0.000000 1.000000 0.000000
vt 0.068907313 0.736479282
vn -0.000000 1.000000 0.000000
vt 0.060179286 0.751674056
vn -0.000000 1.000000 0.000000
vt 0.060179286 0.736479282
vn -0.000000 1.000000 0.000000
vt 0.037489355 0.755451262
vn -0.000000 1.000000 0.000000
vt 0.055983692 0.755451262
vn -0.000000 1.000000 0.000000
vt 0.055983692 0.762523293
vn -0.000000 1.000000 0.000000
vt 0.037489355 0.755451262
vn -0.000000 1.000000 0.000000
vt 0.055983692 0.762523293
vn -0.000000 1.000000 0.000000
vt 0.037489582 0.762523293
vn -0.000000 -1.000000 0.000000
vt 0.068855688 0.736479282
vn -0.000000 -1.000000 0.000000
vt 0.068856142 0.751674056
vn -0.000000 -1.000000 0.000000
vt 0.060128350 0.751674056
vn -0.000000 -1.000000 0.000000
vt 0.068855688 0.736479282
vn -0.000000 -1.000000 0.000000
vt 0.060128350 0.751674056
vn -0.000000 -1.000000 0.000000
vt 0.060127661 0.736479282
vn 0.000000 0.000000 -1.000000
vt 0.060146935 0.748229742
vn 0.000000 0.000000 -1.000000
vt 0.060157258 0.739923596
vn 0.000000 0.000000 -1.000000
vt 0.068888500 0.739923596
vn 0.000000 0.000000 -1.000000
vt 0.060146935 0.748229742
vn 0.000000 0.000000 -1.000000
vt 0.068888500 0.739923596
vn 0.000000 0.000000 -1.000000
vt 0.068882994 0.748229742
vn -0.674922 0.000000 0.737889
vt 0.068896987 0.738448322
vn -0.674922 0.000000 0.737889
vt 0.068901807 0.749705017
vn -0.674922 0.000000 0.737889
vt 0.060171716 0.749705017
vn -0.674922 0.000000 0.737889
vt 0.068896987 0.738448322
vn -0.674922 0.000000 0.737889
vt 0.060171716 0.749705017
vn -0.674922 0.000000 0.737889
vt 0.060165063 0.738448322
vn -0.996782 -0.080156 0.000000
vt 0.172305465 0.958212972
vn -0.996782 -0.080156 0.000000
vt 0.172273800 0.968251646
vn -0.996428 -0.080128 0.026673
vt 0.152307034 0.968137860
vn -0.996782 -0.080156 0.000000
vt 0.172305465 0.958212972
vn -0.996428 -0.080128 0.026673
vt 0.152307034 0.968137860
v -0.240949 -0.766841 -9.772525
vn -0.996428 -0.080128 0.026673
vt 0.152344897 0.958099186
vn -0.995364 -0.080042 0.053327
vt 0.132325366 0.958099186
vn -0.996428 -0.080128 0.026673
vt 0.152344897 0.958099186
vn -0.996428 -0.080128 0.026673
vt 0.152307034 0.968137860
vn 0.080156 -0.996782 0.000000
vt 0.172305465 0.958212972
vn 0.080156 -0.996782 0.000000
vt 0.172282279 0.968251646
vn 0.080128 -0.996428 0.026673
vt 0.152314842 0.968137860
vn 0.080156 -0.996782 0.000000
vt 0.172305465 0.958212972
vn 0.080128 -0.996428 0.026673
vt 0.152314842 0.968137860
v 0.735248 -0.233857 -9.772525
vn 0.080128 -0.996428 0.026673
vt 0.152344897 0.958099186
vn 0.080042 -0.995364 0.053327
vt 0.132325366 0.958099186
vn 0.080128 -0.996428 0.026673
vt 0.152344897 0.958099186
vn 0.080128 -0.996428 0.026673
vt 0.152314842 0.968137860
vn -0.080156 0.996782 -0.000000
vt 0.172305465 0.958212972
vn -0.080156 0.996782 -0.000000
vt 0.172295138 0.968251646
v -3.529719 -0.012250 -9.772525
vn -0.080128 0.996428 0.026673
vt 0.152332738 0.968137860
vn -0.080156 0.996782 -0.000000
vt 0.172305465 0.958212972
vn -0.080128 0.996428 0.026673
vt 0.152332738 0.968137860
vn -0.080128 0.996428 0.026673
vt 0.152344897 0.958099186
vn -0.080042 0.995364 0.053327
vt 0.132325366 0.958099186
vn -0.080128 0.996428 0.026673
vt 0.152344897 0.958099186
vn -0.080128 0.996428 0.026673
vt 0.152332738 0.968137860
vn -0.000000 -1.000000 0.000000
vt 0.198672876 0.162406355
vn -0.000000 -1.000000 -0.000000
vt 0.198670581 0.207304612
vn -0.000000 -1.000000 -0.000000
vt 0.193848804 0.207304612
vn -0.000000 -1.000000 0.000000
vt 0.198672876 0.162406355
vn -0.000000 -1.000000 -0.000000
vt 0.193848804 0.207304612
vn -0.000000 -1.000000 0.000000
vt 0.193850875 0.162406355
vn -0.000000 -1.000000 -0.000000
vt 0.193848804 0.162406355
vn -0.000000 -1.000000 -0.000000
vt 0.198670581 0.162406355
vn -0.000000 -1.000000 -0.000000
vt 0.196290210 0.207304612
vn 0.694662 0.694662 0.186788
vt 0.005428916 0.710866690
vn 0.694662 0.694662 0.186788
vt 0.018492047 0.711914003
vn 0.694662 0.694662 0.186788
vt 0.018431012 0.716610789
vn 0.694662 0.694662 0.186788
vt 0.005428916 0.710866690
vn 0.694662 0.694662 0.186788
vt 0.018431012 0.716610789
vn 0.694662 0.694662 0.186788
vt 0.005428687 0.717576325
vn -0.982400 0.000000 0.186788
vt 0.041184045 0.739497662
vn -0.982400 0.000000 0.186788
vt 0.054191418 0.740504146
vn -0.982400 0.000000 0.186788
vt 0.054193024 0.745200872
vn -0.982400 0.000000 0.186788
vt 0.041184045 0.739497662
vn -0.982400 0.000000 0.186788
vt 0.054193024 0.745200872
vn -0.982400 0.000000 0.186788
vt 0.041188404 0.746207356
vn 0.694662 -0.694662 0.186788
vt 0.005408724 0.710851789
vn 0.694662 -0.694662 0.186788
vt 0.018416096 0.711921692
vn 0.694662 -0.694662 0.186788
vt 0.018412884 0.716618419
vn 0.694662 -0.694662 0.186788
vt 0.005408724 0.710851789
vn 0.694662 -0.694662 0.186788
vt 0.018412884 0.716618419
vn 0.694662 -0.694662 0.186788
vt 0.005340806 0.717561364
vn 0.000000 -1.000000 0.000000
vt 0.419637114 0.888014078
vn 0.000000 -1.000000 0.000000
vt 0.403592914 0.888014078
vn 0.000000 -1.000000 0.000000
vt 0.403593838 0.917347610
vn 0.000000 -1.000000 0.000000
vt 0.419637114 0.888014078
vn 0.000000 -1.000000 0.000000
vt 0.403593838 0.917347610
vn 0.000000 -1.000000 0.000000
vt 0.419640332 0.932014346
vn -0.000000 1.000000 -0.000000
vt 0.419661671 0.932014346
vn -0.000000 1.000000 -0.000000
vt 0.403615385 0.917347610
vn -0.000000 1.000000 -0.000000
vt 0.403616309 0.888014078
vn -0.000000 1.000000 -0.000000
vt 0.419661671 0.932014346
vn -0.000000 1.000000 -0.000000
vt 0.403616309 0.888014078
vn -0.000000 1.000000 -0.000000
vt 0.419660985 0.888014078
vn -0.000000 0.000000 -1.000000
vt 0.068888269 0.739923596
vn -0.000000 0.000000 -1.000000
vt 0.068896301 0.748229742
vn -0.000000 0.000000 -1.000000
vt 0.060168274 0.748229742
vn -0.000000 0.000000 -1.000000
vt 0.068888269 0.739923596
vn -0.000000 0.000000 -1.000000
vt 0.060168274 0.748229742
vn -0.000000 0.000000 -1.000000
vt 0.060160242 0.739923596
vn 0.000000 0.674922 0.737889
vt 0.068900660 0.738448322
vn 0.000000 0.674922 0.737889
vt 0.068905480 0.749705017
vn 0.000000 0.674922 0.737889
vt 0.060177453 0.749705017
vn 0.000000 0.674922 0.737889
vt 0.068900660 0.738448322
vn 0.000000 0.674922 0.737889
vt 0.060177453 0.749705017
vn 0.000000 0.674922 0.737889
vt 0.060172632 0.738448322
vn -0.000000 0.000000 -1.000000
vt 0.060141888 0.748229742
vn -0.000000 0.000000 -1.000000
vt 0.060145788 0.739923596
vn -0.000000 0.000000 -1.000000
vt 0.068873584 0.739923596
vn -0.000000 0.000000 -1.000000
vt 0.060141888 0.748229742
vn -0.000000 0.000000 -1.000000
vt 0.068873584 0.739923596
vn -0.000000 0.000000 -1.000000
vt 0.068870142 0.748229742
vn 0.000000 -0.674922 0.737889
vt 0.060146015 0.749705017
vn 0.000000 -0.674922 0.737889
vt 0.060140509 0.738448322
vn 0.000000 -0.674922 0.737889
vt 0.068868309 0.738448322
vn 0.000000 -0.674922 0.737889
vt 0.060146015 0.749705017
vn 0.000000 -0.674922 0.737889
vt 0.068868309 0.738448322
vn 0.000000 -0.674922 0.737889
vt 0.068873815 0.749705017
vn 0.000000 1.000000 -0.000000
vt 0.198672876 0.162406355
vn 0.000000 1.000000 -0.000000
vt 0.198670581 0.207304612
vn 0.000000 1.000000 -0.000000
vt 0.193848804 0.207304612
vn 0.000000 1.000000 -0.000000
vt 0.198672876 0.162406355
vn 0.000000 1.000000 -0.000000
vt 0.193848804 0.207304612
vn 0.000000 1.000000 -0.000000
vt 0.193851098 0.162406355
vn 0.000000 1.000000 -0.000000
vt 0.193848804 0.162406355
vn 0.000000 1.000000 -0.000000
vt 0.198670581 0.162406355
vn 0.000000 1.000000 -0.000000
vt 0.196290210 0.207304612
vn -1.000000 0.000000 0.000000
vt 0.198672876 0.162406355
vn -1.000000 0.000000 0.000000
vt 0.198670581 0.207304612
vn -1.000000 0.000000 0.000000
vt 0.193848804 0.207304612
vn -1.000000 0.000000 0.000000
vt 0.198672876 0.162406355
vn -1.000000 0.000000 0.000000
vt 0.193848804 0.207304612
vn -1.000000 0.000000 0.000000
vt 0.193850875 0.162406355
vn -1.000000 0.000000 0.000000
vt 0.193848804 0.162406355
vn -1.000000 0.000000 0.000000
vt 0.198670581 0.162406355
vn -1.000000 0.000000 0.000000
vt 0.196290210 0.207304612
vn -0.080128 -0.996428 0.026673
vt 0.152436450 0.968109488
vn -0.080128 -0.996428 0.026673
vt 0.152405933 0.958070695
vn -0.080042 -0.995364 0.053327
vt 0.132386401 0.958184600
vn -0.080128 -0.996428 0.026673
vt 0.152405933 0.958070695
vn -0.080128 -0.996428 0.026673
vt 0.152436450 0.968109488
vn -0.080156 -0.996782 0.000000
vt 0.172404587 0.968109488
vn -0.080128 -0.996428 0.026673
vt 0.152405933 0.958070695
vn -0.080156 -0.996782 0.000000
vt 0.172404587 0.968109488
vn -0.080156 -0.996782 0.000000
vt 0.172366723 0.958070695
vn -0.000000 0.000000 -1.000000
vt 0.198676318 0.173630908
vn -0.000000 0.000000 -1.000000
vt 0.196348026 0.196080044
vn -0.000000 0.000000 -1.000000
vt 0.193854541 0.173630908
vn -0.694662 0.694662 0.186788
vt 0.005428687 0.710851789
vn -0.694662 0.694662 0.186788
vt 0.018431012 0.711921692
vn -0.694662 0.694662 0.186788
vt 0.018430781 0.716618419
vn -0.694662 0.694662 0.186788
vt 0.005428687 0.710851789
vn -0.694662 0.694662 0.186788
vt 0.018430781 0.716618419
vn -0.694662 0.694662 0.186788
vt 0.005367652 0.717561364
vn 0.000000 -0.982400 0.186788
vt 0.041160412 0.739497662
vn 0.000000 -0.982400 0.186788
vt 0.054174896 0.740504146
vn 0.000000 -0.982400 0.186788
vt 0.054174896 0.745200872
vn 0.000000 -0.982400 0.186788
vt 0.041160412 0.739497662
vn 0.000000 -0.982400 0.186788
vt 0.054174896 0.745200872
vn 0.000000 -0.982400 0.186788
vt 0.041160639 0.746207356
s off
f 9/13/13 10/14/14 11/15/15
f 12/16/16 13/17/17 14/18/18
f 15/19/19 16/20/20 17/21/21
f 22/574/574 21/575/575 94/576/576
s 1
f 1/1/1 2/2/2 3/3/3
f 1/4/4 3/5/5 4/6/6
s 2
f 5/7/7 6/8/8 7/9/9
f 5/10/10 7/11/11 8/12/12
s 3
f 18/22/22 19/23/23 20/24/24
f 19/25/25 18/26/26 21/27/27
f 19/28/28 21/29/29 22/30/30
s 4
f 23/31/31 24/32/32 25/33/33
f 23/34/34 25/35/35 26/36/36
f 26/37/37 25/38/38 27/39/39
f 26/40/40 27/41/41 1/42/42
f 1/43/43 27/44/44 28/45/45
f 1/46/46 28/47/47 4/48/48
f 4/49/49 28/50/50 29/51/51
f 4/52/52 29/53/53 30/54/54
f 30/55/55 29/56/56 31/57/57
f 30/58/58 31/59/59 32/60/60
f 32/61/61 31/62/62 33/63/63
f 32/64/64 33/65/65 34/66/66
f 34/67/67 33/68/68 35/69/69
f 34/70/70 35/71/71 36/72/72
f 36/73/73 35/74/74 24/75/75
f 36/76/76 24/77/77 23/78/78
s 5
f 37/79/79 38/80/80 39/81/81
f 37/82/82 39/83/83 40/84/84
s 6
f 41/85/85 42/86/86 43/87/87
f 41/88/88 43/89/89 3/90/90
s 7
f 44/91/91 45/92/92 46/93/93
f 44/94/94 46/95/95 47/96/96
s 8
f 48/97/97 49/98/98 50/99/99
f 48/100/100 50/101/101 51/102/102
f 52/103/103 53/104/104 49/105/105
f 52/106/106 49/107/107 48/108/108
f 54/109/109 55/110/110 53/111/111
f 54/112/112 53/113/113 52/114/114
f 56/115/115 57/116/116 55/117/117
f 56/118/118 55/119/119 54/120/120
f 58/121/121 59/122/122 57/123/123
f 58/124/124 57/125/125 56/126/126
f 60/127/127 61/128/128 59/129/129
f 60/130/130 59/131/131 58/132/132
f 62/133/133 63/134/134 61/135/135
f 62/136/136 61/137/137 60/138/138
f 51/139/139 50/140/140 63/141/141
f 51/142/142 63/143/143 62/144/144
s 9
f 64/145/145 65/146/146 66/147/147
f 64/148/148 66/149/149 67/150/150
f 64/151/151 67/152/152 68/153/153
f 64/154/154 68/155/155 69/156/156
f 64/157/157 69/158/158 70/159/159
f 64/160/160 70/161/161 71/162/162
s 10
f 34/163/163 47/164/164 44/165/165
f 34/166/166 44/167/167 36/168/168
s 11
f 72/169/169 73/170/170 74/171/171
f 72/172/172 74/173/173 75/174/174
s 12
f 23/175/175 76/176/176 77/177/177
f 23/178/178 77/179/179 40/180/180
s 13
f 37/181/181 78/182/182 79/183/183
f 37/184/184 79/185/185 26/186/186
s 14
f 30/187/187 80/188/188 81/189/189
f 30/190/190 81/191/191 41/192/192
s 15
f 82/193/193 83/194/194 84/195/195
f 82/196/196 84/197/197 32/198/198
s 16
f 1/199/199 8/200/200 7/201/201
f 1/202/202 7/203/203 2/204/204
s 17
f 3/205/205 6/206/206 5/207/207
f 3/208/208 5/209/209 4/210/210
s 18
f 85/211/211 86/212/212 87/213/213
f 86/214/214 85/215/215 10/216/216
f 86/217/217 10/218/218 9/219/219
s 19
f 88/220/220 89/221/221 90/222/222
f 89/223/223 88/224/224 13/225/225
f 89/226/226 13/227/227 12/228/228
s 20
f 17/229/229 91/230/230 92/231/231
f 17/232/232 92/233/233 15/234/234
f 92/235/235 91/236/236 93/237/237
s 21
f 94/238/238 21/239/239 18/240/240
f 94/241/241 18/242/242 95/243/243
f 20/244/244 95/245/245 18/246/246
s 22
f 23/247/247 40/248/248 44/249/249
f 23/250/250 44/251/251 36/252/252
f 26/253/253 37/254/254 40/255/255
f 26/256/256 40/257/257 23/258/258
f 1/259/259 2/260/260 37/261/261
f 1/262/262 37/263/263 26/264/264
f 4/265/265 3/266/266 2/267/267
f 4/268/268 2/269/269 1/270/270
f 30/271/271 41/272/272 3/273/273
f 30/274/274 3/275/275 4/276/276
f 32/277/277 82/278/278 41/279/279
f 32/280/280 41/281/281 30/282/282
f 34/283/283 47/284/284 82/285/285
f 34/286/286 82/287/287 32/288/288
f 36/289/289 44/290/290 47/291/291
f 36/292/292 47/293/293 34/294/294
s 23
f 25/295/295 48/296/296 51/297/297
f 25/298/298 51/299/299 27/300/300
f 24/301/301 52/302/302 48/303/303
f 24/304/304 48/305/305 25/306/306
f 35/307/307 54/308/308 52/309/309
f 35/310/310 52/311/311 24/312/312
f 33/313/313 56/314/314 54/315/315
f 33/316/316 54/317/317 35/318/318
f 31/319/319 58/320/320 56/321/321
f 31/322/322 56/323/323 33/324/324
f 29/325/325 60/326/326 58/327/327
f 29/328/328 58/329/329 31/330/330
f 28/331/331 62/332/332 60/333/333
f 28/334/334 60/335/335 29/336/336
f 27/337/337 51/338/338 62/339/339
f 27/340/340 62/341/341 28/342/342
s 24
f 39/343/343 38/344/344 96/345/345
f 39/346/346 96/347/347 43/348/348
f 39/349/349 43/350/350 42/351/351
f 39/352/352 42/353/353 97/354/354
f 39/355/355 97/356/356 46/357/357
f 39/358/358 46/359/359 45/360/360
s 25
f 49/361/361 71/362/362 70/363/363
f 49/364/364 70/365/365 50/366/366
f 53/367/367 64/368/368 71/369/369
f 53/370/370 71/371/371 49/372/372
f 55/373/373 65/374/374 64/375/375
f 55/376/376 64/377/377 53/378/378
f 57/379/379 66/380/380 65/381/381
f 57/382/382 65/383/383 55/384/384
f 59/385/385 67/386/386 66/387/387
f 59/388/388 66/389/389 57/390/390
f 61/391/391 68/392/392 67/393/393
f 61/394/394 67/395/395 59/396/396
f 63/397/397 69/398/398 68/399/399
f 63/400/400 68/401/401 61/402/402
f 50/403/403 70/404/404 69/405/405
f 50/406/406 69/407/407 63/408/408
s 26
f 36/409/409 72/410/410 75/411/411
f 36/412/412 75/413/413 34/414/414
s 27
f 47/415/415 74/416/416 73/417/417
f 47/418/418 73/419/419 44/420/420
s 28
f 23/421/421 40/422/422 37/423/423
f 23/424/424 37/425/425 26/426/426
s 29
f 79/427/427 78/428/428 77/429/429
f 79/430/430 77/431/431 76/432/432
s 30
f 30/433/433 41/434/434 82/435/435
f 30/436/436 82/437/437 32/438/438
s 31
f 84/439/439 83/440/440 81/441/441
f 84/442/442 81/443/443 80/444/444
s 32
f 4/445/445 5/446/446 8/447/447
f 4/448/448 8/449/449 1/450/450
s 33
f 2/451/451 7/452/452 6/453/453
f 2/454/454 6/455/455 3/456/456
s 34
f 11/457/457 10/458/458 85/459/459
f 11/460/460 85/461/461 98/462/462
f 87/463/463 98/464/464 85/465/465
s 35
f 14/466/466 13/467/467 88/468/468
f 14/469/469 88/470/470 99/471/471
f 90/472/472 99/473/473 88/474/474
s 36
f 17/475/475 16/476/476 100/477/477
f 17/478/478 100/479/479 91/480/480
f 93/481/481 91/482/482 100/483/483
s 37
f 94/484/484 95/485/485 19/486/486
f 94/487/487 19/488/488 22/489/489
f 19/490/490 95/491/491 20/492/492
s 38
f 40/493/493 39/494/494 45/495/495
f 40/496/496 45/497/497 44/498/498
s 39
f 3/499/499 43/500/500 96/501/501
f 3/502/502 96/503/503 2/504/504
s 40
f 47/505/505 46/506/506 97/507/507
f 47/508/508 97/509/509 82/510/510
s 41
f 34/511/511 75/512/512 74/513/513
f 34/514/514 74/515/515 47/516/516
s 42
f 44/517/517 73/518/518 72/519/519
f 44/520/520 72/521/521 36/522/522
s 43
f 26/523/523 79/524/524 76/525/525
f 26/526/526 76/527/527 23/528/528
s 44
f 40/529/529 77/530/530 78/531/531
f 40/532/532 78/533/533 37/534/534
s 45
f 32/535/535 84/536/536 80/537/537
f 32/538/538 80/539/539 30/540/540
s 46
f 41/541/541 81/542/542 83/543/543
f 41/544/544 83/545/545 82/546/546
s 47
f 11/547/547 98/548/548 86/549/549
f 11/550/550 86/551/551 9/552/552
f 86/553/553 98/554/554 87/555/555
s 48
f 14/556/556 99/557/557 89/558/558
f 14/559/559 89/560/560 12/561/561
f 89/562/562 99/563/563 90/564/564
s 49
f 100/565/565 92/566/566 93/567/567
f 92/568/568 100/569/569 16/570/570
f 92/571/571 16/572/572 15/573/573
s 50
f 2/577/577 96/578/578 38/579/579
f 2/580/580 38/581/581 37/582/582
s 51
f 82/583/583 97/584/584 42/585/585
f 82/586/586 42/587/587 41/588/588
