# Spring Unit export, Created by Beherith mysterme@gmail.com with the help of Muon 
# arguments of an object 'o' piecename:
# Mxyz = midpoint of an s3o
# r = unit radius
# h = height
#			 t1 t2 = textures 1 and 2
# Oxyz = piece offset
# p = parent
o empty_root_piece,ox=0.00,oy=0.00,oz=0.00,p=,mx=0.00,my=0.00,mz=0.00,r=1.60,h=2.00,t1=cor_color.dds,t2=cor_other.dds
v -0.920484 0.392654 2.010237
vn 1.000000 0.000000 0.000000
vt 0.121285342 0.521823943
v -0.920484 0.392654 4.062345
vn 1.000000 0.000000 0.000000
vt 0.141554758 0.521823943
v -0.920484 -0.392654 4.062345
vn 1.000000 0.000000 0.000000
vt 0.141545802 0.529584229
vn 1.000000 0.000000 0.000000
vt 0.121285342 0.521823943
vn 1.000000 0.000000 0.000000
vt 0.141545802 0.529584229
v -0.920484 -0.392654 2.010237
vn 1.000000 0.000000 0.000000
vt 0.121278465 0.529584229
v -1.668337 -0.392654 2.010237
vn -1.000000 0.000000 0.000000
vt 0.077080056 0.911865294
v -1.668337 -0.392654 3.378309
vn -1.000000 0.000000 0.000000
vt 0.077080287 0.923833370
v -1.668337 0.392654 3.378309
vn -1.000000 0.000000 0.000000
vt 0.070185155 0.923833370
vn -1.000000 0.000000 0.000000
vt 0.077080056 0.911865294
vn -1.000000 0.000000 0.000000
vt 0.070185155 0.923833370
v -1.668337 0.392654 2.010237
vn -1.000000 0.000000 0.000000
vt 0.070184924 0.911865294
v 0.420120 0.947950 2.010237
vn 0.347611 0.839207 0.418207
vt 0.127481788 0.522407472
v 0.616447 1.421926 0.895936
vn 0.347611 0.839207 0.418207
vt 0.125544265 0.510671794
v -0.561515 1.421926 0.895936
vn -0.347611 0.839207 0.418207
vt 0.136957839 0.510671794
vn 0.347611 0.839207 0.418207
vt 0.127481788 0.522407472
vn -0.347611 0.839207 0.418207
vt 0.136957839 0.510671794
v -0.365188 0.947950 2.010237
vn -0.347611 0.839207 0.418207
vt 0.135050148 0.522407472
vn -0.347611 0.839207 0.418207
vt 0.131817356 0.524158001
vn -0.347611 0.839207 0.418207
vt 0.125788406 0.513923228
v -1.394459 0.588981 0.895936
vn -0.839207 0.347611 0.418207
vt 0.136408523 0.509762108
vn -0.347611 0.839207 0.418207
vt 0.131817356 0.524158001
vn -0.839207 0.347611 0.418207
vt 0.136408523 0.509762108
vn -0.839207 0.347611 0.418207
vt 0.138897434 0.521383941
vn -0.839207 0.347611 0.418207
vt 0.127479956 0.522407472
vn -0.839207 0.347611 0.418207
vt 0.125539914 0.510671794
v -1.394459 -0.588981 0.895936
vn -0.839207 -0.347611 0.418207
vt 0.136949345 0.510671794
vn -0.839207 0.347611 0.418207
vt 0.127479956 0.522407472
vn -0.839207 -0.347611 0.418207
vt 0.136949345 0.510671794
vn -0.839207 -0.347611 0.418207
vt 0.135040283 0.522407472
vn -0.839207 -0.347611 0.418207
vt 0.131798536 0.524158001
vn -0.839207 -0.347611 0.418207
vt 0.125767305 0.513923228
v -0.561515 -1.421926 0.895936
vn -0.347611 -0.839207 0.418207
vt 0.136376634 0.509762108
vn -0.839207 -0.347611 0.418207
vt 0.131798536 0.524158001
vn -0.347611 -0.839207 0.418207
vt 0.136376634 0.509762108
v -0.365188 -0.947950 2.010237
vn -0.347611 -0.839207 0.418207
vt 0.138877243 0.521383941
vn -0.347611 -0.839207 0.418207
vt 0.127456546 0.522407472
vn -0.347611 -0.839207 0.418207
vt 0.125504568 0.510671794
v 0.616447 -1.421926 0.895936
vn 0.347611 -0.839207 0.418207
vt 0.136918381 0.510671794
vn -0.347611 -0.839207 0.418207
vt 0.127456546 0.522407472
vn 0.347611 -0.839207 0.418207
vt 0.136918381 0.510671794
v 0.420120 -0.947950 2.010237
vn 0.347611 -0.839207 0.418207
vt 0.135024905 0.522407472
vn 0.347611 -0.839207 0.418207
vt 0.123618446 0.521383941
vn 0.347611 -0.839207 0.418207
vt 0.126122728 0.509762108
v 1.449391 -0.588981 0.895936
vn 0.839207 -0.347611 0.418207
vt 0.136753634 0.513923228
vn 0.347611 -0.839207 0.418207
vt 0.123618446 0.521383941
vn 0.839207 -0.347611 0.418207
vt 0.136753634 0.513923228
v 0.975416 -0.392654 2.010237
vn 0.839207 -0.347611 0.418207
vt 0.130699903 0.524158001
vn 0.839207 -0.347611 0.418207
vt 0.127471700 0.522407472
vn 0.839207 -0.347611 0.418207
vt 0.125535548 0.510671794
v 1.449391 0.588981 0.895936
vn 0.839207 0.347611 0.418207
vt 0.136953488 0.510671794
vn 0.839207 -0.347611 0.418207
vt 0.127471700 0.522407472
vn 0.839207 0.347611 0.418207
vt 0.136953488 0.510671794
v 0.975416 0.392654 2.010237
vn 0.839207 0.347611 0.418207
vt 0.135048315 0.522407472
vn 0.839207 0.347611 0.418207
vt 0.123638637 0.521383941
vn 0.839207 0.347611 0.418207
vt 0.126154393 0.509762108
vn 0.347611 0.839207 0.418207
vt 0.136774734 0.513923228
vn 0.839207 0.347611 0.418207
vt 0.123638637 0.521383941
vn 0.347611 0.839207 0.418207
vt 0.136774734 0.513923228
vn 0.347611 0.839207 0.418207
vt 0.130718723 0.524158001
v -0.365188 0.947950 4.062345
vn 0.000000 0.982400 0.186788
vt 0.135063916 0.509161949
v -0.247392 0.663565 5.558050
vn 0.000000 0.982400 0.186788
vt 0.133969873 0.523917377
v 0.302324 0.663565 5.558050
vn 0.000000 0.982400 0.186788
vt 0.128599003 0.523917377
vn 0.000000 0.982400 0.186788
vt 0.135063916 0.509161949
vn 0.000000 0.982400 0.186788
vt 0.128599003 0.523917377
v 0.420120 0.947950 4.062345
vn 0.000000 0.982400 0.186788
vt 0.127495557 0.509161949
v -0.365188 -0.947950 4.062345
vn -0.694662 -0.694662 0.186788
vt 0.135102242 0.510217965
v -0.247392 -0.663565 5.558050
vn -0.694662 -0.694662 0.186788
vt 0.131265059 0.524512887
v -0.636099 -0.274858 5.558050
vn -0.694662 -0.694662 0.186788
vt 0.126019016 0.523534715
vn -0.694662 -0.694662 0.186788
vt 0.135102242 0.510217965
vn -0.694662 -0.694662 0.186788
vt 0.126019016 0.523534715
vn -0.694662 -0.694662 0.186788
vt 0.127600655 0.508820534
v 0.975416 0.392654 4.062345
vn 0.982400 0.000000 0.186788
vt 0.135059789 0.509161949
v 0.691031 0.274858 5.558050
vn 0.982400 0.000000 0.186788
vt 0.133964598 0.523917377
v 0.691031 -0.274858 5.558050
vn 0.982400 0.000000 0.186788
vt 0.128591895 0.523917377
vn 0.982400 0.000000 0.186788
vt 0.135059789 0.509161949
vn 0.982400 0.000000 0.186788
vt 0.128591895 0.523917377
v 0.975416 -0.392654 4.062345
vn 0.982400 0.000000 0.186788
vt 0.127487063 0.509161949
v 0.420120 0.947950 -3.591181
vn -0.000000 0.000000 -1.000000
vt 0.354305416 0.666598201
v 0.975416 0.392654 -3.591181
vn -0.000000 0.000000 -1.000000
vt 0.350398242 0.662680328
v 0.975416 -0.392654 -3.591181
vn -0.000000 0.000000 -1.000000
vt 0.350396633 0.657139599
vn -0.000000 0.000000 -1.000000
vt 0.354305416 0.666598201
vn -0.000000 0.000000 -1.000000
vt 0.350396633 0.657139599
v 0.420120 -0.947950 -3.591181
vn -0.000000 0.000000 -1.000000
vt 0.354300350 0.653221726
vn -0.000000 0.000000 -1.000000
vt 0.354305416 0.666598201
vn -0.000000 0.000000 -1.000000
vt 0.354300350 0.653221726
v -0.365188 -0.947950 -3.591181
vn -0.000000 0.000000 -1.000000
vt 0.359854549 0.653221726
vn -0.000000 0.000000 -1.000000
vt 0.354305416 0.666598201
vn -0.000000 0.000000 -1.000000
vt 0.359854549 0.653221726
v -0.920484 -0.392654 -3.591181
vn -0.000000 0.000000 -1.000000
vt 0.363763332 0.657139599
vn -0.000000 0.000000 -1.000000
vt 0.354305416 0.666598201
vn -0.000000 0.000000 -1.000000
vt 0.363763332 0.657139599
v -0.920484 0.392654 -3.591181
vn -0.000000 0.000000 -1.000000
vt 0.363764942 0.662680328
vn -0.000000 0.000000 -1.000000
vt 0.354305416 0.666598201
vn -0.000000 0.000000 -1.000000
vt 0.363764942 0.662680328
v -0.365188 0.947950 -3.591181
vn -0.000000 0.000000 -1.000000
vt 0.359859616 0.666598201
vn -0.000000 0.000000 -1.000000
vt 0.002163306 0.515274346
v 1.723269 0.392654 2.010237
vn -0.000000 0.000000 -1.000000
vt 0.002172714 0.501685023
v 1.723269 -0.392654 2.010237
vn -0.000000 0.000000 -1.000000
vt 0.016450122 0.501685023
vn -0.000000 0.000000 -1.000000
vt 0.002163306 0.515274346
vn -0.000000 0.000000 -1.000000
vt 0.016450122 0.501685023
vn -0.000000 0.000000 -1.000000
vt 0.016437961 0.515274346
vn 0.674922 0.000000 0.737889
vt 0.002547185 0.610946655
v 1.723269 -0.392654 3.378309
vn 0.674922 0.000000 0.737889
vt 0.002553610 0.628260374
v 1.723269 0.392654 3.378309
vn 0.674922 0.000000 0.737889
vt 0.015983410 0.628260374
vn 0.674922 0.000000 0.737889
vt 0.002547185 0.610946655
vn 0.674922 0.000000 0.737889
vt 0.015983410 0.628260374
vn 0.674922 0.000000 0.737889
vt 0.015979050 0.610946655
vn -0.000000 -1.000000 0.000000
vt 0.121285342 0.521823943
vn -0.000000 -1.000000 0.000000
vt 0.141554758 0.521823943
vn -0.000000 -1.000000 0.000000
vt 0.141554981 0.529584229
vn -0.000000 -1.000000 0.000000
vt 0.121285342 0.521823943
vn -0.000000 -1.000000 0.000000
vt 0.141554981 0.529584229
vn -0.000000 -1.000000 0.000000
vt 0.121285342 0.529584229
v -0.365188 1.695803 2.010237
vn -0.000000 1.000000 0.000000
vt 0.077086024 0.911865294
v -0.365188 1.695803 3.378309
vn -0.000000 1.000000 0.000000
vt 0.077086024 0.923833370
v 0.420120 1.695803 3.378309
vn -0.000000 1.000000 0.000000
vt 0.070189051 0.923833370
vn -0.000000 1.000000 0.000000
vt 0.077086024 0.911865294
vn -0.000000 1.000000 0.000000
vt 0.070189051 0.923833370
v 0.420120 1.695803 2.010237
vn -0.000000 1.000000 0.000000
vt 0.070189051 0.911865294
vn -1.000000 0.000000 0.000000
vt 0.115379393 0.970005512
v -0.365188 -1.695803 2.010237
vn -1.000000 0.000000 0.000000
vt 0.123074636 0.970005512
v -0.365188 -1.695803 3.378309
vn -1.000000 0.000000 0.000000
vt 0.123076707 0.984144270
vn -1.000000 0.000000 0.000000
vt 0.115379393 0.970005512
vn -1.000000 0.000000 0.000000
vt 0.123076707 0.984144270
vn -1.000000 0.000000 0.000000
vt 0.115386501 0.991213679
v 0.420120 -0.947950 4.062345
vn 1.000000 0.000000 -0.000000
vt 0.115386277 0.991213679
v 0.420120 -1.695803 3.378309
vn 1.000000 0.000000 -0.000000
vt 0.123076707 0.984144270
v 0.420120 -1.695803 2.010237
vn 1.000000 0.000000 -0.000000
vt 0.123074867 0.970005512
vn 1.000000 0.000000 -0.000000
vt 0.115386277 0.991213679
vn 1.000000 0.000000 -0.000000
vt 0.123074867 0.970005512
vn 1.000000 0.000000 -0.000000
vt 0.115379393 0.970005512
vn 0.000000 1.000000 -0.000000
vt 0.115394764 0.970005512
vn 0.000000 1.000000 -0.000000
vt 0.123095289 0.970005512
vn 0.000000 1.000000 -0.000000
vt 0.123096898 0.984144270
vn 0.000000 1.000000 -0.000000
vt 0.115394764 0.970005512
vn 0.000000 1.000000 -0.000000
vt 0.123096898 0.984144270
vn 0.000000 1.000000 -0.000000
vt 0.115400732 0.991213679
vn -0.000000 -1.000000 0.000000
vt 0.115379393 0.991213679
vn -0.000000 -1.000000 0.000000
vt 0.123074412 0.984144270
vn -0.000000 -1.000000 0.000000
vt 0.123072118 0.970005512
vn -0.000000 -1.000000 0.000000
vt 0.115379393 0.991213679
vn -0.000000 -1.000000 0.000000
vt 0.123072118 0.970005512
vn -0.000000 -1.000000 0.000000
vt 0.115374804 0.970005512
vn 0.382683 0.923880 -0.000000
vt 0.121323206 0.521823943
vn 0.382683 0.923880 -0.000000
vt 0.141595826 0.521823943
vn 0.923880 0.382683 -0.000000
vt 0.141595826 0.529584229
vn 0.382683 0.923880 -0.000000
vt 0.121323206 0.521823943
vn 0.923880 0.382683 -0.000000
vt 0.141595826 0.529584229
vn 0.923880 0.382683 -0.000000
vt 0.121323206 0.529584229
vn -0.382683 0.923880 -0.000000
vt 0.121317931 0.521823943
vn -0.382683 0.923880 -0.000000
vt 0.141592607 0.521823943
vn 0.382683 0.923880 -0.000000
vt 0.141592607 0.529584229
vn -0.382683 0.923880 -0.000000
vt 0.121317931 0.521823943
vn 0.382683 0.923880 -0.000000
vt 0.141592607 0.529584229
vn 0.382683 0.923880 -0.000000
vt 0.121317700 0.529584229
vn -0.923880 0.382683 -0.000000
vt 0.121322975 0.521823943
vn -0.923880 0.382683 -0.000000
vt 0.141595602 0.521823943
vn -0.382683 0.923880 -0.000000
vt 0.141595826 0.529584229
vn -0.923880 0.382683 -0.000000
vt 0.121322975 0.521823943
vn -0.382683 0.923880 -0.000000
vt 0.141595826 0.529584229
vn -0.382683 0.923880 -0.000000
vt 0.121323206 0.529584229
vn -0.923880 -0.382683 0.000000
vt 0.121307835 0.521823943
vn -0.923880 -0.382683 0.000000
vt 0.141583443 0.521823943
vn -0.923880 0.382683 -0.000000
vt 0.141589165 0.529584229
vn -0.923880 -0.382683 0.000000
vt 0.121307835 0.521823943
vn -0.923880 0.382683 -0.000000
vt 0.141589165 0.529584229
vn -0.923880 0.382683 -0.000000
vt 0.121315405 0.529584229
vn -0.382683 -0.923880 0.000000
vt 0.121299803 0.521823943
vn -0.382683 -0.923880 0.000000
vt 0.141569436 0.521823943
vn -0.923880 -0.382683 0.000000
vt 0.141574949 0.529584229
vn -0.382683 -0.923880 0.000000
vt 0.121299803 0.521823943
vn -0.923880 -0.382683 0.000000
vt 0.141574949 0.529584229
vn -0.923880 -0.382683 0.000000
vt 0.121303469 0.529584229
vn 0.382683 -0.923880 0.000000
vt 0.121291541 0.521823943
vn 0.382683 -0.923880 0.000000
vt 0.141562328 0.521823943
vn -0.382683 -0.923880 0.000000
vt 0.141562328 0.529584229
vn 0.382683 -0.923880 0.000000
vt 0.121291541 0.521823943
vn -0.382683 -0.923880 0.000000
vt 0.141562328 0.529584229
vn -0.382683 -0.923880 0.000000
vt 0.121291541 0.529584229
vn 0.923880 -0.382683 0.000000
vt 0.121303469 0.521823943
vn 0.923880 -0.382683 0.000000
vt 0.141575173 0.521823943
vn 0.382683 -0.923880 0.000000
vt 0.141569436 0.529584229
vn 0.923880 -0.382683 0.000000
vt 0.121303469 0.521823943
vn 0.382683 -0.923880 0.000000
vt 0.141569436 0.529584229
vn 0.382683 -0.923880 0.000000
vt 0.121299803 0.529584229
vn 0.923880 0.382683 -0.000000
vt 0.121315405 0.521823943
vn 0.923880 0.382683 -0.000000
vt 0.141589165 0.521823943
vn 0.923880 -0.382683 0.000000
vt 0.141583443 0.529584229
vn 0.923880 0.382683 -0.000000
vt 0.121315405 0.521823943
vn 0.923880 -0.382683 0.000000
vt 0.141583443 0.529584229
vn 0.923880 -0.382683 0.000000
vt 0.121307835 0.529584229
v -0.561515 1.421926 -2.843328
vn -0.315568 0.761849 -0.565689
vt 0.126097262 0.516634881
vn -0.315568 0.761849 -0.565689
vt 0.131773531 0.509967744
vn -0.761849 0.315568 -0.565689
vt 0.138487399 0.513559699
vn -0.315568 0.761849 -0.565689
vt 0.126097262 0.516634881
vn -0.761849 0.315568 -0.565689
vt 0.138487399 0.513559699
v -1.394459 0.588981 -2.843328
vn -0.761849 0.315568 -0.565689
vt 0.136168063 0.522022843
v 0.616447 1.421926 -2.843328
vn 0.315568 0.761849 -0.565689
vt 0.125547945 0.520830095
vn 0.315568 0.761849 -0.565689
vt 0.127501070 0.512249172
vn -0.315568 0.761849 -0.565689
vt 0.135069430 0.512249172
vn 0.315568 0.761849 -0.565689
vt 0.125547945 0.520830095
vn -0.315568 0.761849 -0.565689
vt 0.135069430 0.512249172
vn -0.315568 0.761849 -0.565689
vt 0.136961520 0.520830095
v 1.449391 0.588981 -2.843328
vn 0.761849 0.315568 -0.565689
vt 0.126402438 0.522022843
vn 0.761849 0.315568 -0.565689
vt 0.124022059 0.513559699
vn 0.315568 0.761849 -0.565689
vt 0.130735934 0.509967744
vn 0.761849 0.315568 -0.565689
vt 0.126402438 0.522022843
vn 0.315568 0.761849 -0.565689
vt 0.130735934 0.509967744
vn 0.315568 0.761849 -0.565689
vt 0.136473238 0.516634881
v 1.449391 -0.588981 -2.843328
vn 0.761849 -0.315568 -0.565689
vt 0.125542209 0.520830095
vn 0.761849 -0.315568 -0.565689
vt 0.127496243 0.512249172
vn 0.761849 0.315568 -0.565689
vt 0.135066435 0.512249172
vn 0.761849 -0.315568 -0.565689
vt 0.125542209 0.520830095
vn 0.761849 0.315568 -0.565689
vt 0.135066435 0.512249172
vn 0.761849 0.315568 -0.565689
vt 0.136958763 0.520830095
v 0.616447 -1.421926 -2.843328
vn 0.315568 -0.761849 -0.565689
vt 0.126376957 0.522022843
vn 0.315568 -0.761849 -0.565689
vt 0.124003932 0.513559699
vn 0.761849 -0.315568 -0.565689
vt 0.130722612 0.509967744
vn 0.315568 -0.761849 -0.565689
vt 0.126376957 0.522022843
vn 0.761849 -0.315568 -0.565689
vt 0.130722612 0.509967744
vn 0.761849 -0.315568 -0.565689
vt 0.136457860 0.516634881
v -0.561515 -1.421926 -2.843328
vn -0.315568 -0.761849 -0.565689
vt 0.125515580 0.520830095
vn -0.315568 -0.761849 -0.565689
vt 0.127477661 0.512249172
vn 0.315568 -0.761849 -0.565689
vt 0.135046020 0.512249172
vn -0.315568 -0.761849 -0.565689
vt 0.125515580 0.520830095
vn 0.315568 -0.761849 -0.565689
vt 0.135046020 0.512249172
vn 0.315568 -0.761849 -0.565689
vt 0.136929154 0.520830095
v -1.394459 -0.588981 -2.843328
vn -0.761849 -0.315568 -0.565689
vt 0.126081660 0.516634881
vn -0.761849 -0.315568 -0.565689
vt 0.131760210 0.509967744
vn -0.315568 -0.761849 -0.565689
vt 0.138469502 0.513559699
vn -0.761849 -0.315568 -0.565689
vt 0.126081660 0.516634881
vn -0.315568 -0.761849 -0.565689
vt 0.138469502 0.513559699
vn -0.315568 -0.761849 -0.565689
vt 0.136142582 0.522022843
vn -0.761849 0.315568 -0.565689
vt 0.125545189 0.520830095
vn -0.761849 0.315568 -0.565689
vt 0.127498075 0.512249172
vn -0.761849 -0.315568 -0.565689
vt 0.135064602 0.512249172
vn -0.761849 0.315568 -0.565689
vt 0.125545189 0.520830095
vn -0.761849 -0.315568 -0.565689
vt 0.135064602 0.512249172
vn -0.761849 -0.315568 -0.565689
vt 0.136955783 0.520830095
vn 0.000000 0.000000 1.000000
vt 0.333552986 0.666864932
vn 0.000000 0.000000 1.000000
vt 0.327632576 0.666864932
v -0.636099 0.274858 5.558050
vn 0.000000 0.000000 1.000000
vt 0.323481500 0.662690699
vn 0.000000 0.000000 1.000000
vt 0.333552986 0.666864932
vn 0.000000 0.000000 1.000000
vt 0.323481500 0.662690699
vn 0.000000 0.000000 1.000000
vt 0.323480368 0.656787455
vn 0.000000 0.000000 1.000000
vt 0.333552986 0.666864932
vn 0.000000 0.000000 1.000000
vt 0.323480368 0.656787455
vn 0.000000 0.000000 1.000000
vt 0.327629387 0.652613223
vn 0.000000 0.000000 1.000000
vt 0.333552986 0.666864932
vn 0.000000 0.000000 1.000000
vt 0.327629387 0.652613223
v 0.302324 -0.663565 5.558050
vn 0.000000 0.000000 1.000000
vt 0.333549798 0.652613223
vn 0.000000 0.000000 1.000000
vt 0.333552986 0.666864932
vn 0.000000 0.000000 1.000000
vt 0.333549798 0.652613223
vn 0.000000 0.000000 1.000000
vt 0.337701559 0.656787455
vn 0.000000 0.000000 1.000000
vt 0.333552986 0.666864932
vn 0.000000 0.000000 1.000000
vt 0.337701559 0.656787455
vn 0.000000 0.000000 1.000000
vt 0.337702692 0.662690699
vn 0.000000 -1.000000 0.000000
vt 0.115375035 0.970005512
vn 0.000000 -1.000000 0.000000
vt 0.123072118 0.970005512
vn 0.000000 -1.000000 0.000000
vt 0.123074181 0.984144270
vn 0.000000 -1.000000 0.000000
vt 0.115375035 0.970005512
vn 0.000000 -1.000000 0.000000
vt 0.123074181 0.984144270
vn 0.000000 -1.000000 0.000000
vt 0.115379393 0.991213679
vn -0.000000 1.000000 -0.000000
vt 0.115400963 0.991213679
vn -0.000000 1.000000 -0.000000
vt 0.123096898 0.984144270
vn -0.000000 1.000000 -0.000000
vt 0.123095520 0.970005512
vn -0.000000 1.000000 -0.000000
vt 0.115400963 0.991213679
vn -0.000000 1.000000 -0.000000
vt 0.123095520 0.970005512
vn -0.000000 1.000000 -0.000000
vt 0.115394995 0.970005512
vn 1.000000 0.000000 0.000000
vt 0.115394995 0.970005512
vn 1.000000 0.000000 0.000000
vt 0.123095520 0.970005512
vn 1.000000 0.000000 0.000000
vt 0.123096898 0.984144270
vn 1.000000 0.000000 0.000000
vt 0.115394995 0.970005512
vn 1.000000 0.000000 0.000000
vt 0.123096898 0.984144270
vn 1.000000 0.000000 0.000000
vt 0.115400732 0.991213679
vn -1.000000 0.000000 0.000000
vt 0.115400963 0.991213679
vn -1.000000 0.000000 0.000000
vt 0.123096898 0.984144270
vn -1.000000 0.000000 0.000000
vt 0.123095289 0.970005512
vn -1.000000 0.000000 0.000000
vt 0.115400963 0.991213679
vn -1.000000 0.000000 0.000000
vt 0.123095289 0.970005512
vn -1.000000 0.000000 0.000000
vt 0.115394995 0.970005512
vn -0.000000 1.000000 0.000000
vt 0.121285118 0.521823943
vn -0.000000 1.000000 0.000000
vt 0.141554758 0.521823943
vn -0.000000 1.000000 0.000000
vt 0.141554758 0.529584229
vn -0.000000 1.000000 0.000000
vt 0.121285118 0.521823943
vn -0.000000 1.000000 0.000000
vt 0.141554758 0.529584229
vn -0.000000 1.000000 0.000000
vt 0.121285342 0.529584229
vn -0.000000 -1.000000 0.000000
vt 0.077038758 0.911865294
vn -0.000000 -1.000000 0.000000
vt 0.077039674 0.923833370
vn -0.000000 -1.000000 0.000000
vt 0.070142932 0.923833370
vn -0.000000 -1.000000 0.000000
vt 0.077038758 0.911865294
vn -0.000000 -1.000000 0.000000
vt 0.070142932 0.923833370
vn -0.000000 -1.000000 0.000000
vt 0.070142016 0.911865294
vn 0.000000 0.000000 -1.000000
vt 0.016437961 0.515274346
vn 0.000000 0.000000 -1.000000
vt 0.016450122 0.501685023
vn 0.000000 0.000000 -1.000000
vt 0.002172714 0.501685023
vn 0.000000 0.000000 -1.000000
vt 0.016437961 0.515274346
vn 0.000000 0.000000 -1.000000
vt 0.002172714 0.501685023
vn 0.000000 0.000000 -1.000000
vt 0.002163077 0.515274346
vn -0.674922 0.000000 0.737889
vt 0.015979050 0.610946655
vn -0.674922 0.000000 0.737889
vt 0.015983639 0.628260374
vn -0.674922 0.000000 0.737889
vt 0.002553610 0.628260374
vn -0.674922 0.000000 0.737889
vt 0.015979050 0.610946655
vn -0.674922 0.000000 0.737889
vt 0.002553610 0.628260374
vn -0.674922 0.000000 0.737889
vt 0.002547415 0.610946655
vn 0.694662 0.694662 0.186788
vt 0.135128617 0.510217965
vn 0.694662 0.694662 0.186788
vt 0.131285012 0.524512887
vn 0.694662 0.694662 0.186788
vt 0.126035988 0.523534715
vn 0.694662 0.694662 0.186788
vt 0.135128617 0.510217965
vn 0.694662 0.694662 0.186788
vt 0.126035988 0.523534715
vn 0.694662 0.694662 0.186788
vt 0.127621070 0.508820534
vn -0.694662 0.694662 0.186788
vt 0.134884253 0.508820534
vn -0.694662 0.694662 0.186788
vt 0.136473000 0.523534715
vn -0.694662 0.694662 0.186788
vt 0.131223753 0.524512887
vn -0.694662 0.694662 0.186788
vt 0.134884253 0.508820534
vn -0.694662 0.694662 0.186788
vt 0.131223753 0.524512887
vn -0.694662 0.694662 0.186788
vt 0.127437964 0.510217965
vn 0.694662 -0.694662 0.186788
vt 0.134863839 0.508820534
vn 0.694662 -0.694662 0.186788
vt 0.136456028 0.523534715
vn 0.694662 -0.694662 0.186788
vt 0.131204024 0.524512887
vn 0.694662 -0.694662 0.186788
vt 0.134863839 0.508820534
vn 0.694662 -0.694662 0.186788
vt 0.131204024 0.524512887
vn 0.694662 -0.694662 0.186788
vt 0.127411574 0.510217965
vn -0.382683 0.923880 0.000000
vt 0.080381691 0.775655746
vn -0.382683 0.923880 0.000000
vt 0.061399989 0.775655746
vn -0.923880 0.382683 0.000000
vt 0.061399989 0.771376789
vn -0.382683 0.923880 0.000000
vt 0.080381691 0.775655746
vn -0.923880 0.382683 0.000000
vt 0.061399989 0.771376789
vn -0.923880 0.382683 0.000000
vt 0.080381006 0.771376789
vn 0.382683 0.923880 -0.000000
vt 0.080381468 0.779934764
vn 0.382683 0.923880 -0.000000
vt 0.061399989 0.779934764
vn -0.382683 0.923880 0.000000
vt 0.061399989 0.775655746
vn 0.382683 0.923880 -0.000000
vt 0.080381468 0.779934764
vn -0.382683 0.923880 0.000000
vt 0.061399989 0.775655746
vn -0.382683 0.923880 0.000000
vt 0.080381691 0.775655746
vn 0.923880 0.382683 -0.000000
vt 0.080381922 0.784213722
vn 0.923880 0.382683 -0.000000
vt 0.061399989 0.784213722
vn 0.382683 0.923880 -0.000000
vt 0.061399989 0.779934764
vn 0.923880 0.382683 -0.000000
vt 0.080381922 0.784213722
vn 0.382683 0.923880 -0.000000
vt 0.061399989 0.779934764
vn 0.382683 0.923880 -0.000000
vt 0.080381468 0.779934764
vn 0.923880 -0.382683 0.000000
vt 0.080368385 0.771376789
vn 0.923880 -0.382683 0.000000
vt 0.061384156 0.771376789
vn 0.923880 0.382683 -0.000000
vt 0.061395861 0.767097771
vn 0.923880 -0.382683 0.000000
vt 0.080368385 0.771376789
vn 0.923880 0.382683 -0.000000
vt 0.061395861 0.767097771
vn 0.923880 0.382683 -0.000000
vt 0.080376416 0.767097771
vn 0.382683 -0.923880 0.000000
vt 0.080343604 0.775655746
vn 0.382683 -0.923880 0.000000
vt 0.061361901 0.775655746
vn 0.923880 -0.382683 0.000000
vt 0.061384156 0.771376789
vn 0.382683 -0.923880 0.000000
vt 0.080343604 0.775655746
vn 0.923880 -0.382683 0.000000
vt 0.061384156 0.771376789
vn 0.923880 -0.382683 0.000000
vt 0.080368385 0.771376789
vn -0.382683 -0.923880 0.000000
vt 0.080339015 0.779934764
vn -0.382683 -0.923880 0.000000
vt 0.061365571 0.779934764
vn 0.382683 -0.923880 0.000000
vt 0.061361901 0.775655746
vn -0.382683 -0.923880 0.000000
vt 0.080339015 0.779934764
vn 0.382683 -0.923880 0.000000
vt 0.061361901 0.775655746
vn 0.382683 -0.923880 0.000000
vt 0.080343604 0.775655746
vn -0.923880 -0.382683 0.000000
vt 0.080358751 0.784213722
vn -0.923880 -0.382683 0.000000
vt 0.061380256 0.784213722
vn -0.382683 -0.923880 0.000000
vt 0.061365571 0.779934764
vn -0.923880 -0.382683 0.000000
vt 0.080358751 0.784213722
vn -0.382683 -0.923880 0.000000
vt 0.061365571 0.779934764
vn -0.382683 -0.923880 0.000000
vt 0.080339015 0.779934764
vn -0.923880 0.382683 0.000000
vt 0.080381006 0.771376789
vn -0.923880 0.382683 0.000000
vt 0.061399989 0.771376789
vn -0.923880 -0.382683 0.000000
vt 0.061392877 0.767097771
vn -0.923880 0.382683 0.000000
vt 0.080381006 0.771376789
vn -0.923880 -0.382683 0.000000
vt 0.061392877 0.767097771
vn -0.923880 -0.382683 0.000000
vt 0.080372520 0.767097771
vn -1.000000 0.000000 0.000000
vt 0.121278465 0.521823943
vn -1.000000 0.000000 0.000000
vt 0.141545802 0.521823943
vn -1.000000 0.000000 0.000000
vt 0.141554981 0.529584229
vn -1.000000 0.000000 0.000000
vt 0.121278465 0.521823943
vn -1.000000 0.000000 0.000000
vt 0.141554981 0.529584229
vn -1.000000 0.000000 0.000000
vt 0.121285573 0.529584229
vn 1.000000 -0.000000 -0.000000
vt 0.077081896 0.911865294
vn 1.000000 -0.000000 -0.000000
vt 0.077082127 0.923833370
vn 1.000000 -0.000000 -0.000000
vt 0.070183314 0.923833370
vn 1.000000 -0.000000 -0.000000
vt 0.077081896 0.911865294
vn 1.000000 -0.000000 -0.000000
vt 0.070183314 0.923833370
vn 1.000000 -0.000000 -0.000000
vt 0.070183083 0.911865294
vn -0.000000 0.000000 -1.000000
vt 0.002165142 0.515274346
vn -0.000000 0.000000 -1.000000
vt 0.002179598 0.501685023
vn -0.000000 0.000000 -1.000000
vt 0.016461825 0.501685023
vn -0.000000 0.000000 -1.000000
vt 0.002165142 0.515274346
vn -0.000000 0.000000 -1.000000
vt 0.016461825 0.501685023
vn -0.000000 0.000000 -1.000000
vt 0.016447598 0.515274346
vn 0.000000 0.674922 0.737889
vt 0.015983179 0.610946655
vn 0.000000 0.674922 0.737889
vt 0.015987998 0.628260374
vn 0.000000 0.674922 0.737889
vt 0.002560264 0.628260374
vn 0.000000 0.674922 0.737889
vt 0.015983179 0.610946655
vn 0.000000 0.674922 0.737889
vt 0.002560264 0.628260374
vn 0.000000 0.674922 0.737889
vt 0.002555446 0.610946655
vn -0.000000 0.000000 -1.000000
vt 0.016430847 0.515274346
vn -0.000000 0.000000 -1.000000
vt 0.016440026 0.501685023
vn -0.000000 0.000000 -1.000000
vt 0.002157570 0.501685023
vn -0.000000 0.000000 -1.000000
vt 0.016430847 0.515274346
vn -0.000000 0.000000 -1.000000
vt 0.002157570 0.501685023
vn -0.000000 0.000000 -1.000000
vt 0.002148621 0.515274346
vn 0.000000 -0.674922 0.737889
vt 0.002529747 0.610946655
vn 0.000000 -0.674922 0.737889
vt 0.002526305 0.628260374
vn 0.000000 -0.674922 0.737889
vt 0.015953809 0.628260374
vn 0.000000 -0.674922 0.737889
vt 0.002529747 0.610946655
vn 0.000000 -0.674922 0.737889
vt 0.015953809 0.628260374
vn 0.000000 -0.674922 0.737889
vt 0.015957251 0.610946655
vn -0.982400 0.000000 0.186788
vt 0.135055661 0.509161949
vn -0.982400 0.000000 0.186788
vt 0.133963451 0.523917377
vn -0.982400 0.000000 0.186788
vt 0.128593728 0.523917377
vn -0.982400 0.000000 0.186788
vt 0.135055661 0.509161949
vn -0.982400 0.000000 0.186788
vt 0.128593728 0.523917377
vn -0.982400 0.000000 0.186788
vt 0.127491429 0.509161949
vn 0.000000 -0.982400 0.186788
vt 0.135033861 0.509161949
vn 0.000000 -0.982400 0.186788
vt 0.133946016 0.523917377
vn 0.000000 -0.982400 0.186788
vt 0.128574684 0.523917377
vn 0.000000 -0.982400 0.186788
vt 0.135033861 0.509161949
vn 0.000000 -0.982400 0.186788
vt 0.128574684 0.523917377
vn 0.000000 -0.982400 0.186788
vt 0.127465263 0.509161949
s 1
f 1/1/1 2/2/2 3/3/3
f 1/4/4 3/5/5 4/6/6
s 2
f 5/7/7 6/8/8 7/9/9
f 5/10/10 7/11/11 8/12/12
s 3
f 9/13/13 10/14/14 11/15/15
f 9/16/16 11/17/17 12/18/18
f 12/19/19 11/20/20 13/21/21
f 12/22/22 13/23/23 1/24/24
f 1/25/25 13/26/26 14/27/27
f 1/28/28 14/29/29 4/30/30
f 4/31/31 14/32/32 15/33/33
f 4/34/34 15/35/35 16/36/36
f 16/37/37 15/38/38 17/39/39
f 16/40/40 17/41/41 18/42/42
f 18/43/43 17/44/44 19/45/45
f 18/46/46 19/47/47 20/48/48
f 20/49/49 19/50/50 21/51/51
f 20/52/52 21/53/53 22/54/54
f 22/55/55 21/56/56 10/57/57
f 22/58/58 10/59/59 9/60/60
s 4
f 23/61/61 24/62/62 25/63/63
f 23/64/64 25/65/65 26/66/66
s 5
f 27/67/67 28/68/68 29/69/69
f 27/70/70 29/71/71 3/72/72
s 6
f 30/73/73 31/74/74 32/75/75
f 30/76/76 32/77/77 33/78/78
s 7
f 34/79/79 35/80/80 36/81/81
f 34/82/82 36/83/83 37/84/84
f 34/85/85 37/86/86 38/87/87
f 34/88/88 38/89/89 39/90/90
f 34/91/91 39/92/92 40/93/93
f 34/94/94 40/95/95 41/96/96
s 8
f 22/97/97 42/98/98 43/99/99
f 22/100/100 43/101/101 20/102/102
s 9
f 33/103/103 44/104/104 45/105/105
f 33/106/106 45/107/107 30/108/108
s 10
f 9/109/109 26/110/110 23/111/111
f 9/112/112 23/113/113 12/114/114
s 11
f 46/115/115 47/116/116 48/117/117
f 46/118/118 48/119/119 49/120/120
s 12
f 16/121/121 50/122/122 51/123/123
f 16/124/124 51/125/125 27/126/126
s 13
f 52/127/127 53/128/128 54/129/129
f 52/130/130 54/131/131 18/132/132
s 14
f 1/133/133 8/134/134 7/135/135
f 1/136/136 7/137/137 2/138/138
s 15
f 3/139/139 6/140/140 5/141/141
f 3/142/142 5/143/143 4/144/144
s 16
f 9/145/145 26/146/146 30/147/147
f 9/148/148 30/149/149 22/150/150
f 12/151/151 23/152/152 26/153/153
f 12/154/154 26/155/155 9/156/156
f 1/157/157 2/158/158 23/159/159
f 1/160/160 23/161/161 12/162/162
f 4/163/163 3/164/164 2/165/165
f 4/166/166 2/167/167 1/168/168
f 16/169/169 27/170/170 3/171/171
f 16/172/172 3/173/173 4/174/174
f 18/175/175 52/176/176 27/177/177
f 18/178/178 27/179/179 16/180/180
f 20/181/181 33/182/182 52/183/183
f 20/184/184 52/185/185 18/186/186
f 22/187/187 30/188/188 33/189/189
f 22/190/190 33/191/191 20/192/192
s 17
f 55/193/193 41/194/194 40/195/195
f 55/196/196 40/197/197 56/198/198
f 57/199/199 34/200/200 41/201/201
f 57/202/202 41/203/203 55/204/204
f 58/205/205 35/206/206 34/207/207
f 58/208/208 34/209/209 57/210/210
f 59/211/211 36/212/212 35/213/213
f 59/214/214 35/215/215 58/216/216
f 60/217/217 37/218/218 36/219/219
f 60/220/220 36/221/221 59/222/222
f 61/223/223 38/224/224 37/225/225
f 61/226/226 37/227/227 60/228/228
f 62/229/229 39/230/230 38/231/231
f 62/232/232 38/233/233 61/234/234
f 56/235/235 40/236/236 39/237/237
f 56/238/238 39/239/239 62/240/240
s 18
f 25/241/241 24/242/242 63/243/243
f 25/244/244 63/245/245 29/246/246
f 25/247/247 29/248/248 28/249/249
f 25/250/250 28/251/251 64/252/252
f 25/253/253 64/254/254 32/255/255
f 25/256/256 32/257/257 31/258/258
s 19
f 20/259/259 43/260/260 44/261/261
f 20/262/262 44/263/263 33/264/264
s 20
f 30/265/265 45/266/266 42/267/267
f 30/268/268 42/269/269 22/270/270
s 21
f 9/271/271 49/272/272 48/273/273
f 9/274/274 48/275/275 26/276/276
s 22
f 23/277/277 47/278/278 46/279/279
f 23/280/280 46/281/281 12/282/282
s 23
f 16/283/283 27/284/284 52/285/285
f 16/286/286 52/287/287 18/288/288
s 24
f 54/289/289 53/290/290 51/291/291
f 54/292/292 51/293/293 50/294/294
s 25
f 4/295/295 5/296/296 8/297/297
f 4/298/298 8/299/299 1/300/300
s 26
f 2/301/301 7/302/302 6/303/303
f 2/304/304 6/305/305 3/306/306
s 27
f 26/307/307 25/308/308 31/309/309
f 26/310/310 31/311/311 30/312/312
s 28
f 2/313/313 63/314/314 24/315/315
f 2/316/316 24/317/317 23/318/318
s 29
f 33/319/319 32/320/320 64/321/321
f 33/322/322 64/323/323 52/324/324
s 30
f 11/325/325 55/326/326 56/327/327
f 11/328/328 56/329/329 13/330/330
f 10/331/331 57/332/332 55/333/333
f 10/334/334 55/335/335 11/336/336
f 21/337/337 58/338/338 57/339/339
f 21/340/340 57/341/341 10/342/342
f 19/343/343 59/344/344 58/345/345
f 19/346/346 58/347/347 21/348/348
f 17/349/349 60/350/350 59/351/351
f 17/352/352 59/353/353 19/354/354
f 15/355/355 61/356/356 60/357/357
f 15/358/358 60/359/359 17/360/360
f 14/361/361 62/362/362 61/363/363
f 14/364/364 61/365/365 15/366/366
f 13/367/367 56/368/368 62/369/369
f 13/370/370 62/371/371 14/372/372
s 31
f 20/373/373 33/374/374 30/375/375
f 20/376/376 30/377/377 22/378/378
s 32
f 42/379/379 45/380/380 44/381/381
f 42/382/382 44/383/383 43/384/384
s 33
f 12/385/385 46/386/386 49/387/387
f 12/388/388 49/389/389 9/390/390
s 34
f 26/391/391 48/392/392 47/393/393
f 26/394/394 47/395/395 23/396/396
s 35
f 18/397/397 54/398/398 50/399/399
f 18/400/400 50/401/401 16/402/402
s 36
f 27/403/403 51/404/404 53/405/405
f 27/406/406 53/407/407 52/408/408
s 37
f 3/409/409 29/410/410 63/411/411
f 3/412/412 63/413/413 2/414/414
s 38
f 52/415/415 64/416/416 28/417/417
f 52/418/418 28/419/419 27/420/420
